<?xml version="1.0" encoding="iso-8859-1"?>
<!-- Generator: Adobe Illustrator 19.0.0, SVG Export Plug-In . SVG Version: 6.00 Build 0)  -->
<svg version="1.1" id="Capa_1" xmlns="http://www.w3.org/2000/svg" xmlns:xlink="http://www.w3.org/1999/xlink" x="0px" y="0px"
	 viewBox="0 0 480 480" style="enable-background:new 0 0 480 480;" xml:space="preserve">
<path style="fill:#D32144;" d="M227.201,368l12.8-32l24,24l-40,16L227.201,368z"/>
<g>
	<path style="fill:#D3D3D3;" d="M360.001,264l-64,64v-48l40-40L360.001,264z"/>
	<path style="fill:#D3D3D3;" d="M296.001,280v48l-32,32v-48L296.001,280z"/>
	<path style="fill:#D3D3D3;" d="M264.001,312v48l-24-24L264.001,312z"/>
</g>
<g>
	<path style="fill:#5B5B5B;" d="M336.01,240.003l24.002-24.002l24.002,24.002l-24.002,24.002L336.01,240.003z"/>
	<path style="fill:#5B5B5B;" d="M360.009,215.999l87.998-87.998l24.002,24.002l-87.998,87.998L360.009,215.999z"/>
</g>
<path style="fill:#3AA2EB;" d="M132.721,365.36c-9.388-6.23-11.947-18.89-5.718-28.278c6.23-9.388,18.89-11.948,28.278-5.718
	c9.388,6.23,11.947,18.89,5.718,28.278c-1.505,2.268-3.449,4.212-5.718,5.718l-7.44,5.12c-1.28,0.88-2.56,1.68-3.84,2.4
	c-1.28-0.72-2.56-1.52-3.84-2.4L132.721,365.36z"/>
<path style="fill:#E92A40;" d="M136.001,172v12h-56v-12c0-15.464,12.536-28,28-28l0,0C123.434,144.074,135.926,156.567,136.001,172z
	"/>
<circle style="fill:#FFDFC4;" cx="108.001" cy="108" r="28"/>
<path style="fill:#3AA2EB;" d="M144.001,372.88c1.28-0.72,2.56-1.52,3.84-2.4l7.44-5.12c9.366-6.23,11.909-18.873,5.679-28.239
	c-6.23-9.366-18.873-11.909-28.239-5.679c-9.366,6.23-11.909,18.873-5.679,28.239c1.497,2.251,3.428,4.182,5.679,5.679l7.44,5.12
	C141.441,371.36,142.721,372.16,144.001,372.88z M108.001,136c15.464,0,28-12.536,28-28s-12.536-28-28-28s-28,12.536-28,28
	S92.537,136,108.001,136z M108.001,144c-15.464,0-28,12.536-28,28l0,0v12h56v-12C135.926,156.567,123.434,144.074,108.001,144z
	 M224.001,376l40-16v64h-224V40h224v272l-24,24l-12.8,32L224.001,376z"/>
<path style="fill:#454545;" d="M296.001,328v144h-288V8h288v272l-32,32V40h-224v384h224v-64L296.001,328z"/>
<g>
	<path style="fill:#07B671;" d="M344.001,440h16v32h-16V440z"/>
	<path style="fill:#07B671;" d="M336.001,448h32v16h-32V448z"/>
</g>
<g>
	<path style="fill:#3AA2EB;" d="M336.422,21.659l11.314-11.314l11.28,11.28l-11.314,11.314L336.422,21.659z"/>
	<path style="fill:#3AA2EB;" d="M359.063,21.658l11.314-11.314l11.28,11.28l-11.314,11.314L359.063,21.658z"/>
	<path style="fill:#3AA2EB;" d="M359.064,44.323l11.314-11.314l11.28,11.28l-11.314,11.314L359.064,44.323z"/>
	<path style="fill:#3AA2EB;" d="M336.423,44.252l11.314-11.314l11.28,11.28l-11.314,11.314L336.423,44.252z"/>
</g>
<g>
	<path style="fill:#F29823;" d="M424.001,296h16v16h-16V296z"/>
	<path style="fill:#F29823;" d="M424.001,344h16v16h-16V344z"/>
	<path style="fill:#F29823;" d="M403.75,310.998l11.314-11.314l11.359,11.359l-11.314,11.314L403.75,310.998z"/>
	<path style="fill:#F29823;" d="M437.625,344.918l11.314-11.314l11.359,11.359l-11.314,11.314L437.625,344.918z"/>
	<path style="fill:#F29823;" d="M400.001,320h16v16h-16V320z"/>
	<path style="fill:#F29823;" d="M448.001,320h16v16h-16V320z"/>
	<path style="fill:#F29823;" d="M403.736,344.948l11.359-11.359l11.314,11.314l-11.359,11.359L403.736,344.948z"/>
	<path style="fill:#F29823;" d="M437.632,311.058l11.359-11.359l11.314,11.314l-11.359,11.359L437.632,311.058z"/>
</g>
<path style="fill:#BAD7EB;" d="M383.067,109.657l11.314-11.314l11.28,11.28l-11.314,11.314L383.067,109.657z"/>
<path style="fill:#8F8F8F;" d="M354.351,221.675l11.314-11.314l24.002,24.002l-11.314,11.314L354.351,221.675z"/>
<g>
	<path style="fill:#BAD7EB;" d="M168.001,80h64v16h-64V80z"/>
	<path style="fill:#BAD7EB;" d="M168.001,112h64v16h-64V112z"/>
	<path style="fill:#BAD7EB;" d="M168.001,144h64v16h-64V144z"/>
	<path style="fill:#BAD7EB;" d="M168.001,176h64v16h-64V176z"/>
	<path style="fill:#BAD7EB;" d="M72.001,208h160v16h-160V208z"/>
	<path style="fill:#BAD7EB;" d="M72.001,240h160v16h-160V240z"/>
	<path style="fill:#BAD7EB;" d="M72.001,272h160v16h-160V272z"/>
	<path style="fill:#BAD7EB;" d="M184.001,376c-8.139-0.052-16.206-1.533-23.832-4.376c12.841-8.829,16.094-26.396,7.265-39.237
		c-0.997-1.45-2.128-2.804-3.377-4.043c-11.203-10.743-28.885-10.743-40.088,0c-11.079,11.003-11.14,28.904-0.137,39.982
		c1.221,1.229,2.552,2.344,3.977,3.33c-7.62,2.832-15.679,4.303-23.808,4.344v16c13.963-0.06,27.698-3.546,40-10.152
		c12.302,6.606,26.037,10.092,40,10.152h24v-16H184.001z M135.257,339.656c4.809-4.857,12.645-4.897,17.502-0.088
		c4.857,4.809,4.897,12.645,0.088,17.502c-0.634,0.641-1.336,1.21-2.094,1.698l-6.752,4.648l-6.856-4.72
		c-3.107-2.057-5.116-5.41-5.464-9.12C131.305,345.898,132.621,342.248,135.257,339.656z"/>
</g>
<path d="M477.657,146.344l-24-24c-3.124-3.123-8.188-3.123-11.312,0l-112,112l-26.344,26.344V8c0-4.418-3.582-8-8-8h-288
	c-4.418,0-8,3.582-8,8v464c0,4.418,3.582,8,8,8h288c4.418,0,8-3.582,8-8V331.312l61.656-61.656l112-112
	C480.78,154.532,480.78,149.468,477.657,146.344L477.657,146.344z M288.001,464h-272V16h272v260.688l-16,16V40c0-4.418-3.582-8-8-8
	h-224c-4.418,0-8,3.582-8,8v384c0,4.418,3.582,8,8,8h224c4.418,0,8-3.582,8-8v-60.688l16-16V464z M234.345,330.344
	c-0.765,0.767-1.367,1.682-1.768,2.688l-16,40c-1.642,4.102,0.352,8.758,4.454,10.4c1.908,0.764,4.037,0.764,5.946,0l29.024-11.616
	V416h-208V48h208v260.688L234.345,330.344z M249.769,357.08l-11.408,4.56l4.56-11.408L249.769,357.08z M290.345,322.344
	l-26.344,26.344L251.313,336l18.344-18.344l32-32l34.344-34.344L348.689,264L290.345,322.344z M360.001,252.688L347.313,240
	l12.688-12.688L372.689,240L360.001,252.688z M384.001,228.688L371.313,216l76.688-76.688L460.689,152L384.001,228.688z"/>
<path d="M344.001,440v8h-8v16h8v8h16v-8h8v-16h-8v-8H344.001z"/>
<path d="M336.408,21.653l11.314-11.314l11.314,11.314l-11.314,11.314L336.408,21.653z"/>
<path d="M359.03,21.655l11.314-11.314l11.314,11.314l-11.314,11.314L359.03,21.655z"/>
<path d="M359.035,44.237l11.314-11.314l11.314,11.314l-11.314,11.314L359.035,44.237z"/>
<path d="M336.406,44.235l11.314-11.314l11.314,11.314l-11.314,11.314L336.406,44.235z"/>
<path d="M400.001,336h12.688l-8.968,8.968l11.312,11.312l8.968-8.968V360h16v-12.688l8.968,8.968l11.312-11.312L451.313,336h12.688
	v-16h-12.688l8.968-8.968l-11.312-11.312l-8.968,8.968V296h-16v12.688l-8.968-8.968l-11.312,11.312l8.968,8.968h-12.688V336z
	 M416.001,321.376l9.376-9.376h13.248l9.376,9.376v13.248L438.625,344h-13.248l-9.376-9.376V321.376z"/>
<path d="M383.034,109.654l11.314-11.314l11.314,11.314l-11.314,11.314L383.034,109.654z"/>
<path d="M80.001,192h56c4.418,0,8-3.582,8-8v-12c-0.045-13.56-7.725-25.939-19.856-32c17.771-8.916,24.949-30.55,16.033-48.321
	c-8.916-17.771-30.55-24.949-48.321-16.033s-24.949,30.55-16.033,48.321c3.478,6.932,9.101,12.555,16.033,16.033
	c-12.131,6.061-19.811,18.44-19.856,32v12C72.001,188.418,75.583,192,80.001,192z M88.001,108c0-11.046,8.954-20,20-20
	s20,8.954,20,20s-8.954,20-20,20S88.001,119.046,88.001,108z M88.001,172c0-11.046,8.954-20,20-20s20,8.954,20,20v4h-40V172z"/>
<path d="M168.001,80h64v16h-64V80z"/>
<path d="M168.001,112h64v16h-64V112z"/>
<path d="M168.001,144h64v16h-64V144z"/>
<path d="M168.001,176h64v16h-64V176z"/>
<path d="M72.001,208h160v16h-160V208z"/>
<path d="M72.001,240h160v16h-160V240z"/>
<path d="M72.001,272h160v16h-160V272z"/>
<path d="M160.089,371.784c12.915-8.885,16.181-26.557,7.296-39.472c-8.885-12.915-26.558-16.182-39.472-7.296
	c-12.915,8.885-16.182,26.557-7.296,39.472c1.966,2.857,4.439,5.33,7.296,7.296c-7.662,2.796-15.756,4.223-23.912,4.216
	c-4.418,0-8,3.582-8,8s3.582,8,8,8c13.941,0.018,27.675-3.38,40-9.896c12.325,6.516,26.059,9.914,40,9.896h24v-16h-24
	C175.845,376.007,167.751,374.58,160.089,371.784z M150.809,358.744l-6.808,4.64l-6.872-4.688
	c-5.688-3.798-7.221-11.487-3.423-17.176s11.488-7.221,17.176-3.423c5.688,3.798,7.221,11.487,3.423,17.176
	C153.384,356.652,152.195,357.833,150.809,358.744L150.809,358.744z"/>
<g>
</g>
<g>
</g>
<g>
</g>
<g>
</g>
<g>
</g>
<g>
</g>
<g>
</g>
<g>
</g>
<g>
</g>
<g>
</g>
<g>
</g>
<g>
</g>
<g>
</g>
<g>
</g>
<g>
</g>
</svg>
