<svg height="574pt" viewBox="-18 -59 574.66744 574" width="574pt" xmlns="http://www.w3.org/2000/svg"><path d="m416.316406 208.789062c-67.621094 0-122.4375 54.816407-122.4375 122.433594 0 67.621094 54.816406 122.4375 122.4375 122.4375s122.433594-54.816406 122.433594-122.4375c-.078125-67.585937-54.847656-122.359375-122.433594-122.433594zm-34.671875 150.144532c3.679688 3.128906 4.121094 8.648437.992188 12.328125-3.132813 3.675781-8.652344 4.121093-12.328125.992187l-40.871094-34.808594c-1.953125-1.664062-3.074219-4.09375-3.074219-6.65625 0-2.566406 1.121094-4.996093 3.074219-6.660156l40.871094-34.800781c3.679687-3.085937 9.160156-2.621094 12.273437 1.035156 3.113281 3.652344 2.695313 9.140625-.9375 12.28125l-33.046875 28.144531zm54.226563-86.378906-25.476563 120.9375c-.996093 4.726562-5.632812 7.75-10.359375 6.753906-4.726562-.996094-7.75-5.632813-6.753906-10.355469l25.46875-120.9375c.996094-4.730469 5.636719-7.75 10.359375-6.753906 4.730469.996093 7.75 5.628906 6.753906 10.359375zm67.316406 64.890624-40.867188 34.808594c-3.679687 3.128906-9.199218 2.683594-12.328124-.992187-3.132813-3.679688-2.6875-9.199219.992187-12.328125l33.050781-28.144532-33.050781-28.144531c-3.601563-3.152343-4.003906-8.609375-.898437-12.253906 3.097656-3.640625 8.554687-4.113281 12.234374-1.0625l40.871094 34.804687c1.949219 1.660157 3.078125 4.09375 3.078125 6.65625s-1.128906 5-3.078125 6.65625zm0 0"/><path d="m37.421875 32.871094h-.023437c-3.84375-.007813-6.957032 3.101562-6.964844 6.945312-.003906 3.839844 3.101562 6.953125 6.945312 6.960938h.019532c3.828124-.003906 6.9375-3.101563 6.953124-6.933594.015626-3.835938-3.089843-6.960938-6.929687-6.972656zm0 0"/><path d="m407.285156 38.792969c-.023437-22.761719-18.46875-41.203125-41.226562-41.226563h-324.832032c-22.757812.023438-41.2031245 18.464844-41.226562 41.226563v42.910156h407.285156zm-369.886718 25.476562h-.074219c-13.5-.023437-24.425781-10.984375-24.40625-24.484375s10.980469-24.425781 24.480469-24.40625h.078124c13.496094.023438 24.425782 10.980469 24.40625 24.484375-.027343 13.5-10.980468 24.425781-24.484374 24.40625zm70.519531.21875h-.082031c-13.433594-.117187-24.257813-11.046875-24.238282-24.484375.019532-13.429687 10.878906-24.332031 24.316406-24.40625h.070313c13.4375.117188 24.261719 11.050782 24.242187 24.484375-.023437 13.429688-10.878906 24.335938-24.3125 24.40625zm70.515625.21875h-.078125c-13.5-.019531-24.425781-10.980469-24.40625-24.476562.023437-13.503907 10.980469-24.429688 24.484375-24.40625h.078125c13.496093.019531 24.425781 10.980469 24.398437 24.476562-.019531 13.5-10.980468 24.425781-24.476562 24.40625zm0 0"/><path d="m178.453125 33.3125h-.019531c-3.84375-.007812-6.960938 3.101562-6.964844 6.941406-.007812 3.839844 3.101562 6.960938 6.9375 6.964844h.027344c3.828125-.003906 6.933594-3.101562 6.949218-6.929688.011719-3.839843-3.089843-6.964843-6.929687-6.976562zm0 0"/><path d="m41.226562 353.140625h236.878907c-6.148438-38.875 4.359375-78.542969 28.941406-109.28125 24.574219-30.738281 60.964844-49.707031 100.238281-52.257813v-92.410156h-407.285156v212.722656c.0234375 22.753907 18.46875 41.203126 41.226562 41.226563zm0 0"/><path d="m107.9375 33.089844h-.019531c-3.808594.042968-6.867188 3.136718-6.878907 6.941406-.003906 3.804688 3.050782 6.910156 6.855469 6.960938h.023438c3.824219-.003907 6.933593-3.097657 6.949219-6.929688.015624-3.839844-3.089844-6.964844-6.929688-6.972656zm0 0"/></svg>