<?xml version="1.0"?>
<svg xmlns="http://www.w3.org/2000/svg" id="Layer_1" data-name="Layer 1" viewBox="0 0 512 512" width="512" height="512"><title>Indian Rupee</title><path d="M256,414.891c87.613,0,158.891-71.278,158.891-158.891S343.613,97.109,256,97.109,97.109,168.387,97.109,256,168.387,414.891,256,414.891ZM208.422,229.642a5.9,5.9,0,0,1-5.936-5.944,5.8,5.8,0,0,1,6-5.7h.065l61.43.421a35.042,35.042,0,0,0-33.94-29.378l-27.2-.291a6.017,6.017,0,0,1-5.958-6.063,5.923,5.923,0,0,1,6.019-5.933l27.1.295v.022l67.926.756A6.086,6.086,0,0,1,303.952,190h-.065l-36.6-.479a46.5,46.5,0,0,1,14.825,28.849l21.462.288a6.1,6.1,0,0,1,5.936,6.178,6.2,6.2,0,0,1-6,6.164h-.066l-21.462-.459a46.638,46.638,0,0,1-46.3,40.049l-.508,0-12.108-.13,56.422,54.475a6,6,0,0,1-8.335,8.633l-67.275-64.951a6,6,0,0,1,4.232-10.311l27.192.3c.125,0,.254.017.379.017a34.8,34.8,0,0,0,34.173-28.378Z"/></svg>
