<?xml version="1.0" encoding="iso-8859-1"?>
<!-- Generator: Adobe Illustrator 21.0.0, SVG Export Plug-In . SVG Version: 6.00 Build 0)  -->
<svg xmlns="http://www.w3.org/2000/svg" xmlns:xlink="http://www.w3.org/1999/xlink" version="1.1" id="Capa_1" x="0px" y="0px" viewBox="0 0 511 511" style="enable-background:new 0 0 511 511;" xml:space="preserve" width="512" height="512">
<g>
	<g>
		<path d="M471.5,0H87.617c-4.143,0-7.5,3.357-7.5,7.5v248c0,4.143,3.357,7.5,7.5,7.5s7.5-3.357,7.5-7.5V15H464v440.5    c0,22.332-18.168,40.5-40.5,40.5S383,477.832,383,455.5c0-4.143-3.357-7.5-7.5-7.5H95.117V290.853c0-4.143-3.357-7.5-7.5-7.5    s-7.5,3.357-7.5,7.5V448H39.5c-4.143,0-7.5,3.357-7.5,7.5c0,30.603,24.897,55.5,55.5,55.5h0.117H423.5    c30.603,0,55.5-24.897,55.5-55.5V7.5C479,3.357,475.643,0,471.5,0z M87.617,496H87.5c-19.77,0-36.276-14.24-39.804-33h320.809    c1.755,12.943,7.989,24.48,17.085,33H87.617z"/>
		<path d="M431,55.5c0-4.143-3.357-7.5-7.5-7.5h-288c-4.143,0-7.5,3.357-7.5,7.5v64c0,4.143,3.357,7.5,7.5,7.5h288    c4.143,0,7.5-3.357,7.5-7.5V55.5z M416,112H143V63h273V112z"/>
		<path d="M135.5,175h48c4.143,0,7.5-3.357,7.5-7.5s-3.357-7.5-7.5-7.5h-48c-4.143,0-7.5,3.357-7.5,7.5S131.357,175,135.5,175z"/>
		<path d="M423.5,160h-200c-4.143,0-7.5,3.357-7.5,7.5s3.357,7.5,7.5,7.5h200c4.143,0,7.5-3.357,7.5-7.5S427.643,160,423.5,160z"/>
		<path d="M135.5,207h88c4.143,0,7.5-3.357,7.5-7.5s-3.357-7.5-7.5-7.5h-88c-4.143,0-7.5,3.357-7.5,7.5S131.357,207,135.5,207z"/>
		<path d="M423.5,192h-168c-4.143,0-7.5,3.357-7.5,7.5s3.357,7.5,7.5,7.5h168c4.143,0,7.5-3.357,7.5-7.5S427.643,192,423.5,192z"/>
		<path d="M135.5,415h56c4.143,0,7.5-3.357,7.5-7.5s-3.357-7.5-7.5-7.5h-56c-4.143,0-7.5,3.357-7.5,7.5S131.357,415,135.5,415z"/>
		<path d="M223.5,415h200c4.143,0,7.5-3.357,7.5-7.5s-3.357-7.5-7.5-7.5h-200c-4.143,0-7.5,3.357-7.5,7.5S219.357,415,223.5,415z"/>
		<path d="M183.5,375c4.143,0,7.5-3.357,7.5-7.5V359h0.5c17.369,0,31.5-14.131,31.5-31.5S208.869,296,191.5,296h-16    c-9.098,0-16.5-7.402-16.5-16.5s7.402-16.5,16.5-16.5h40c4.143,0,7.5-3.357,7.5-7.5s-3.357-7.5-7.5-7.5H191v-8.5    c0-4.143-3.357-7.5-7.5-7.5s-7.5,3.357-7.5,7.5v8.5h-0.5c-17.369,0-31.5,14.131-31.5,31.5s14.131,31.5,31.5,31.5h16    c9.098,0,16.5,7.402,16.5,16.5s-7.402,16.5-16.5,16.5h-40c-4.143,0-7.5,3.357-7.5,7.5s3.357,7.5,7.5,7.5H176v8.5    C176,371.643,179.357,375,183.5,375z"/>
		<path d="M287.5,344h-40c-4.143,0-7.5,3.357-7.5,7.5s3.357,7.5,7.5,7.5H272v8.5c0,4.143,3.357,7.5,7.5,7.5s7.5-3.357,7.5-7.5V359    h0.5c17.369,0,31.5-14.131,31.5-31.5S304.869,296,287.5,296h-16c-9.098,0-16.5-7.402-16.5-16.5s7.402-16.5,16.5-16.5h40    c4.143,0,7.5-3.357,7.5-7.5s-3.357-7.5-7.5-7.5H287v-8.5c0-4.143-3.357-7.5-7.5-7.5s-7.5,3.357-7.5,7.5v8.5h-0.5    c-17.369,0-31.5,14.131-31.5,31.5s14.131,31.5,31.5,31.5h16c9.098,0,16.5,7.402,16.5,16.5S296.598,344,287.5,344z"/>
		<path d="M383.5,344h-40c-4.143,0-7.5,3.357-7.5,7.5s3.357,7.5,7.5,7.5H368v8.5c0,4.143,3.357,7.5,7.5,7.5s7.5-3.357,7.5-7.5V359    h0.5c17.369,0,31.5-14.131,31.5-31.5S400.869,296,383.5,296h-16c-9.098,0-16.5-7.402-16.5-16.5s7.402-16.5,16.5-16.5h40    c4.143,0,7.5-3.357,7.5-7.5s-3.357-7.5-7.5-7.5H383v-8.5c0-4.143-3.357-7.5-7.5-7.5s-7.5,3.357-7.5,7.5v8.5h-0.5    c-17.369,0-31.5,14.131-31.5,31.5s14.131,31.5,31.5,31.5h16c9.098,0,16.5,7.402,16.5,16.5S392.598,344,383.5,344z"/>
	</g>
</g>















</svg>
