<svg height="512pt" viewBox="-1 0 511 512" width="512pt" xmlns="http://www.w3.org/2000/svg"><path d="m216.070312 157.5c4.171876 0 7.558594-3.382812 7.558594-7.558594v-8.453125c0-4.175781-3.386718-7.558593-7.558594-7.558593-4.175781 0-7.558593 3.382812-7.558593 7.558593v8.453125c0 4.175782 3.382812 7.558594 7.558593 7.558594zm0 0"/><path d="m286.160156 157.5c4.175782 0 7.558594-3.382812 7.558594-7.558594v-8.453125c0-4.175781-3.382812-7.558593-7.558594-7.558593-4.171875 0-7.554687 3.382812-7.554687 7.558593v8.453125c0 4.175782 3.382812 7.558594 7.554687 7.558594zm0 0"/><path d="m223.210938 360.539062c0 15.136719 13.675781 27.449219 30.484374 27.449219 16.824219 0 30.511719-12.3125 30.511719-27.449219 0-15.117187-13.6875-27.421874-30.511719-27.421874-16.808593 0-30.484374 12.304687-30.484374 27.421874zm30.484374-12.304687c8.488282 0 15.394532 5.519531 15.394532 12.304687 0 6.800782-6.90625 12.332032-15.394532 12.332032-8.472656 0-15.367187-5.53125-15.367187-12.332032 0-6.785156 6.894531-12.304687 15.367187-12.304687zm0 0"/><path d="m504.664062 426.992188-14.5-20.691407c-6.074218-8.675781-14.101562-20.132812-25.894531-23.746093 4.015625-10.007813 2.390625-22.035157-4.859375-35.835938-.011718-.023438-.027344-.050781-.039062-.074219-.023438-.046875-.042969-.089843-.066406-.132812l-30.089844-56.800781c-17.21875-32.542969-32.488282-55.742188-72.363282-57.894532-15.992187-.839844-26.222656-3.707031-37.824218-17.082031-1.128906-1.28125-2.945313-3.167969-4.761719-5.019531 14.613281-14.210938 25.789063-31.855469 30.808594-49.394532 5.679687-1.300781 11.273437-4.4375 15.96875-9.0625 6.09375-6.003906 9.589843-13.609374 9.589843-20.863281v-8.96875c0-9.179687-7.464843-16.644531-16.640624-16.644531h-5.996094v-9.09375c11.03125-8.996094 17.941406-20.289062 20.039062-32.867188 2.046875-12.273437-.664062-25.164062-7.625-36.296874-13.851562-22.140626-44.324218-35.804688-75.765625-19.074219-11.378906 6.058593-25.0625 4.371093-39.550781 2.585937-15.363281-1.894531-31.246094-3.851562-46.539062 2.871094-14.875 6.546875-26.335938 16.855469-34.0625 30.644531-7.46875 13.324219-11.257813 29.625-11.257813 48.441407v12.789062h-5.996094c-9.175781 0-16.640625 7.464844-16.640625 16.644531v8.96875c0 7.257813 3.496094 14.867188 9.597656 20.871094 4.691407 4.625 10.285157 7.761719 15.957032 9.058594 5.378906 18.820312 17.84375 37.753906 34.039062 52.445312-.699218.742188-1.335937 1.429688-1.839844 2.007813-6.40625 7.386718-12.402343 11.558594-19.199218 13.953125-5.46875 1.929687-11.457032 2.710937-18.589844 3.082031-39.878906 2.121094-55.15625 25.335938-72.386719 57.894531l-30.058593 56.800781c-.027344.050782-.050782.101563-.078126.152344-.007812.015625-.019531.035156-.027343.054688-7.539063 14.328125-8.992188 26.742187-4.371094 36.976562-10.089844 4.496094-17.261719 14.707032-22.800781 22.605469l-14.5 20.695313c-3.464844 4.941406-5.398438 10.265624-5.769532 15.441406-.039062.324218-.070312.652344-.070312.992187v45.453125c0 12.75 10.371094 23.121094 23.117188 23.121094h463.707031c12.75 0 23.121093-10.371094 23.121093-23.121094v-42.933594c0-.007812-.003906-.015624-.003906-.023437.425782-6.230469-1.53125-12.867187-5.777344-18.929687zm-353.863281-286.492188c-3.183593-3.140625-5.085937-6.914062-5.085937-10.105469v-8.96875c0-.828125.699218-1.527343 1.523437-1.527343h5.996094v20.902343c0 .59375.035156 1.195313.050781 1.796875-.859375-.625-1.695312-1.324218-2.484375-2.097656zm298.394531 238.519531c-4.785156 7.941407-20.644531 17.402344-68.996093 17.4375l4.347656-43.058593c28.550781-6.425782 47.089844-5.765626 62.410156 2.175781 4.863281 9.949219 5.621094 17.832031 2.238281 23.445312zm-95.203124-259.121093c.824218 0 1.523437.699218 1.523437 1.527343v8.96875c0 3.1875-1.898437 6.960938-5.082031 10.097657-.789063.773437-1.625 1.472656-2.488282 2.101562.019532-.597656.050782-1.199219.050782-1.792969v-20.902343zm-149.351563-93.15625c11.488281-5.046876 24.660156-3.421876 38.601563-1.707032 16.183593 1.996094 32.910156 4.058594 48.503906-4.242187 24.355468-12.957031 46.023437-1.957031 55.847656 13.746093 8.402344 13.4375 10.519531 34.6875-10.8125 50.753907-56.722656 21.378906-78.695312 13.046875-101.957031 4.230469-12.5625-4.761719-25.402344-9.628907-43.144531-9.628907-6.824219 0-14.382813.722657-22.921876 2.449219 1.78125-20.679688 10.027344-44.222656 35.882813-55.601562zm-34.957031 125.695312c-.039063-.292969-.097656-.578125-.167969-.859375-.75-3.652344-1.164063-7.265625-1.164063-10.777344v-42.910156c28.558594-6.566406 43.722657-.824219 61.113282 5.769531 12.898437 4.886719 26.722656 10.125 46.644531 10.125 14.832031 0 33.046875-2.90625 56.769531-11.027344v38.042969c0 3.402344-.390625 6.902344-1.101562 10.445313-.136719.453125-.234375.917968-.285156 1.402344-6.152344 27.410156-32.039063 57.15625-61.039063 67.96875-14.609375 5.453124-24.976563 5.46875-39.597656.054687-29.117188-10.824219-55.105469-40.722656-61.171875-68.234375zm30.074218 72.261719c.542969-.621094 1.355469-1.488281 2.273438-2.441407 7.425781 5.222657 15.359375 9.53125 23.566406 12.585938 9 3.332031 17.003906 4.996094 25.003906 4.996094 8.050782 0 16.09375-1.6875 25.132813-5.0625 9.511719-3.542969 18.65625-8.777344 27.0625-15.171875 1.859375 1.890625 3.84375 3.929687 4.851563 5.074219 5.4375 6.273437 10.847656 10.792968 16.441406 14.054687-13.050782 14.621094-38.417969 24.238281-67.5625 25.085937-31.816406.929688-59.214844-8.503906-73.417969-24.953124 5.667969-3.269532 11.144531-7.820313 16.648437-14.167969zm-108.222656 72.078125c17.28125-32.652344 28.816406-48.21875 59.824219-49.867188 6.070313-.316406 11.703125-.960937 17.050781-2.25 15.554688 21.429688 47.144532 34.339844 83.921875 34.339844 1.535157 0 3.082031-.023438 4.632813-.066406 36.210937-1.058594 66.835937-14.0625 81.808594-34.332032 5.414062 1.328126 11.121093 1.984376 17.273437 2.308594 31.007813 1.675782 42.539063 17.230469 59.808594 49.871094l20.679687 39.039062c-13.8125-3.066406-29.867187-2.445312-50.390625 1.769532l3.277344-32.476563c.476563-4.765625-1.09375-9.410156-4.417969-13.078125-3.605468-3.980468-8.757812-6.265625-14.136718-6.265625h-97.972657c-4.171875 0-7.558593 3.386719-7.558593 7.558594 0 4.175781 3.386718 7.558594 7.558593 7.558594h97.972657c1.070312 0 2.21875.507812 2.929687 1.292969.433594.476562.632813.960937.585937 1.425781l-11.351562 112.382812c-.199219 2.023438-1.386719 4.199219-3.511719 4.199219h-211.648437c-2.25 0-3.316406-2.511719-3.484375-4.207031l-6.996094-69.085938c-.011719-.28125-.039063-.566406-.082031-.84375l-4.296875-42.433593c-.046875-.46875.148437-.949219.585937-1.429688.714844-.789062 1.863282-1.300781 2.925782-1.300781h101.355468c4.171875 0 7.558594-3.382813 7.558594-7.558594 0-4.171875-3.386719-7.558594-7.558594-7.558594h-101.355468c-5.375 0-10.527344 2.289063-14.132813 6.273438-3.324219 3.671875-4.894531 8.3125-4.421875 13.082031l3.289062 32.460938c-20.527343-4.210938-36.578124-4.832032-50.382812-1.769532zm-31.074218 58.796875c15.292968-7.941407 33.828124-8.601563 62.394531-2.179688l4.359375 43.0625c-39.230469-.027343-57.078125-6.257812-64.96875-12.847656-.203125-.203125-.421875-.390625-.648438-.566406-1.496094-1.347657-2.597656-2.703125-3.390625-4.019531-3.378906-5.613282-2.621093-13.496094 2.253907-23.449219zm209.339843 112.949219h212.597657c4.769531 0 9.125-.828126 12.929687-2.371094v22.726562c0 4.414063-3.589844 8.003906-8 8.003906h-463.710937c-4.414063 0-8-3.589843-8-8.003906v-22.757812c3.824218 1.5625 8.214843 2.402344 13.019531 2.402344l206.265625-.117188c4.171875 0 7.554687-3.386719 7.550781-7.5625 0-4.171875-3.382813-7.554688-7.554687-7.554688-.003907 0-.003907 0-.003907 0l-206.261719.117188c-5.929687 0-10.359374-1.976562-12.152343-5.425781-.503907-.972657-.785157-2.042969-.863281-3.179688v-1.269531c.15625-2.449219 1.203124-5.152344 3.101562-7.863281l14.5-20.691407c5.496094-7.839843 12.332031-17.582031 19.90625-18.40625.242188-.003906.6875-.011718 1.183594-.019531 13.660156 10.089844 37.804687 15.023438 73.160156 15.023438h1.277344l.597656 5.917969c1.03125 10.320312 8.824219 17.8125 18.523438 17.8125h211.652343c9.71875 0 17.523438-7.492188 18.554688-17.804688l.597656-5.925781h1.25c35.371094 0 59.519531-4.9375 73.183594-15.035157 1.804687.011719 3.980469.023438 4.617187.035157 7.671875.707031 14.535156 10.511719 20.058594 18.398437l14.5 20.695313c3.160156 4.503906 3.976562 8.996093 2.246094 12.324219-1.789063 3.441406-6.210938 5.414062-12.132813 5.414062h-212.59375c-4.175781 0-7.558593 3.382812-7.558593 7.558594 0 4.175781 3.382812 7.558594 7.558593 7.558594zm0 0"/></svg>