<svg id="Layer_5" enable-background="new 0 0 64 64" height="512" viewBox="0 0 64 64" width="512" xmlns="http://www.w3.org/2000/svg"><path d="m32 1c-17.093 0-31 13.907-31 31s13.907 31 31 31 31-13.907 31-31-13.907-31-31-31zm0 60c-15.991 0-29-13.009-29-29s13.009-29 29-29 29 13.009 29 29-13.009 29-29 29z"/><path d="m51.633 16.533-.697-.883-35.287 35.287.883.697c4.451 3.51 9.8 5.366 15.468 5.366 13.785 0 25-11.215 25-25 0-5.668-1.856-11.017-5.367-15.467zm-16.633 20.467v2h-4c-.176 0-.346-.031-.511-.075l3.585-3.585c.565.36.926.969.926 1.66zm-4 4h6v-4c0-1.239-.57-2.354-1.494-3.092l1.427-1.427c1.306 1.134 2.067 2.771 2.067 4.519v6h-6v4h-2v-3.947l-.858-.123c-.949-.136-1.835-.496-2.609-1.05l1.446-1.446c.609.36 1.297.566 2.021.566zm-2 3.738v4.262h6v-4h6v-8c0-2.286-.979-4.424-2.655-5.931l9.515-9.515c2.051 3.102 3.14 6.686 3.14 10.446 0 10.477-8.523 19-19 19-3.76 0-7.344-1.089-10.446-3.14l4.552-4.552c.863.673 1.841 1.159 2.894 1.43zm3 10.262c-4.836 0-9.42-1.469-13.327-4.259l1.444-1.444c3.506 2.415 7.59 3.703 11.883 3.703 11.58 0 21-9.42 21-21 0-4.293-1.288-8.377-3.703-11.883l1.444-1.444c2.79 3.907 4.259 8.491 4.259 13.327 0 12.682-10.318 23-23 23z"/><path d="m47.467 12.367c-4.45-3.511-9.799-5.367-15.467-5.367-13.785 0-25 11.215-25 25 0 5.668 1.856 11.017 5.367 15.467l.697.883 35.287-35.287zm-18.467 14.633v-2h4c.176 0 .346.031.511.075l-3.584 3.584c-.566-.359-.927-.968-.927-1.659zm4-4h-6v4c0 1.239.57 2.354 1.494 3.092l-1.427 1.427c-1.306-1.134-2.067-2.771-2.067-4.519v-6h6v-4h2v3.947l.858.123c.949.136 1.835.496 2.609 1.05l-1.446 1.446c-.609-.36-1.297-.566-2.021-.566zm2-3.738v-4.262h-6v4h-6v8c0 2.286.979 4.424 2.655 5.931l-9.515 9.515c-2.051-3.102-3.14-6.686-3.14-10.446 0-10.477 8.523-19 19-19 3.76 0 7.344 1.089 10.446 3.14l-4.552 4.552c-.863-.673-1.841-1.159-2.894-1.43zm8.883-4.559c-3.506-2.415-7.59-3.703-11.883-3.703-11.58 0-21 9.42-21 21 0 4.293 1.288 8.377 3.703 11.883l-1.444 1.444c-2.79-3.907-4.259-8.491-4.259-13.327 0-12.682 10.318-23 23-23 4.836 0 9.42 1.469 13.327 4.259z"/><path d="m46 35c1.654 0 3-1.346 3-3s-1.346-3-3-3-3 1.346-3 3 1.346 3 3 3zm0-4c.551 0 1 .449 1 1s-.449 1-1 1-1-.449-1-1 .449-1 1-1z"/><path d="m18 29c-1.654 0-3 1.346-3 3s1.346 3 3 3 3-1.346 3-3-1.346-3-3-3zm0 4c-.551 0-1-.449-1-1s.449-1 1-1 1 .449 1 1-.449 1-1 1z"/></svg>