<svg height="360pt" viewBox="-3 0 360 360.89685" width="360pt" xmlns="http://www.w3.org/2000/svg"><path d="m60.109375 114.644531c1.078125.628907 2.265625.929688 3.433594.929688 2.347656 0 4.632812-1.210938 5.898437-3.382813 3.695313-6.328125 8.011719-12.363281 12.828125-17.945312 2.464844-2.851563 2.148438-7.160156-.707031-9.625-2.832031-2.457032-7.160156-2.15625-9.625.707031-5.363281 6.207031-10.167969 12.929687-14.28125 19.976563-1.902344 3.257812-.808594 7.4375 2.453125 9.339843zm0 0"/><path d="m122.515625 229.722656c1.746094 0 3.492187-.667968 4.824219-2.003906l50.414062-50.414062c1.28125-1.28125 2-3.019532 2-4.828126v-72.023437c0-3.769531-3.054687-6.824219-6.828125-6.824219-3.773437 0-6.824219 3.054688-6.824219 6.824219v69.199219l-48.414062 48.414062c-2.664062 2.667969-2.664062 6.988282 0 9.652344 1.332031 1.335938 3.082031 2.003906 4.828125 2.003906zm0 0"/><path d="m329.789062 244.160156c10.328126-22.539062 15.621094-46.625 15.621094-71.679687 0-95.109375-77.375-172.480469-172.480468-172.480469-95.105469 0-172.480469 77.371094-172.480469 172.476562 0 95.105469 77.371093 172.480469 172.476562 172.480469 21.632813 0 42.679688-3.980469 62.632813-11.765625 11.886718 16.734375 31.378906 27.707032 53.421875 27.707032 36.140625 0 65.539062-29.402344 65.539062-65.539063 0-20.714844-9.683593-39.179687-24.730469-51.199219zm-156.863281 87.144532c-87.578125 0-158.824219-71.25-158.824219-158.824219 0-87.578125 71.246094-158.828125 158.824219-158.828125 87.582031 0 158.828125 71.25 158.828125 158.828125 0 22.4375-4.613281 44.019531-13.605468 64.273437-7.625-3.808594-16.074219-6.160156-25.019532-6.722656 6.332032-13.222656 10.550782-27.292969 12.277344-42.046875 4.140625-35.382813-5.746094-70.265625-27.839844-98.214844-22.09375-27.953125-53.746094-45.625-89.132812-49.769531-29.761719-3.480469-58.988282 2.863281-84.546875 18.34375-3.222657 1.953125-4.253907 6.152344-2.300781 9.375 1.964843 3.234375 6.164062 4.257812 9.378906 2.304688 22.933594-13.898438 49.167968-19.589844 75.878906-16.464844 31.769531 3.722656 60.183594 19.585937 80.015625 44.675781 19.832031 25.09375 28.707031 56.402344 24.988281 88.167969-1.808594 15.4375-6.480468 30.113281-13.882812 43.609375-.148438.269531-.15625.570312-.265625.851562-25.761719 4.496094-46.351563 24.042969-52.394531 49.238281-20.570313 10.035157-43.460938 13.96875-66.296876 11.300782-31.769531-3.722656-60.183593-19.585938-80.015624-44.675782-19.832032-25.09375-28.707032-56.402343-24.988282-88.164062.441406-3.742188-2.238281-7.136719-5.984375-7.574219-3.769531-.457031-7.136719 2.25-7.574219 5.984375-4.140624 35.386719 5.746094 70.269532 27.839844 98.21875 22.089844 27.953125 53.746094 45.625 89.132813 49.769532 5.21875.609374 10.445312.917968 15.644531.917968 17.320312-.003906 34.382812-3.417968 50.402344-9.992187.070312 8.933593 1.925781 17.445312 5.242187 25.195312-17.8125 6.6875-36.53125 10.222657-55.78125 10.222657zm116.054688 15.9375c-28.613281 0-51.886719-23.277344-51.886719-51.882813 0-28.609375 23.273438-51.886719 51.886719-51.886719s51.886719 23.277344 51.886719 51.886719c0 28.605469-23.273438 51.882813-51.886719 51.882813zm0 0"/><path d="m314.386719 271.695312c-2.664063-2.667968-6.984375-2.667968-9.652344 0l-15.136719 15.132813-15.136718-15.132813c-2.664063-2.667968-6.984376-2.667968-9.652344 0-2.664063 2.664063-2.664063 6.984376 0 9.652344l15.136718 15.132813-15.136718 15.136719c-2.664063 2.664062-2.664063 6.988281 0 9.652343 1.332031 1.332031 3.082031 2 4.828125 2 1.746093 0 3.492187-.667969 4.824219-2l15.136718-15.132812 15.136719 15.132812c1.332031 1.332031 3.082031 2 4.828125 2s3.492188-.667969 4.824219-2c2.667969-2.664062 2.667969-6.988281 0-9.652343l-15.136719-15.136719 15.136719-15.132813c2.667969-2.667968 2.667969-6.988281 0-9.652344zm0 0"/></svg>