<svg id="Layer_5" enable-background="new 0 0 64 64" height="512" viewBox="0 0 64 64" width="512" xmlns="http://www.w3.org/2000/svg"><path d="m53.032 19.712c1.792-1.269 2.968-3.354 2.968-5.712 0-3.86-3.141-7-7-7s-7 3.14-7 7c0 2.358 1.176 4.443 2.968 5.712-.637.228-1.251.502-1.833.83-1.289-3.216-3.906-5.686-7.098-6.833 1.789-1.269 2.963-3.353 2.963-5.709 0-3.86-3.141-7-7-7s-7 3.14-7 7c0 2.356 1.174 4.44 2.963 5.709-3.193 1.147-5.809 3.617-7.098 6.833-.582-.328-1.196-.602-1.833-.83 1.792-1.269 2.968-3.354 2.968-5.712 0-3.86-3.141-7-7-7s-7 3.14-7 7c0 2.358 1.176 4.443 2.968 5.712-4.637 1.662-7.968 6.087-7.968 11.288v8c0 2.206 1.794 4 4 4h1v16c0 2.206 1.794 4 4 4 1.201 0 2.266-.542 3-1.382.734.84 1.799 1.382 3 1.382h1 26 1c1.201 0 2.266-.542 3-1.382.734.84 1.799 1.382 3 1.382 2.206 0 4-1.794 4-4v-16h1c2.206 0 4-1.794 4-4v-8c0-5.201-3.331-9.626-7.968-11.288zm-3.067 7.909-.965.965-.965-.965.547-6.599c.14-.007.277-.022.418-.022s.278.015.418.021zm-5.965-13.621c0-2.757 2.243-5 5-5s5 2.243 5 5-2.243 5-5 5-5-2.243-5-5zm-11.031 8.617-.969.969-.969-.969.56-7.6c.136-.005.272-.017.409-.017s.273.012.409.017zm-5.969-14.617c0-2.757 2.243-5 5-5s5 2.243 5 5-2.243 5-5 5-5-2.243-5-5zm2.565 7.303-.596 8.08 3.031 3.031 3.031-3.031-.596-8.08c3.217.812 5.882 3.199 7 6.392-2.648 2.157-4.355 5.42-4.424 9.078-1.372-1.107-3.114-1.773-5.011-1.773s-3.639.666-5.011 1.773c-.069-3.658-1.776-6.921-4.424-9.078 1.118-3.193 3.783-5.58 7-6.392zm11.435 27.697h1v4.221c-1.556-1.59-3.485-2.809-5.646-3.519.737-.481 1.388-1.079 1.931-1.769.725.671 1.686 1.067 2.715 1.067zm-4.134 11.969-3.446 6.031h-.087l4.258-14.61c.376.199.742.413 1.093.649l-.614 3.476-2.287 2.287zm-6.286 6.031-3.446-6.031 1.083-2.166-2.287-2.287-.614-3.476c.351-.236.717-.45 1.092-.649l4.259 14.609zm-8.58-18h1c1.03 0 1.99-.395 2.715-1.066.543.69 1.194 1.288 1.931 1.768-2.161.709-4.09 1.928-5.646 3.519zm16-6c0 3.309-2.691 6-6 6s-6-2.691-6-6 2.691-6 6-6 6 2.691 6 6zm-2.263 8.604-3.737 12.822-3.738-12.822c1.178-.388 2.432-.604 3.738-.604 1.305 0 2.56.216 3.737.604zm-19.772-17.983-.965.965-.965-.965.547-6.599c.14-.007.277-.022.418-.022s.278.015.418.021zm-5.965-13.621c0-2.757 2.243-5 5-5s5 2.243 5 5-2.243 5-5 5-5-2.243-5-5zm6 45v-21h-2v21c0 1.103-.897 2-2 2s-2-.897-2-2v-32h-2v14h-1c-1.103 0-2-.897-2-2v-8c0-4.668 3.22-8.588 7.552-9.684l-.587 7.064 3.035 3.034 3.035-3.035-.587-7.064c4.332 1.097 7.552 5.017 7.552 9.685v2.136c-.636 1.147-1 2.463-1 3.864 0 1.107.226 2.161.634 3.121-.368.537-.965.879-1.634.879h-1v-14h-2v22.826c-1.261 2.101-2 4.55-2 7.174v4c-1.103 0-2-.897-2-2zm4-2c0-3.32 1.356-6.329 3.543-8.504l.527 2.988 1.713 1.713-.917 1.834 3.411 5.969h-3.277v-5h-2v5h-3zm24 4h-3v-5h-2v5h-3.277l3.411-5.969-.917-1.834 1.713-1.713.527-2.988c2.187 2.175 3.543 5.184 3.543 8.504zm15-22c0 1.103-.897 2-2 2h-1v-14h-2v32c0 1.103-.897 2-2 2s-2-.897-2-2v-21h-2v21c0 1.103-.897 2-2 2v-4c0-2.624-.739-5.073-2-7.174v-22.826h-2v14h-1c-.668 0-1.266-.342-1.634-.879.408-.96.634-2.014.634-3.121 0-1.401-.364-2.718-1-3.864v-2.136c0-4.668 3.22-8.588 7.552-9.684l-.587 7.064 3.035 3.034 3.035-3.035-.587-7.064c4.332 1.097 7.552 5.017 7.552 9.685z"/></svg>