<?xml version="1.0" encoding="iso-8859-1"?>
<!-- Generator: Adobe Illustrator 16.0.0, SVG Export Plug-In . SVG Version: 6.00 Build 0)  -->
<!DOCTYPE svg PUBLIC "-//W3C//DTD SVG 1.1//EN" "http://www.w3.org/Graphics/SVG/1.1/DTD/svg11.dtd">
<svg version="1.1" id="Capa_1" xmlns="http://www.w3.org/2000/svg" xmlns:xlink="http://www.w3.org/1999/xlink" x="0px" y="0px"
	 width="38.5px" height="38.5px" viewBox="0 0 38.5 38.5" style="enable-background:new 0 0 38.5 38.5;" xml:space="preserve">
<g>
	<path d="M21.812,20.352c-0.121-0.205-0.281-0.365-0.485-0.479c-0.142-0.082-0.345-0.157-0.611-0.225
		c0.248-0.086,0.448-0.19,0.599-0.319c0.151-0.129,0.27-0.277,0.35-0.446c0.08-0.168,0.12-0.347,0.12-0.533
		c0-0.259-0.076-0.496-0.229-0.713c-0.152-0.216-0.369-0.381-0.65-0.496c-0.109-0.045-0.239-0.078-0.381-0.105v-1.002h-0.961v0.935
		h-0.62v-0.935H17.98v0.935h-1.47v0.787h0.225c0.149,0,0.25,0.013,0.303,0.04c0.053,0.027,0.09,0.064,0.112,0.109
		c0.022,0.047,0.032,0.154,0.032,0.322v3.169c0,0.168-0.01,0.272-0.032,0.32c-0.022,0.049-0.059,0.085-0.112,0.109
		c-0.053,0.025-0.154,0.04-0.303,0.04H16.51v0.786h1.469v0.936h0.962v-0.936h0.548c0.024,0,0.047-0.002,0.072-0.002v0.938h0.962
		V22.57c0.162-0.03,0.304-0.069,0.425-0.119c0.331-0.133,0.589-0.326,0.771-0.581c0.182-0.253,0.273-0.531,0.273-0.832
		C21.991,20.785,21.932,20.557,21.812,20.352z M18.588,17.883h0.624c0.364,0,0.617,0.021,0.758,0.067
		c0.141,0.045,0.25,0.12,0.325,0.226c0.074,0.106,0.112,0.234,0.112,0.385c0,0.144-0.04,0.271-0.119,0.381
		c-0.079,0.109-0.196,0.191-0.353,0.246c-0.157,0.056-0.397,0.082-0.724,0.082h-0.624L18.588,17.883L18.588,17.883z M20.35,21.396
		c-0.113,0.143-0.246,0.233-0.406,0.278c-0.157,0.045-0.357,0.067-0.6,0.067h-0.415c-0.138,0-0.223-0.01-0.254-0.022
		c-0.031-0.014-0.054-0.04-0.067-0.079c-0.011-0.029-0.018-0.132-0.021-0.306v-1.229h0.736c0.322,0,0.562,0.028,0.72,0.09
		c0.158,0.061,0.275,0.146,0.354,0.265c0.08,0.117,0.119,0.261,0.119,0.429C20.516,21.085,20.46,21.254,20.35,21.396z
		 M30.234,24.262c-0.053-1.098-0.561-2.359-1.506-3.701c-0.179-0.252-0.369-0.502-0.571-0.754c1.897-2.345,2.61-4.658,1.659-6.262
		c-0.687-1.156-2.102-1.768-4.094-1.768c-0.63,0-1.301,0.065-1.996,0.184c-0.715-1.852-1.684-3.229-2.803-3.926
		c0.014-0.08,0.024-0.16,0.024-0.244c0-0.939-0.763-1.701-1.7-1.701c-0.939,0-1.7,0.762-1.7,1.701c0,0.084,0.013,0.164,0.024,0.244
		c-1.119,0.697-2.087,2.074-2.801,3.926c-0.697-0.117-1.368-0.184-1.997-0.184c-1.993,0-3.408,0.611-4.094,1.768
		c-0.95,1.604-0.238,3.917,1.66,6.262c-0.203,0.252-0.394,0.502-0.571,0.754c-0.947,1.342-1.454,2.604-1.506,3.701
		C7.752,24.555,7.404,25.1,7.404,25.73c0,0.939,0.761,1.701,1.701,1.701c0.292,0,0.563-0.08,0.804-0.211
		c0.74,0.404,1.701,0.619,2.866,0.619c0.628,0,1.3-0.066,1.996-0.184c1.051,2.726,2.652,4.437,4.477,4.437s3.425-1.711,4.477-4.437
		c0.696,0.117,1.368,0.184,1.996,0.184c1.166,0,2.127-0.215,2.866-0.619c0.24,0.131,0.511,0.211,0.804,0.211
		c0.939,0,1.701-0.762,1.701-1.701C31.093,25.1,30.745,24.555,30.234,24.262z M25.725,12.777c1.129,0,2.606,0.222,3.232,1.277
		c0.707,1.19,0.072,3.039-1.469,4.979c-0.764-0.83-1.663-1.639-2.656-2.404c-0.163-1.34-0.421-2.59-0.77-3.702
		C24.645,12.835,25.205,12.777,25.725,12.777z M21.688,23.918c-0.803,0.477-1.621,0.898-2.438,1.268
		c-0.816-0.369-1.634-0.791-2.437-1.268c-0.779-0.463-1.51-0.958-2.196-1.47c-0.09-0.854-0.144-1.732-0.144-2.64
		c0-0.909,0.054-1.792,0.144-2.646c0.69-0.513,1.421-1.005,2.196-1.464c0.802-0.477,1.62-0.898,2.436-1.268
		c0.815,0.368,1.634,0.791,2.437,1.268c0.774,0.459,1.506,0.951,2.195,1.464c0.09,0.854,0.145,1.735,0.145,2.646
		c0,0.905-0.053,1.786-0.145,2.64C23.197,22.96,22.466,23.455,21.688,23.918z M23.698,23.812c-0.161,0.963-0.376,1.861-0.638,2.684
		c-0.83-0.189-1.693-0.453-2.576-0.794c0.572-0.285,1.145-0.587,1.711-0.925C22.721,24.467,23.216,24.143,23.698,23.812z
		 M18.016,25.701c-0.883,0.341-1.748,0.604-2.577,0.794c-0.261-0.82-0.477-1.722-0.637-2.685c0.482,0.33,0.979,0.654,1.502,0.967
		C16.872,25.114,17.444,25.416,18.016,25.701z M13.539,21.594c-0.697-0.588-1.325-1.188-1.871-1.789
		c0.552-0.609,1.181-1.208,1.872-1.787c-0.039,0.584-0.065,1.18-0.065,1.791C13.474,20.418,13.5,21.011,13.539,21.594z
		 M14.802,15.807c0.16-0.963,0.376-1.863,0.637-2.685c0.83,0.19,1.694,0.454,2.577,0.795c-0.572,0.285-1.144,0.587-1.712,0.924
		C15.785,15.148,15.287,15.475,14.802,15.807z M20.484,13.917c0.883-0.341,1.748-0.604,2.576-0.795
		c0.262,0.821,0.478,1.722,0.638,2.685c-0.485-0.332-0.983-0.658-1.503-0.966C21.628,14.504,21.057,14.202,20.484,13.917z
		 M24.961,18.018c0.689,0.578,1.32,1.177,1.872,1.787c-0.546,0.603-1.174,1.201-1.871,1.789c0.039-0.583,0.065-1.176,0.065-1.785
		C25.025,19.195,25,18.602,24.961,18.018z M18.007,8.941c0.311,0.336,0.75,0.549,1.243,0.549s0.934-0.213,1.243-0.549
		c0.86,0.57,1.629,1.707,2.229,3.227c-1.117,0.264-2.287,0.659-3.475,1.173c-1.187-0.514-2.356-0.909-3.473-1.173
		C16.378,10.648,17.147,9.514,18.007,8.941z M9.543,14.055c0.626-1.056,2.104-1.277,3.233-1.277c0.519,0,1.08,0.059,1.662,0.149
		c-0.348,1.112-0.606,2.362-0.77,3.702c-0.994,0.768-1.893,1.574-2.656,2.404C9.471,17.096,8.836,15.246,9.543,14.055z
		 M12.777,26.84c-0.676,0-1.475-0.084-2.143-0.374c0.108-0.224,0.173-0.471,0.173-0.735c0-0.873-0.662-1.586-1.51-1.681
		c0.107-0.851,0.539-1.849,1.291-2.913c0.131-0.186,0.277-0.371,0.423-0.557c0.752,0.818,1.646,1.629,2.657,2.408
		c0.163,1.341,0.422,2.591,0.77,3.701C13.857,26.782,13.296,26.84,12.777,26.84z M19.25,31.093c-1.354,0-2.594-1.421-3.473-3.643
		c1.117-0.265,2.286-0.659,3.473-1.175c1.188,0.516,2.355,0.91,3.473,1.175C21.844,29.672,20.604,31.093,19.25,31.093z
		 M24.062,26.689c0.348-1.11,0.604-2.36,0.77-3.701c1.011-0.779,1.904-1.59,2.656-2.408c0.146,0.186,0.293,0.371,0.424,0.557
		c0.752,1.064,1.184,2.063,1.291,2.913c-0.848,0.095-1.51,0.808-1.51,1.681c0,0.267,0.063,0.514,0.173,0.735
		c-0.668,0.29-1.468,0.374-2.144,0.374C25.204,26.84,24.643,26.782,24.062,26.689z M19.25,3.309c-8.791,0-15.942,7.15-15.942,15.941
		S10.46,35.191,19.25,35.191s15.941-7.15,15.941-15.941S28.041,3.309,19.25,3.309z M19.25,34.191
		c-8.239,0-14.942-6.702-14.942-14.941S11.011,4.309,19.25,4.309c8.238,0,14.941,6.702,14.941,14.941S27.488,34.191,19.25,34.191z
		 M19.25,0C8.636,0,0,8.636,0,19.25S8.636,38.5,19.25,38.5c10.613,0,19.25-8.636,19.25-19.25S29.863,0,19.25,0z M19.25,36.5
		C9.738,36.5,2,28.762,2,19.25C2,9.738,9.738,2,19.25,2C28.762,2,36.5,9.738,36.5,19.25C36.5,28.762,28.762,36.5,19.25,36.5z"/>
</g>
<g>
</g>
<g>
</g>
<g>
</g>
<g>
</g>
<g>
</g>
<g>
</g>
<g>
</g>
<g>
</g>
<g>
</g>
<g>
</g>
<g>
</g>
<g>
</g>
<g>
</g>
<g>
</g>
<g>
</g>
</svg>
