<svg xmlns="http://www.w3.org/2000/svg" viewBox="0 0 2124 1194.75"><defs><style>.cls-1{fill:#2e3192;}.cls-2{opacity:0.5;}.cls-3{fill:#fff;}.cls-4{fill:#ff75c3;}</style></defs><title>Asset 2</title><g id="Layer_2" data-name="Layer 2"><g id="Layer_1-2" data-name="Layer 1"><rect class="cls-1" width="2124" height="1194.75"/><g class="cls-2"><path class="cls-3" d="M1636,1063.31a4,4,0,0,1-4-4V310.9c0-49.93-50.5-89.44-51-89.83a4.05,4.05,0,0,1,4.94-6.42c2.21,1.71,54.16,42.29,54.16,96.25v748.36A4,4,0,0,1,1636,1063.31Z"/><polygon class="cls-3" points="1536.3 129.69 1528.27 137.71 1517.8 127.23 1493.79 151.23 1504.27 161.71 1496.25 169.73 1573.25 246.73 1613.29 206.69 1536.3 129.69"/><path class="cls-3" d="M521.93,1067.35a4,4,0,0,1-4-4V626.71c0-39.17-15-56.63-48.54-56.63H340.9c-21.92,0-37.65-5.61-46.75-16.66-10-12.12-8.29-26.49-7.86-29.2V336.47a4,4,0,1,1,8.09,0v188.1a4,4,0,0,1-.07.77c0,.12-2.29,12.86,6.15,23C308,557.4,321.57,562,340.9,562H469.34c38.11,0,56.63,21.18,56.63,64.73v436.6A4,4,0,0,1,521.93,1067.35Z"/><rect class="cls-3" x="274.66" y="241.91" width="33.37" height="98.6"/><rect class="cls-3" x="284.27" y="204.7" width="14.16" height="53.18"/><path class="cls-3" d="M1328.85,1063.31a4,4,0,0,1-4-4v-113c0-60.35,24.53-88.45,77.19-88.45h90.3c29.56,0,50.43-5.91,62-17.57,12.7-12.74,12.63-30,12.58-43.86v-2.47c0-104-.79-245.88-.79-247.3a4.06,4.06,0,0,1,4-4.07h0a4,4,0,0,1,4,4c0,1.42.79,143.36.79,247.34v2.44c.06,14.55.13,34.48-14.94,49.61-13.37,13.41-35.53,19.94-67.77,19.94H1402c-47.79,0-69.1,24.78-69.1,80.36v113A4,4,0,0,1,1328.85,1063.31Z"/><circle class="cls-3" cx="1570.96" cy="546.54" r="22.13"/><path class="cls-3" d="M1830.17,1063.31a4,4,0,0,1-4-4V955.32c0-50-20.57-60.88-40.46-71.38-15.3-8.08-31.11-16.43-31.11-43.12V652.17c0-42.65,49.07-55.54,49.57-55.67a4,4,0,0,1,2,7.85c-1.78.45-43.47,11.51-43.47,47.82V840.82c0,21.81,11.82,28.06,26.8,36,19.94,10.53,44.77,23.63,44.77,78.54v103.94A4,4,0,0,1,1830.17,1063.31Z"/><circle class="cls-3" cx="1805.12" cy="600.42" r="20.23"/><path class="cls-3" d="M1805.12,645.58a45.16,45.16,0,1,1,45.15-45.16A45.21,45.21,0,0,1,1805.12,645.58Zm0-82.22a37.06,37.06,0,1,0,37.06,37.06A37.11,37.11,0,0,0,1805.12,563.36Z"/><path class="cls-3" d="M664.24,1065.33a4,4,0,0,1-4-4v-30.77c0-50-20.57-60.89-40.46-71.39C604.45,951,588.63,942.69,588.63,916V727.35c0-42.64,49.08-55.54,49.57-55.66a4,4,0,0,1,2,7.84c-1.78.45-43.47,11.51-43.47,47.82V916c0,21.82,11.83,28.06,26.8,36,20,10.52,44.77,23.63,44.77,78.54v30.77A4,4,0,0,1,664.24,1065.33Z"/><circle class="cls-3" cx="639.19" cy="675.61" r="20.23"/><path class="cls-3" d="M639.19,720.76a45.15,45.15,0,1,1,45.15-45.15A45.21,45.21,0,0,1,639.19,720.76Zm0-82.21a37.06,37.06,0,1,0,37.06,37.06A37.1,37.1,0,0,0,639.19,638.55Z"/><path class="cls-3" d="M1703.42,1063.31a4,4,0,0,0,4-4v-512c0-72.79,58-111.9,58.55-112.29a4,4,0,1,0-4.46-6.75c-2.54,1.68-62.18,41.95-62.18,119v512A4,4,0,0,0,1703.42,1063.31Z"/><path class="cls-3" d="M1724.64,473.84s-2.3-36.87,39.14-63.84,78.52-53.26,78.52-53.26-37.08,60-51.91,78.21S1756.66,473.84,1724.64,473.84Z"/><path class="cls-3" d="M701.5,1063.31a4,4,0,0,1-4-4V773.06c0-41.64,34.93-67.42,67.3-67.42h43.51a4,4,0,0,1,0,8.09H764.75c-28.48,0-59.21,22.68-59.21,59.33v286.2A4,4,0,0,1,701.5,1063.31Z"/><rect class="cls-3" x="802.53" y="694.01" width="31.01" height="31.01"/><rect class="cls-3" x="883.09" y="694.01" width="31.01" height="31.01"/><rect class="cls-3" x="822.17" y="688.62" width="62.61" height="41.8"/><path class="cls-3" d="M446.92,1069.38a4.05,4.05,0,0,0,4.05-4.05V777.49c0-77.09-59.64-117.36-62.18-119a4,4,0,0,0-4.46,6.75c.58.39,58.55,39.65,58.55,112.29v287.84A4,4,0,0,0,446.92,1069.38Z"/><path class="cls-3" d="M425.7,704.09s2.3-36.87-39.14-63.84S308,587,308,587,345.12,647,360,665.2,393.68,704.09,425.7,704.09Z"/></g><g class="cls-2"><path class="cls-4" d="M1443.92,653.5c.33-34.86,24.53-56.12,64-56.22,53.3-.15,91.62-31.49,98.84-81.41,1.28-8.91.32-18.12.69-27.17,1.29-31.5,24.37-54.42,55.29-55,31.72-.63,57.38,22.56,59.65,53.91,2.21,30.45-21.38,58.56-52.24,61.57-14.71,1.44-30.13-.53-44.2,3.07-42.63,10.91-67.51,47.63-66.7,95.07.79,46.58-37,76.45-78.06,61.65C1457.51,700.4,1443.67,679.82,1443.92,653.5Z"/><path class="cls-4" d="M1608.26,820c-.21-35.29,25.52-58.82,64.49-59,49.94-.2,84.21-24.11,96-68.44,2.91-10.89,2.63-22.77,2.9-34.21.84-35.53,24.77-60.86,57.8-60.62,31.57.22,58.41,27.35,58,58.61-.45,33-25.71,57.64-61.58,56.65-38.86-1.07-71.1,11.6-89,45.93-9.35,17.87-10.61,40.64-12.72,61.48-3.39,33.52-27,57-59.84,56.42C1632.55,876.35,1608.45,851.88,1608.26,820Z"/><path class="cls-4" d="M1502.65,876.94c-32.36.52-57.26-22.56-58.61-54.33-1.44-33.61,21-59,54.28-61.41,13.94-1,28.47.4,41.74-3.09,43-11.32,66.74-46.83,67.44-97.7.57-41.81,31.07-69.54,67.87-61.72,29.05,6.18,49.62,32.74,47.35,61.15-2.42,30.33-26.22,52.23-57.88,53.47-11.5.46-23.35-.21-34.43,2.32-45.22,10.3-72.45,47.8-71.37,96.59C1559.88,849.79,1536.69,876.4,1502.65,876.94Z"/><path class="cls-4" d="M1828.21,549.85c-32.92.12-57.21-24.36-57.16-57.62,0-33,25.08-58.53,57.09-58.29,31.56.25,58.41,26.94,58.61,58.26S1860.23,549.73,1828.21,549.85Z"/><path class="cls-4" d="M1888.07,819.43c0,33-24.8,57.76-57.56,57.46-31.9-.28-58.64-26.88-58.27-57.95.38-31.43,27.39-58.09,58.68-57.91C1863,761.21,1888.08,786.86,1888.07,819.43Z"/><path class="cls-4" d="M1556.82,494.2c.16,32.34-23.33,56.42-55.6,57-32.64.59-59.5-24.27-60.57-56-1.05-31.25,25.6-57.93,58.25-58.33C1532.19,436.41,1556.65,460.65,1556.82,494.2Z"/></g></g></g></svg>