<svg xmlns="http://www.w3.org/2000/svg" viewBox="0 0 1920 1077.09"><defs><style>.cls-1{fill:#ff2c9c;}.cls-2{fill:#983be9;}.cls-25,.cls-3{fill:#d4ecff;}.cls-4{fill:#fdd762;}.cls-5{fill:#6614cf;}.cls-6{fill:#173d7a;}.cls-7{fill:#ffc2b0;}.cls-8{fill:#8a2ae3;}.cls-9{fill:#fff;}.cls-10{fill:#ea9c92;}.cls-11{fill:#b45ef4;}.cls-12{fill:#d8892b;}.cls-13{fill:#d29fff;}.cls-14{fill:#721bd5;}.cls-15{fill:#95d359;}.cls-16{fill:#c13d1a;}.cls-17{fill:#db5126;}.cls-18{fill:#ef602e;}.cls-19{fill:#d3008d;}.cls-20{fill:#e8a200;}.cls-21{fill:#f9bf30;}.cls-22{fill:#5793ce;}.cls-23{fill:#396caa;}.cls-24{fill:#fafdff;}.cls-25{opacity:0.4;}.cls-26{fill:#274f89;}</style></defs><title>Asset 1</title><g id="Layer_2" data-name="Layer 2"><g id="Layer_1-2" data-name="Layer 1"><path class="cls-1" d="M3.26.19V1007.37c134.52,70.29,314.1,89.45,475.44,47.9L1294,845.3c133.18-34.3,238.3-106.08,288.54-197L1890,91.57c16.47-29.83,26.27-60.58,30-91.38Z"/><path class="cls-2" d="M1689.55,270c-35.54-72.86-136.5-129.35-264.84-148.22L641.63,6.7C513.28-12.17,377.05,9.47,284.25,63.46L0,228.82v848.27H1543l270.89-157.6c92.8-54,128.08-132.12,92.53-205Z"/><path class="cls-3" d="M1920,1.43,1025.41,449c-99.77,49.71-130.7,155.26-69.08,235.76l300.39,392.38H1920Z"/><rect class="cls-4" x="666.41" y="640.96" width="6.07" height="17.63" transform="translate(522.05 1571) rotate(-125.06)"/><rect class="cls-4" x="671.56" y="629.94" width="6.07" height="17.63" transform="translate(539.18 1557.85) rotate(-125.06)"/><rect class="cls-4" x="676.71" y="618.91" width="6.07" height="17.63" transform="translate(556.32 1544.71) rotate(-125.06)"/><rect class="cls-4" x="681.86" y="607.88" width="6.07" height="17.63" transform="translate(573.42 1531.56) rotate(-125.05)"/><path class="cls-1" d="M1629,417.81l2.73-4.64a6.63,6.63,0,0,0,4.73.49c2-.62,3.66-2.39,5-5.26,4.88-10.12,13.9-10.89,18-9.88l-1.29,5.23.64-2.62-.62,2.62c-.78-.18-7.78-1.5-11.88,7-2.08,4.31-4.9,7-8.38,8.09A11.86,11.86,0,0,1,1629,417.81Z"/><path class="cls-3" d="M838.91,690.06c-12.77,7.38-33.48,7.38-46.26,0s-12.77-19.33,0-26.7,33.48-7.38,46.26,0S851.68,682.69,838.91,690.06Z"/><path class="cls-5" d="M795.17,438s.87,18.09,2.25,30.24,30.66-9.33,30.66-9.33V445Z"/><path class="cls-6" d="M810.76,663c.44,1.1,8,10.34,15.61,12.64a17.44,17.44,0,0,0,7,1,2.3,2.3,0,0,0,1.87-3.06,28.86,28.86,0,0,0-14.55-16.05C807.79,651.17,810.76,663,810.76,663Z"/><path class="cls-6" d="M808.23,666.59A62.61,62.61,0,0,1,812,678.9c.54,3.42-1.34,7.86-2.89,10.81a3.15,3.15,0,0,1-4.92.85A18.29,18.29,0,0,1,798,678.79c-.88-9.45,0-11.1,0-11.1Z"/><path class="cls-4" d="M790,552.31a179.77,179.77,0,0,0,0,25.12c1,13.19,4.53,74.89,5.19,89.73,0,0-.33,4.5,8.37,3.51s8-6,8-6,12.21-.17,12.6-7.37,12.51-86,12.51-114.32Z"/><path class="cls-7" d="M841.15,490.64l6,9.27,20.57,24.85a4.61,4.61,0,0,1-3.27,2.91c-2,.48-19.3-16-26.78-23.28a5.75,5.75,0,0,1-.79-7.29Z"/><path class="cls-8" d="M829.47,452.59s9.51-.25,12.82,13.49,5.9,30.95,3,32.38c-8.64,4.29-14.11-.73-14.11-.73Z"/><path class="cls-2" d="M832.32,453.17a7.85,7.85,0,0,0-5.13-.28c-8.1,2.33-38.56,11.27-43.58,15.56-5.8,4.95,8.7,32.81,8.49,41.94s-1.24,19.9-2.05,29.83-1.9,15.37,6.22,19.6,22,4.41,32.37-3.5,8.49-13.32,8.06-19.06-4-30.57-3.66-37.62a26.61,26.61,0,0,0,6.37-7.31c2.71-4.62-2.08-13.12-4.06-18.64s1.12-11.83.5-16.34A5.12,5.12,0,0,0,832.32,453.17Z"/><path class="cls-9" d="M822.58,462.67c.64,5-4,9.74-10.28,10.55s-12-2.6-12.6-7.62,4-9.74,10.28-10.55S821.94,457.65,822.58,462.67Z"/><path class="cls-7" d="M819.32,463.09c.46,3.58-2.83,7-7.35,7.54s-8.55-1.86-9-5.45,2.83-7,7.35-7.54S818.86,459.5,819.32,463.09Z"/><path class="cls-7" d="M814.83,451.31s-5.5-4.52-6.58-2.23-2,12.12-2,12.12l10.92,2.94-1.66-10S817.73,452.32,814.83,451.31Z"/><path class="cls-7" d="M831.89,440.54a16.3,16.3,0,1,1-15.31-17.23A16.3,16.3,0,0,1,831.89,440.54Z"/><path class="cls-10" d="M807.49,451.93c-.1.51-.19,1.07-.28,1.63,1.1,5.67,9.59,8.15,9.59,8.15l-1.26-7.53s1-.88.74-1.75C812.93,451.37,808.7,450.43,807.49,451.93Z"/><path class="cls-7" d="M831.89,440.54a16.3,16.3,0,1,1-15.31-17.23A16.3,16.3,0,0,1,831.89,440.54Z"/><polygon class="cls-7" points="775.45 508.59 777.27 552.22 783.65 552.88 787.8 513.6 775.45 508.59"/><path class="cls-8" d="M796.41,505c-2.11-9.32-6.28-29.9-6.28-29.9l-1.78,20.47c2,6.07,3.82,11.64,3.75,14.87-.13,5.36-.53,11.29-1,17.28h0S798.52,514.26,796.41,505Z"/><path class="cls-11" d="M784.83,467.55s-5.1,1.95-8,17.62-5.05,31.35.1,33.38,9.45,3.54,11-.65,2.45-24.38,2.64-31.64S791,469,784.83,467.55Z"/><path class="cls-7" d="M866.18,523a13.55,13.55,0,0,1,4.76,3.19,30,30,0,0,1,3.25,4.36c1.59,2.37,2.93,7.49,2,8.13s-6.51-8.57-7.4-6.43,0,4.12-1.14,4.16-5.12-9.27-8.25-12.15S866.18,523,866.18,523Z"/><path class="cls-12" d="M811.52,664.69a24.84,24.84,0,0,0,3.49-.36h0l2.39-95.91Z"/><path class="cls-2" d="M802.28,612.88l-3.39-4.43L763.2,587.79a5,5,0,0,1-2.07-4l0-29.22-2.06-2.68,1.93-1.12h0a1.31,1.31,0,0,1,1.4.09l40.45,23.41a5,5,0,0,1,2.07,4l0,31.82a1.79,1.79,0,0,1-.75,1.69h0Z"/><path class="cls-13" d="M777.6,596.13l-2.53-1.47-13.92-24.17,0-15.88-2.06-2.68,1.93-1.12h0a1.31,1.31,0,0,1,1.4.09l40.45,23.41a4.19,4.19,0,0,1,1.52,1.79Z"/><path class="cls-13" d="M760,553.12l-.91-1.19,1.93-1.12h0a1.31,1.31,0,0,1,1.4.09l.72.41Z"/><path class="cls-2" d="M803.26,574.57A5.27,5.27,0,0,1,805,578l-4,2.28L799.1,577Z"/><path class="cls-11" d="M801,575.43,760.52,552c-1.15-.66-2.08,0-2.08,1.57l0,31.82a5,5,0,0,0,2.07,4l40.44,23.42c1.15.66,2.07,0,2.08-1.57l0-31.82A5,5,0,0,0,801,575.43Z"/><path class="cls-7" d="M777.33,551.85s-1.69,10.19-1.44,13.45,2,8.64,3.33,8.53,0-13.12,2.37-11.82,2.57,3.51,3.62,2.73-1.83-11.9-1.06-16.72S777.33,551.85,777.33,551.85Z"/><path class="cls-10" d="M821.88,441c8.18,2.9,9.77,1.13,9.85,1,.07-.49.13-1,.16-1.5a16.11,16.11,0,0,0-.54-5.21l-21.22-2.86S813.48,438,821.88,441Z"/><path class="cls-5" d="M832.48,424.3c-1.93-1.65-8.88-9.82-21.34-7.89-7.79,1.2-14.35,6.52-15.81,18.63a27.84,27.84,0,0,0,7.54,22.15,5.56,5.56,0,0,0,.88-.44c3.12-2.06,3.46-3.19,3.46-3.2l.69-6.18a1.72,1.72,0,0,0-1.56-1.71,3.13,3.13,0,0,1-2.28-1.4c-1.79-2.34-1-6,2.62-6.12a2.76,2.76,0,0,0,2.86-2,1.46,1.46,0,0,1,1.91-1c4.07,1.47,14.1,4.65,20.56,2.82C840.27,435.59,834.41,426,832.48,424.3Z"/><path class="cls-9" d="M823.19,448.37l5-1.37s-2.38,3.75-5.86,4.7-4-2-4-2Z"/><polygon class="cls-13" points="785.8 564.42 781.56 561.99 783.15 564.6 785.3 565.39 785.8 564.42"/><polygon class="cls-3" points="1642.14 700.49 1609.18 681.46 1576.22 700.49 1609.18 719.52 1642.14 700.49"/><polygon class="cls-3" points="1609.18 681.46 1576.22 662.43 1543.26 681.46 1576.22 700.49 1609.18 681.46"/><polygon class="cls-14" points="1614.14 665.29 1614.14 608.3 1642.14 592.14 1642.14 649.13 1614.14 665.29"/><polygon class="cls-11" points="1614.14 608.3 1586.14 592.14 1586.14 649.13 1614.14 665.29 1614.14 608.3"/><polygon class="cls-8" points="1642.14 592.14 1614.14 575.98 1586.14 592.14 1614.14 608.3 1642.14 592.14"/><polygon class="cls-15" points="1642.14 670.68 1614.14 654.52 1614.14 665.29 1642.14 681.46 1642.14 670.68"/><polygon class="cls-16" points="1586.14 681.46 1586.14 595.25 1614.14 579.09 1614.14 665.29 1586.14 681.46"/><polygon class="cls-17" points="1586.14 595.25 1558.15 579.09 1558.15 665.29 1586.14 681.46 1586.14 595.25"/><polygon class="cls-18" points="1614.14 579.09 1586.14 562.92 1558.15 579.09 1586.14 595.25 1614.14 579.09"/><polygon class="cls-19" points="1586.14 681.46 1586.14 595.25 1614.14 579.09 1614.14 665.29 1586.14 681.46"/><polygon class="cls-19" points="1586.14 595.25 1558.15 579.09 1558.15 665.29 1586.14 681.46 1586.14 595.25"/><polygon class="cls-1" points="1614.14 579.09 1586.14 562.92 1558.15 579.09 1586.14 595.25 1614.14 579.09"/><polygon class="cls-20" points="1614.14 697.62 1614.14 649.13 1642.14 632.97 1642.14 681.46 1614.14 697.62"/><polygon class="cls-21" points="1614.14 649.13 1586.14 632.97 1586.14 681.46 1614.14 697.62 1614.14 649.13"/><polygon class="cls-4" points="1642.14 632.97 1614.14 616.8 1586.14 632.97 1614.14 649.13 1642.14 632.97"/><path class="cls-22" d="M1355,386.06a2.27,2.27,0,0,1-2.27-2.26V290.61a2.27,2.27,0,0,1,4.53,0V383.8A2.26,2.26,0,0,1,1355,386.06Z"/><rect class="cls-22" x="1346.87" y="284.75" width="16.19" height="34.94"/><path class="cls-22" d="M1360.69,323a12.63,12.63,0,0,1-11.45,0c-3.16-1.82-3.16-4.78,0-6.61a12.69,12.69,0,0,1,11.45,0C1363.85,318.21,1363.85,321.17,1360.69,323Z"/><rect class="cls-22" x="1341.85" y="236.06" width="26.23" height="54.79"/><path class="cls-23" d="M1346.87,290.5v11.82a21,21,0,0,0,16.19,0V290.5A21,21,0,0,0,1346.87,290.5Z"/><path class="cls-22" d="M1364.24,296.21c-5.12,3-13.42,3-18.55,0s-5.12-7.75,0-10.71,13.43-3,18.55,0S1369.37,293.25,1364.24,296.21Z"/><path class="cls-22" d="M1445.85,437.2a2.27,2.27,0,0,1-2.27-2.27V341.75a2.27,2.27,0,1,1,4.53,0v93.18A2.27,2.27,0,0,1,1445.85,437.2Z"/><rect class="cls-22" x="1437.75" y="335.88" width="16.19" height="34.94"/><path class="cls-22" d="M1451.57,374.13a12.69,12.69,0,0,1-11.45,0c-3.16-1.83-3.16-4.79,0-6.61a12.63,12.63,0,0,1,11.45,0C1454.73,369.34,1454.73,372.3,1451.57,374.13Z"/><rect class="cls-22" x="1432.73" y="287.19" width="26.23" height="54.79"/><path class="cls-23" d="M1437.75,341.63v11.82a20.9,20.9,0,0,0,16.19,0V341.63A21,21,0,0,0,1437.75,341.63Z"/><path class="cls-22" d="M1455.12,347.34c-5.12,3-13.43,3-18.55,0s-5.12-7.75,0-10.71,13.43-2.95,18.55,0S1460.24,344.39,1455.12,347.34Z"/><polygon class="cls-22" points="1534.18 378.11 1569.36 357.39 1535.86 315.58 1527.05 329.97 1534.18 378.11"/><path class="cls-22" d="M1278.77,148.64l56.14-32.3s-2.11,32.23-2.11,32.3-32.25,10-32.25,10Z"/><path class="cls-22" d="M1544,273a35.55,35.55,0,0,0-12.15-4.5c-5.66-29.75-26.36-61.34-51-75.59-7.42-4.28-14.48-6.57-20.88-7.06-3.37-36.06-28.44-77-58.89-94.61-15.9-9.19-30.33-10.27-41-4.65v0l-.52.3-.81.47-33.1,19.55,11,8.69c-9.88,4.31-16.12,15.39-16.12,31.76,0,30.18,21.2,66.89,47.34,82L1544,355.06c19.63,11.34,35.55,2.15,35.55-20.52S1563.59,284.31,1544,273Z"/><path class="cls-22" d="M1322.12,134l76-44.39c-14.75-7.69-28.08-8.33-38.07-3v0l-.52.3-.81.47-33.1,19.55,11,8.69C1329.69,118.55,1324.58,124.88,1322.12,134Z"/><path class="cls-22" d="M1462.43,264.6l55.44-32.53c-9.51-16.45-22.6-30.82-37.1-39.19q-2.88-1.65-5.67-2.92l-70.52,41.24Z"/><path class="cls-3" d="M1341.22,110.48l24.7,14.26,45.25-26.65A90.89,90.89,0,0,0,1401,91.21a63.28,63.28,0,0,0-15.81-6.65Z"/><path class="cls-3" d="M1511.76,222.49l-44.25,26.08,15.39,17.16L1523.07,242A129.89,129.89,0,0,0,1511.76,222.49Z"/><path class="cls-3" d="M1509.2,293.45a35.41,35.41,0,0,0-12.14-4.51c-5.66-29.74-26.36-61.33-51-75.58-7.43-4.29-14.49-6.58-20.89-7.07-3.37-36.06-28.44-77-58.88-94.61-32.74-18.9-59.28-3.58-59.28,34.22,0,1.29,0,2.58.09,3.88-23.94-11.1-42.65,1.41-42.65,29.77,0,30.18,21.2,66.89,47.34,82l197.45,114c19.64,11.34,35.55,2.15,35.55-20.52S1528.84,304.78,1509.2,293.45Z"/><path class="cls-9" d="M1307.06,149.78c-.06-1.3-.09-2.59-.09-3.88v-.16c-13.23-5.14-24.59-2.9-31.73,5.35C1283,144.71,1294.26,143.84,1307.06,149.78Z"/><path class="cls-9" d="M1512.1,290.63a35.29,35.29,0,0,0-12.15-4.5c-5.66-29.75-26.36-61.34-51-75.59-7.43-4.29-14.48-6.58-20.89-7.07-3.37-36.06-28.44-77-58.88-94.61-20.4-11.78-38.39-10.26-49.05,1.69,10.86-9.29,27.5-9.64,46.16,1.13,30.44,17.58,55.51,58.55,58.88,94.61,6.4.49,13.46,2.78,20.89,7.07,24.68,14.25,45.38,45.84,51,75.58a35.41,35.41,0,0,1,12.14,4.51c19.64,11.33,35.55,38.89,35.55,61.56,0,8.18-2.1,14.58-5.67,18.91,5.33-4.1,8.56-11.53,8.56-21.72C1547.64,329.53,1531.73,302,1512.1,290.63Z"/><path class="cls-23" d="M1302.89,158.78l14.84,6.88-.75-16.34c-.06-1.15-.09-2.28-.09-3.42,0-14.59,4.4-25.16,12.4-29.78s19.36-3.14,32,4.15c27.17,15.69,50.87,53.88,54,86.94l.78,8.33,8.34.64c5.13.4,10.74,2.34,16.69,5.77,21.58,12.46,41,41.42,46.25,68.85l1.3,6.87,6.91,1.08a25.61,25.61,0,0,1,8.72,3.29c16.58,9.57,30.59,33.83,30.59,53,0,7.17-2,12.42-5.45,14.42s-9,1.09-15.21-2.49l-197.46-114c-23-13.26-42.37-46.87-42.37-73.39,0-10.41,3.07-18.34,8.42-21.76a14.37,14.37,0,0,1,7.87-2.1A29.74,29.74,0,0,1,1302.89,158.78Z"/><polygon class="cls-22" points="1401.43 282.53 1406.64 279.92 1401.52 276.03 1401.43 282.53"/><polygon class="cls-22" points="1385.79 212.17 1390.85 209.61 1390.94 212.26 1385.79 212.17"/><polygon class="cls-22" points="1416.29 266.09 1421.57 263.43 1411.41 253.77 1416.29 266.09"/><path class="cls-22" d="M1405.12,279.75l-24.66-14.52a5.26,5.26,0,0,1-2.26-4.15l.08-28.55,29.19,17.19-.08,28.55C1407.39,279.83,1406.37,280.49,1405.12,279.75Z"/><path class="cls-22" d="M1390.79,209.65l-26.63,17.13c-1.13.73-.22,3.44,1.5,4.45l27.2,16,27.2,16c1.72,1,2.64-.62,1.52-2.68l-26.45-48.4C1394,210.11,1391.94,208.91,1390.79,209.65Z"/><path class="cls-3" d="M1399.83,282.41l-24.66-14.52a5.27,5.27,0,0,1-2.26-4.15l.08-28.55,29.2,17.2-.09,28.55C1402.1,282.49,1401.08,283.15,1399.83,282.41Z"/><path class="cls-3" d="M1385.5,212.31l-26.63,17.14c-1.13.73-.22,3.44,1.5,4.45l27.2,16,27.2,16c1.72,1,2.65-.62,1.52-2.67l-26.45-48.41C1388.7,212.77,1386.65,211.57,1385.5,212.31Z"/><path class="cls-3" d="M1352.48,313.63c0,1.61-1.13,2.26-2.52,1.46a5.59,5.59,0,0,1-2.52-4.37c0-1.61,1.13-2.26,2.52-1.45A5.56,5.56,0,0,1,1352.48,313.63Z"/><path class="cls-3" d="M1443.57,365.51c0,1.61-1.12,2.26-2.51,1.45a5.53,5.53,0,0,1-2.52-4.36c0-1.61,1.12-2.26,2.52-1.46A5.58,5.58,0,0,1,1443.57,365.51Z"/><path class="cls-3" d="M1280.81,717.83,1165.42,652c-4.22-2.43-3.69-6.69,1.18-9.5L1233,604.2c4.88-2.82,12.25-3.12,16.47-.69l115.39,65.8c4.22,2.44,3.69,6.69-1.18,9.51l-66.4,38.33C1292.4,720,1285,720.27,1280.81,717.83Z"/><path class="cls-23" d="M1375.14,647.16h0V377.77l-107.1-28-19.72-11.39c-4.53-2.61-12.44-2.28-17.66.74l-18.41,10.62-57.12,0L1172,609.74c-.12,1.77.86,3.47,3,4.73L1282,695.11c4.53,2.61,12.44,2.29,17.66-.73l71.23-41.12C1373.85,651.51,1375.31,649.26,1375.14,647.16Z"/><path class="cls-3" d="M1240.12,336.6a20.31,20.31,0,0,0-9.46,2.49l-18.41,10.62-57.12,0V619.79c-.13,1.77.86,3.48,3,4.73L1282,695.11a16.1,16.1,0,0,0,8.2,1.75l1.27-271.8Z"/><path class="cls-22" d="M1283.09,695.67c3.9,1.67,9.55,1.58,14.12-.17V421.85h-14.12Z"/><path class="cls-3" d="M1282,425.09l-123.79-70.58c-4.52-2.62-4-7.18,1.27-10.2l71.23-41.12c5.22-3,13.13-3.35,17.66-.73L1372.11,373c4.52,2.62,4,7.18-1.27,10.2l-71.23,41.12C1294.39,427.38,1286.48,427.71,1282,425.09Z"/><path class="cls-24" d="M1370.84,378.23l-71.23,41.12c-5.22,3-13.13,3.35-17.66.73L1158.16,349.5a6.8,6.8,0,0,1-2.26-2c-1.55,2.51-.85,5.22,2.26,7L1282,425.09c4.53,2.62,12.44,2.29,17.66-.73l71.23-41.12c4.06-2.35,5.29-5.62,3.52-8.19A9.88,9.88,0,0,1,1370.84,378.23Z"/><path class="cls-6" d="M1285.45,396.49,1203,348.71c-2.12-1.22-1.86-3.36.59-4.77L1237,324.7c2.45-1.41,6.15-1.57,8.27-.35l82.41,47.78c2.12,1.22,1.85,3.36-.59,4.77l-33.33,19.24C1291.27,397.55,1287.57,397.71,1285.45,396.49Z"/><path class="cls-3" d="M1241,350.86l-4.78-2.76c-.29-.17-.25-.46.09-.66l4.61-2.66a1.25,1.25,0,0,1,1.14,0l4.78,2.76c.29.17.25.46-.09.66l-4.61,2.66A1.25,1.25,0,0,1,1241,350.86Z"/><path class="cls-3" d="M1256.91,360l-4.77-2.76c-.29-.16-.26-.46.08-.66l4.61-2.66a1.33,1.33,0,0,1,1.15-.05l4.77,2.76c.29.17.26.47-.08.66l-4.61,2.66A1.27,1.27,0,0,1,1256.91,360Z"/><path class="cls-3" d="M1272.87,369.21l-4.78-2.76c-.29-.17-.25-.47.09-.66l4.61-2.66a1.25,1.25,0,0,1,1.14-.05l4.78,2.76c.29.16.25.46-.09.66l-4.61,2.66A1.31,1.31,0,0,1,1272.87,369.21Z"/><path class="cls-3" d="M1288.82,378.38l-4.77-2.76c-.3-.17-.26-.46.08-.66l4.61-2.66a1.25,1.25,0,0,1,1.14-.05l4.78,2.76c.29.17.26.46-.08.66l-4.61,2.66A1.27,1.27,0,0,1,1288.82,378.38Z"/><path class="cls-22" d="M1203,348.71l.1.06a4.26,4.26,0,0,1,.49-.34L1237,329.18c2.45-1.41,6.15-1.56,8.27-.34l82.31,47.72c2-1.4,2.06-3.3.1-4.43l-82.41-47.78c-2.12-1.22-5.82-1.06-8.27.35l-33.33,19.24C1201.18,345.35,1200.92,347.49,1203,348.71Z"/><path class="cls-6" d="M1313.52,478.46l46.86-26.82c2.64-1.53,4.77-5.61,4.77-9.13V425.76c0-3.52-2.13-5.14-4.77-3.61L1313.52,449c-2.64,1.53-4.77,5.61-4.77,9.13v16.75C1308.75,478.37,1310.88,480,1313.52,478.46Z"/><path class="cls-9" d="M1362.7,421.64a4.72,4.72,0,0,1,1.2,3.49v16.75c0,3.52-2.14,7.6-4.78,9.13l-46.86,26.83a3.46,3.46,0,0,1-2.32.5,2.84,2.84,0,0,0,3.58.12l46.86-26.82c2.64-1.53,4.77-5.61,4.77-9.13V425.76C1365.15,423.37,1364.16,421.89,1362.7,421.64Z"/><path class="cls-23" d="M1327.61,460.26l4.3-2.48a2.47,2.47,0,0,0,1-2V451.2c0-.77-.46-1.12-1-.79l-4.3,2.48a2.53,2.53,0,0,0-1,2v4.59C1326.57,460.24,1327,460.59,1327.61,460.26Z"/><path class="cls-9" d="M1342,452l4.29-2.48a2.48,2.48,0,0,0,1-2V442.9c0-.77-.47-1.12-1-.79L1342,444.6a2.47,2.47,0,0,0-1,2v4.6C1341,451.94,1341.41,452.29,1342,452Z"/><path class="cls-6" d="M1313.52,599.55l46.86-26.83c2.64-1.52,4.77-5.6,4.77-9.12V546.84c0-3.51-2.13-5.13-4.77-3.6l-46.86,26.82c-2.64,1.53-4.77,5.61-4.77,9.13v16.75C1308.75,599.46,1310.88,601.08,1313.52,599.55Z"/><path class="cls-9" d="M1362.7,542.73a4.72,4.72,0,0,1,1.2,3.49V563c0,3.52-2.14,7.6-4.78,9.13l-46.86,26.83a3.46,3.46,0,0,1-2.32.5,2.84,2.84,0,0,0,3.58.12l46.86-26.83c2.64-1.52,4.77-5.6,4.77-9.12V546.84C1365.15,544.46,1364.16,543,1362.7,542.73Z"/><path class="cls-23" d="M1327.61,581.35l4.3-2.48a2.47,2.47,0,0,0,1-2v-4.59c0-.77-.46-1.12-1-.79l-4.3,2.48a2.53,2.53,0,0,0-1,2v4.59C1326.57,581.33,1327,581.68,1327.61,581.35Z"/><path class="cls-9" d="M1342,573.05l4.29-2.48a2.48,2.48,0,0,0,1-2V564c0-.77-.47-1.12-1-.79l-4.29,2.49a2.47,2.47,0,0,0-1,2v4.6C1341,573,1341.41,573.38,1342,573.05Z"/><path class="cls-6" d="M1313.52,660.1l46.86-26.83c2.64-1.52,4.77-5.61,4.77-9.12V607.39c0-3.52-2.13-5.13-4.77-3.61l-46.86,26.83c-2.64,1.52-4.77,5.61-4.77,9.12v16.76C1308.75,660,1310.88,661.62,1313.52,660.1Z"/><path class="cls-9" d="M1362.7,603.28a4.68,4.68,0,0,1,1.2,3.48v16.76c0,3.51-2.14,7.6-4.78,9.12l-46.86,26.83a3.41,3.41,0,0,1-2.32.5,2.86,2.86,0,0,0,3.58.13l46.86-26.83c2.64-1.52,4.77-5.61,4.77-9.12V607.39C1365.15,605,1364.16,603.52,1362.7,603.28Z"/><path class="cls-23" d="M1327.61,641.89l4.3-2.48a2.47,2.47,0,0,0,1-2v-4.59c0-.76-.46-1.12-1-.78l-4.3,2.48a2.5,2.5,0,0,0-1,2v4.59C1326.57,641.87,1327,642.23,1327.61,641.89Z"/><path class="cls-9" d="M1342,633.6l4.29-2.49a2.48,2.48,0,0,0,1-2v-4.59c0-.77-.47-1.12-1-.79l-4.29,2.48a2.47,2.47,0,0,0-1,2v4.59C1341,633.58,1341.41,633.93,1342,633.6Z"/><path class="cls-6" d="M1313.52,539l46.86-26.83c2.64-1.52,4.77-5.61,4.77-9.12V486.3c0-3.52-2.13-5.13-4.77-3.61l-46.86,26.83c-2.64,1.52-4.77,5.61-4.77,9.12V535.4C1308.75,538.92,1310.88,540.53,1313.52,539Z"/><path class="cls-9" d="M1362.7,482.19a4.68,4.68,0,0,1,1.2,3.48v16.76c0,3.51-2.14,7.6-4.78,9.12l-46.86,26.83a3.48,3.48,0,0,1-2.32.51,2.87,2.87,0,0,0,3.58.12l46.86-26.83c2.64-1.52,4.77-5.61,4.77-9.12V486.3C1365.15,483.91,1364.16,482.43,1362.7,482.19Z"/><path class="cls-23" d="M1327.61,520.81l4.3-2.49a2.47,2.47,0,0,0,1-2v-4.6c0-.76-.46-1.11-1-.78l-4.3,2.48a2.5,2.5,0,0,0-1,2V520C1326.57,520.78,1327,521.14,1327.61,520.81Z"/><path class="cls-9" d="M1342,512.51l4.29-2.48a2.51,2.51,0,0,0,1-2v-4.59c0-.77-.47-1.12-1-.79l-4.29,2.48a2.47,2.47,0,0,0-1,2v4.59C1341,512.49,1341.41,512.84,1342,512.51Z"/><path class="cls-22" d="M1272.93,461.31l-108.1-62.42c-2.42-1.39-4.38-5.14-4.38-8.37V369.91c0-3.23,2-4.71,4.38-3.31L1272.93,429c2.42,1.4,4.39,5.15,4.39,8.37V458C1277.32,461.22,1275.35,462.71,1272.93,461.31Z"/><path class="cls-25" d="M1269.83,454.08l-101.9-58.83a5.32,5.32,0,0,1-2.22-4.25V375.51c0-1.64,1-2.39,2.22-1.68l101.9,58.83a5.31,5.31,0,0,1,2.22,4.24v15.5C1272.05,454,1271.06,454.79,1269.83,454.08Z"/><path class="cls-3" d="M1189.17,399.68,1174,390.9a5.19,5.19,0,0,1-2.16-4.13h0c0-1.59,1-2.32,2.16-1.63l15.21,8.78a5.19,5.19,0,0,1,2.16,4.12h0C1191.33,399.63,1190.36,400.36,1189.17,399.68Z"/><path class="cls-6" d="M1202.13,404.28c0,1.59-1.12,2.23-2.5,1.44a5.54,5.54,0,0,1-2.49-4.32c0-1.59,1.12-2.23,2.49-1.44A5.52,5.52,0,0,1,1202.13,404.28Z"/><path class="cls-6" d="M1210.92,409.36c0,1.59-1.12,2.23-2.49,1.44a5.52,5.52,0,0,1-2.5-4.32c0-1.59,1.12-2.23,2.5-1.44A5.52,5.52,0,0,1,1210.92,409.36Z"/><path class="cls-3" d="M1219.71,414.43c0,1.59-1.11,2.24-2.49,1.44a5.49,5.49,0,0,1-2.49-4.31c0-1.59,1.11-2.24,2.49-1.44A5.48,5.48,0,0,1,1219.71,414.43Z"/><path class="cls-6" d="M1228.5,419.51c0,1.59-1.11,2.23-2.49,1.44a5.54,5.54,0,0,1-2.49-4.32c0-1.59,1.12-2.23,2.49-1.44A5.51,5.51,0,0,1,1228.5,419.51Z"/><path class="cls-6" d="M1265.54,445.45l-5.12-3a3.31,3.31,0,0,1-1.38-2.64v-5.42c0-1,.62-1.49,1.38-1.05l5.12,3a3.31,3.31,0,0,1,1.39,2.65v5.42C1266.93,445.43,1266.31,445.89,1265.54,445.45Z"/><path class="cls-22" d="M1272.93,497.66l-108.1-62.41c-2.42-1.4-4.38-5.15-4.38-8.38V406.26c0-3.23,2-4.71,4.38-3.31l108.1,62.41c2.42,1.4,4.39,5.15,4.39,8.38v20.61C1277.32,497.58,1275.35,499.06,1272.93,497.66Z"/><path class="cls-25" d="M1269.83,490.43l-101.9-58.83a5.32,5.32,0,0,1-2.22-4.25V411.86c0-1.64,1-2.39,2.22-1.68L1269.83,469a5.32,5.32,0,0,1,2.22,4.25v15.49C1272.05,490.39,1271.06,491.14,1269.83,490.43Z"/><path class="cls-3" d="M1189.17,436,1174,427.25a5.19,5.19,0,0,1-2.16-4.13h0c0-1.59,1-2.32,2.16-1.63l15.21,8.78a5.19,5.19,0,0,1,2.16,4.13h0C1191.33,436,1190.36,436.72,1189.17,436Z"/><path class="cls-9" d="M1202.13,440.63c0,1.59-1.12,2.24-2.5,1.44a5.52,5.52,0,0,1-2.49-4.32c0-1.59,1.12-2.23,2.49-1.44A5.52,5.52,0,0,1,1202.13,440.63Z"/><path class="cls-6" d="M1210.92,445.71c0,1.59-1.12,2.23-2.49,1.44a5.52,5.52,0,0,1-2.5-4.32c0-1.59,1.12-2.23,2.5-1.44A5.54,5.54,0,0,1,1210.92,445.71Z"/><path class="cls-3" d="M1219.71,450.78c0,1.59-1.11,2.24-2.49,1.44a5.48,5.48,0,0,1-2.49-4.31c0-1.59,1.11-2.24,2.49-1.44A5.49,5.49,0,0,1,1219.71,450.78Z"/><path class="cls-6" d="M1228.5,455.86c0,1.59-1.11,2.24-2.49,1.44a5.52,5.52,0,0,1-2.49-4.32c0-1.59,1.12-2.23,2.49-1.44A5.51,5.51,0,0,1,1228.5,455.86Z"/><path class="cls-6" d="M1265.54,481.8l-5.12-2.95a3.35,3.35,0,0,1-1.38-2.65v-5.42c0-1,.62-1.49,1.38-1l5.12,3a3.31,3.31,0,0,1,1.39,2.65v5.42C1266.93,481.78,1266.31,482.25,1265.54,481.8Z"/><path class="cls-22" d="M1272.93,534l-108.1-62.41c-2.42-1.4-4.38-5.15-4.38-8.37V442.61c0-3.22,2-4.71,4.38-3.31l108.1,62.42c2.42,1.39,4.39,5.14,4.39,8.37V530.7C1277.32,533.93,1275.35,535.41,1272.93,534Z"/><path class="cls-25" d="M1269.83,526.78,1167.93,468a5.31,5.31,0,0,1-2.22-4.24v-15.5c0-1.64,1-2.39,2.22-1.68l101.9,58.83a5.32,5.32,0,0,1,2.22,4.25V525.1C1272.05,526.74,1271.06,527.49,1269.83,526.78Z"/><path class="cls-3" d="M1189.17,472.38,1174,463.6a5.19,5.19,0,0,1-2.16-4.13h0c0-1.59,1-2.32,2.16-1.63l15.21,8.78a5.19,5.19,0,0,1,2.16,4.13h0C1191.33,472.34,1190.36,473.07,1189.17,472.38Z"/><path class="cls-9" d="M1202.13,477c0,1.59-1.12,2.24-2.5,1.44a5.52,5.52,0,0,1-2.49-4.32c0-1.58,1.12-2.23,2.49-1.43A5.49,5.49,0,0,1,1202.13,477Z"/><path class="cls-6" d="M1210.92,482.06c0,1.59-1.12,2.23-2.49,1.44a5.52,5.52,0,0,1-2.5-4.32c0-1.59,1.12-2.23,2.5-1.44A5.54,5.54,0,0,1,1210.92,482.06Z"/><path class="cls-3" d="M1219.71,487.14c0,1.59-1.11,2.23-2.49,1.43a5.48,5.48,0,0,1-2.49-4.31c0-1.59,1.11-2.24,2.49-1.44A5.49,5.49,0,0,1,1219.71,487.14Z"/><path class="cls-6" d="M1228.5,492.21c0,1.59-1.11,2.24-2.49,1.44a5.52,5.52,0,0,1-2.49-4.32c0-1.59,1.12-2.23,2.49-1.43A5.48,5.48,0,0,1,1228.5,492.21Z"/><path class="cls-6" d="M1265.54,518.15l-5.12-2.95a3.33,3.33,0,0,1-1.38-2.65v-5.42c0-1,.62-1.49,1.38-1.05l5.12,3a3.31,3.31,0,0,1,1.39,2.65v5.42C1266.93,518.13,1266.31,518.6,1265.54,518.15Z"/><path class="cls-22" d="M1272.93,570.36,1164.83,508c-2.42-1.4-4.38-5.15-4.38-8.37V479c0-3.22,2-4.71,4.38-3.31l108.1,62.42c2.42,1.39,4.39,5.14,4.39,8.37v20.61C1277.32,570.28,1275.35,571.76,1272.93,570.36Z"/><path class="cls-25" d="M1269.83,563.14l-101.9-58.84a5.31,5.31,0,0,1-2.22-4.24v-15.5c0-1.64,1-2.39,2.22-1.68l101.9,58.83a5.32,5.32,0,0,1,2.22,4.25v15.5C1272.05,563.09,1271.06,563.84,1269.83,563.14Z"/><path class="cls-3" d="M1189.17,508.73,1174,500a5.17,5.17,0,0,1-2.16-4.12h0c0-1.59,1-2.32,2.16-1.64l15.21,8.78a5.19,5.19,0,0,1,2.16,4.13h0C1191.33,508.69,1190.36,509.42,1189.17,508.73Z"/><path class="cls-6" d="M1202.13,513.33c0,1.59-1.12,2.24-2.5,1.44a5.5,5.5,0,0,1-2.49-4.31c0-1.59,1.12-2.24,2.49-1.44A5.49,5.49,0,0,1,1202.13,513.33Z"/><path class="cls-6" d="M1210.92,518.41c0,1.59-1.12,2.23-2.49,1.44a5.52,5.52,0,0,1-2.5-4.32c0-1.59,1.12-2.23,2.5-1.44A5.54,5.54,0,0,1,1210.92,518.41Z"/><path class="cls-3" d="M1219.71,523.49c0,1.59-1.11,2.23-2.49,1.44a5.51,5.51,0,0,1-2.49-4.32c0-1.59,1.11-2.23,2.49-1.44A5.49,5.49,0,0,1,1219.71,523.49Z"/><path class="cls-6" d="M1228.5,528.56c0,1.59-1.11,2.24-2.49,1.44a5.5,5.5,0,0,1-2.49-4.31c0-1.59,1.12-2.24,2.49-1.44A5.48,5.48,0,0,1,1228.5,528.56Z"/><path class="cls-3" d="M1265.54,554.51l-5.12-3a3.33,3.33,0,0,1-1.38-2.65v-5.42c0-1,.62-1.49,1.38-1.05l5.12,3a3.31,3.31,0,0,1,1.39,2.65v5.42C1266.93,554.48,1266.31,555,1265.54,554.51Z"/><path class="cls-22" d="M1272.93,606.71l-108.1-62.41c-2.42-1.4-4.38-5.15-4.38-8.37V515.31c0-3.22,2-4.71,4.38-3.31l108.1,62.42c2.42,1.39,4.39,5.14,4.39,8.37V603.4C1277.32,606.63,1275.35,608.11,1272.93,606.71Z"/><path class="cls-25" d="M1269.83,599.49l-101.9-58.84a5.3,5.3,0,0,1-2.22-4.24v-15.5c0-1.64,1-2.39,2.22-1.68l101.9,58.83a5.32,5.32,0,0,1,2.22,4.25v15.5C1272.05,599.44,1271.06,600.2,1269.83,599.49Z"/><path class="cls-3" d="M1189.17,545.08,1174,536.3a5.17,5.17,0,0,1-2.16-4.12h0c0-1.59,1-2.32,2.16-1.64l15.21,8.79a5.16,5.16,0,0,1,2.16,4.12h0C1191.33,545,1190.36,545.77,1189.17,545.08Z"/><path class="cls-6" d="M1202.13,549.69c0,1.58-1.12,2.23-2.5,1.43a5.5,5.5,0,0,1-2.49-4.31c0-1.59,1.12-2.24,2.49-1.44A5.51,5.51,0,0,1,1202.13,549.69Z"/><path class="cls-9" d="M1210.92,554.76c0,1.59-1.12,2.24-2.49,1.44a5.51,5.51,0,0,1-2.5-4.32c0-1.59,1.12-2.23,2.5-1.44A5.54,5.54,0,0,1,1210.92,554.76Z"/><path class="cls-3" d="M1219.71,559.84c0,1.59-1.11,2.23-2.49,1.44a5.51,5.51,0,0,1-2.49-4.32c0-1.59,1.11-2.23,2.49-1.44A5.51,5.51,0,0,1,1219.71,559.84Z"/><path class="cls-9" d="M1228.5,564.91c0,1.59-1.11,2.24-2.49,1.44a5.5,5.5,0,0,1-2.49-4.31c0-1.59,1.12-2.24,2.49-1.44A5.49,5.49,0,0,1,1228.5,564.91Z"/><path class="cls-3" d="M1265.54,590.86l-5.12-3a3.33,3.33,0,0,1-1.38-2.65v-5.42c0-1,.62-1.49,1.38-1l5.12,3a3.33,3.33,0,0,1,1.39,2.65v5.42C1266.93,590.83,1266.31,591.3,1265.54,590.86Z"/><path class="cls-22" d="M1272.93,643.07l-108.1-62.42c-2.42-1.4-4.38-5.14-4.38-8.37V551.67c0-3.23,2-4.71,4.38-3.32l108.1,62.42c2.42,1.4,4.39,5.14,4.39,8.37v20.61C1277.32,643,1275.35,644.46,1272.93,643.07Z"/><path class="cls-25" d="M1269.83,635.84,1167.93,577a5.32,5.32,0,0,1-2.22-4.25v-15.5c0-1.64,1-2.39,2.22-1.68l101.9,58.83a5.32,5.32,0,0,1,2.22,4.25v15.5C1272.05,635.79,1271.06,636.55,1269.83,635.84Z"/><path class="cls-3" d="M1189.17,581.43,1174,572.65a5.17,5.17,0,0,1-2.16-4.12h0c0-1.59,1-2.32,2.16-1.63l15.21,8.78a5.16,5.16,0,0,1,2.16,4.12h0C1191.33,581.39,1190.36,582.12,1189.17,581.43Z"/><path class="cls-6" d="M1202.13,586c0,1.59-1.12,2.23-2.5,1.43a5.5,5.5,0,0,1-2.49-4.31c0-1.59,1.12-2.24,2.49-1.44A5.51,5.51,0,0,1,1202.13,586Z"/><path class="cls-6" d="M1210.92,591.11c0,1.59-1.12,2.24-2.49,1.44a5.51,5.51,0,0,1-2.5-4.32c0-1.59,1.12-2.23,2.5-1.43A5.5,5.5,0,0,1,1210.92,591.11Z"/><path class="cls-3" d="M1219.71,596.19c0,1.59-1.11,2.23-2.49,1.44a5.51,5.51,0,0,1-2.49-4.32c0-1.59,1.11-2.23,2.49-1.44A5.51,5.51,0,0,1,1219.71,596.19Z"/><path class="cls-6" d="M1228.5,601.27c0,1.59-1.11,2.23-2.49,1.43a5.5,5.5,0,0,1-2.49-4.31c0-1.59,1.12-2.24,2.49-1.44A5.49,5.49,0,0,1,1228.5,601.27Z"/><path class="cls-6" d="M1265.54,627.21l-5.12-3a3.33,3.33,0,0,1-1.38-2.65v-5.42c0-1,.62-1.48,1.38-1l5.12,3a3.33,3.33,0,0,1,1.39,2.65v5.42C1266.93,627.18,1266.31,627.65,1265.54,627.21Z"/><path class="cls-22" d="M1272.93,679.42,1164.83,617c-2.42-1.4-4.38-5.14-4.38-8.37V588c0-3.23,2-4.71,4.38-3.32l108.1,62.42c2.42,1.4,4.39,5.14,4.39,8.37v20.62C1277.32,679.33,1275.35,680.81,1272.93,679.42Z"/><path class="cls-25" d="M1269.83,672.19l-101.9-58.83a5.32,5.32,0,0,1-2.22-4.25v-15.5c0-1.63,1-2.39,2.22-1.68l101.9,58.83a5.32,5.32,0,0,1,2.22,4.25v15.5C1272.05,672.15,1271.06,672.9,1269.83,672.19Z"/><path class="cls-3" d="M1189.17,617.78,1174,609a5.17,5.17,0,0,1-2.16-4.12h0c0-1.59,1-2.32,2.16-1.63l15.21,8.78a5.17,5.17,0,0,1,2.16,4.12h0C1191.33,617.74,1190.36,618.47,1189.17,617.78Z"/><path class="cls-9" d="M1259,655.93c0,3-2.11,4.22-4.71,2.72a10.4,10.4,0,0,1-4.71-8.15c0-3,2.11-4.22,4.71-2.72A10.4,10.4,0,0,1,1259,655.93Z"/><path class="cls-6" d="M1202.13,622.84c0,1.59-1.12,2.24-2.5,1.44a5.52,5.52,0,0,1-2.49-4.32c0-1.59,1.12-2.23,2.49-1.44A5.52,5.52,0,0,1,1202.13,622.84Z"/><path class="cls-3" d="M1210.92,627.92c0,1.59-1.12,2.23-2.49,1.44a5.52,5.52,0,0,1-2.5-4.32c0-1.59,1.12-2.23,2.5-1.44A5.54,5.54,0,0,1,1210.92,627.92Z"/><path class="cls-6" d="M1219.71,633c0,1.59-1.11,2.24-2.49,1.44a5.48,5.48,0,0,1-2.49-4.31c0-1.59,1.11-2.24,2.49-1.44A5.49,5.49,0,0,1,1219.71,633Z"/><path class="cls-3" d="M1434.17,805.73l-115.39-65.8c-4.22-2.44-3.69-6.69,1.18-9.5l66.39-38.34c4.88-2.81,12.25-3.12,16.47-.68l115.39,65.8c4.22,2.43,3.69,6.69-1.18,9.5l-66.39,38.34C1445.76,807.86,1438.39,808.16,1434.17,805.73Z"/><path class="cls-23" d="M1528.5,735.06h0V465.67l-107.1-28-19.72-11.39c-4.53-2.61-12.44-2.28-17.66.74l-18.41,10.62-57.12,0,16.92,260.05c-.13,1.77.85,3.48,3,4.74L1435.31,783c4.53,2.61,12.44,2.28,17.66-.73l71.23-41.13C1527.21,739.41,1528.67,737.16,1528.5,735.06Z"/><path class="cls-3" d="M1393.48,424.5A20.31,20.31,0,0,0,1384,427l-18.41,10.62-57.12,0V707.69c-.13,1.77.86,3.48,3,4.73L1435.31,783a16.1,16.1,0,0,0,8.2,1.75l1.27-271.8Z"/><path class="cls-22" d="M1436.45,783.56c3.9,1.68,9.55,1.58,14.12-.16V509.75h-14.12Z"/><path class="cls-3" d="M1435.31,513l-123.79-70.58c-4.52-2.62-4-7.18,1.27-10.2L1384,391.09c5.22-3,13.13-3.35,17.66-.73l123.79,70.58c4.52,2.61,4,7.18-1.27,10.2L1453,512.26C1447.75,515.28,1439.84,515.6,1435.31,513Z"/><path class="cls-24" d="M1524.2,466.13,1453,507.25c-5.22,3-13.13,3.35-17.66.73L1311.52,437.4a6.77,6.77,0,0,1-2.25-2c-1.56,2.51-.85,5.22,2.25,7L1435.31,513c4.53,2.61,12.44,2.29,17.66-.73l71.23-41.12c4.06-2.35,5.29-5.62,3.52-8.2A9.72,9.72,0,0,1,1524.2,466.13Z"/><path class="cls-6" d="M1438.81,484.38l-82.41-47.77c-2.12-1.22-1.85-3.36.59-4.77l33.33-19.24c2.45-1.42,6.15-1.57,8.27-.35L1481,460c2.12,1.22,1.85,3.36-.59,4.77L1447.08,484C1444.63,485.45,1440.93,485.61,1438.81,484.38Z"/><path class="cls-3" d="M1394.32,438.76l-4.78-2.76c-.29-.17-.25-.47.09-.66l4.61-2.66a1.25,1.25,0,0,1,1.14-.05l4.78,2.76c.29.17.25.46-.09.66l-4.61,2.66A1.28,1.28,0,0,1,1394.32,438.76Z"/><path class="cls-3" d="M1410.27,447.93l-4.77-2.76c-.29-.17-.26-.46.08-.66l4.61-2.66a1.27,1.27,0,0,1,1.15-.05l4.77,2.76c.29.17.26.46-.08.66l-4.61,2.66A1.27,1.27,0,0,1,1410.27,447.93Z"/><path class="cls-3" d="M1426.23,457.1l-4.78-2.75c-.29-.17-.25-.47.09-.66l4.61-2.67a1.28,1.28,0,0,1,1.14,0l4.78,2.75c.29.17.25.47-.09.66l-4.61,2.67A1.28,1.28,0,0,1,1426.23,457.1Z"/><path class="cls-3" d="M1442.18,466.28l-4.77-2.76c-.29-.17-.26-.46.08-.66l4.61-2.66a1.27,1.27,0,0,1,1.15-.05l4.77,2.76c.29.17.26.46-.08.66l-4.61,2.66A1.27,1.27,0,0,1,1442.18,466.28Z"/><path class="cls-22" d="M1356.4,436.61l.1.06a4.26,4.26,0,0,1,.49-.34l33.33-19.25c2.45-1.41,6.15-1.56,8.27-.34l82.31,47.72c2-1.4,2.06-3.3.1-4.43l-82.41-47.78c-2.12-1.22-5.82-1.07-8.27.35L1357,431.84C1354.55,433.25,1354.28,435.39,1356.4,436.61Z"/><path class="cls-6" d="M1466.88,566.36l46.86-26.83c2.64-1.52,4.77-5.6,4.77-9.12V513.65c0-3.51-2.13-5.13-4.77-3.61l-46.86,26.83c-2.64,1.53-4.77,5.61-4.77,9.13v16.75C1462.11,566.27,1464.24,567.88,1466.88,566.36Z"/><path class="cls-9" d="M1516.06,509.54a4.66,4.66,0,0,1,1.2,3.49v16.75c0,3.52-2.14,7.6-4.78,9.13l-46.86,26.82a3.42,3.42,0,0,1-2.32.51,2.86,2.86,0,0,0,3.58.12l46.86-26.83c2.64-1.52,4.77-5.6,4.77-9.12V513.65C1518.51,511.27,1517.52,509.79,1516.06,509.54Z"/><path class="cls-23" d="M1481,548.16l4.3-2.48a2.47,2.47,0,0,0,1-2V539.1c0-.77-.46-1.12-1-.79l-4.3,2.48a2.5,2.5,0,0,0-1,2v4.59C1479.93,548.14,1480.4,548.49,1481,548.16Z"/><path class="cls-9" d="M1495.35,539.86l4.3-2.48a2.5,2.5,0,0,0,1-2V530.8c0-.77-.47-1.12-1-.79l-4.3,2.48a2.5,2.5,0,0,0-1,2v4.59C1494.31,539.84,1494.77,540.19,1495.35,539.86Z"/><path class="cls-6" d="M1466.88,687.45l46.86-26.83c2.64-1.52,4.77-5.6,4.77-9.12V634.74c0-3.51-2.13-5.13-4.77-3.61L1466.88,658c-2.64,1.52-4.77,5.61-4.77,9.13v16.75C1462.11,687.36,1464.24,689,1466.88,687.45Z"/><path class="cls-9" d="M1516.06,630.63a4.65,4.65,0,0,1,1.2,3.48v16.76c0,3.52-2.14,7.6-4.78,9.12l-46.86,26.83a3.42,3.42,0,0,1-2.32.51,2.86,2.86,0,0,0,3.58.12l46.86-26.83c2.64-1.52,4.77-5.6,4.77-9.12V634.74C1518.51,632.36,1517.52,630.88,1516.06,630.63Z"/><path class="cls-23" d="M1481,669.25l4.3-2.48a2.5,2.5,0,0,0,1-2v-4.59c0-.77-.46-1.12-1-.79l-4.3,2.48a2.5,2.5,0,0,0-1,2v4.59C1479.93,669.23,1480.4,669.58,1481,669.25Z"/><path class="cls-9" d="M1495.35,661l4.3-2.48a2.5,2.5,0,0,0,1-2v-4.59c0-.77-.47-1.12-1-.79l-4.3,2.48a2.5,2.5,0,0,0-1,2v4.59C1494.31,660.93,1494.77,661.28,1495.35,661Z"/><path class="cls-6" d="M1466.88,748l46.86-26.83c2.64-1.52,4.77-5.61,4.77-9.12V695.29c0-3.52-2.13-5.13-4.77-3.61l-46.86,26.83c-2.64,1.52-4.77,5.6-4.77,9.12v16.76C1462.11,747.9,1464.24,749.52,1466.88,748Z"/><path class="cls-9" d="M1516.06,691.17a4.68,4.68,0,0,1,1.2,3.49v16.76c0,3.51-2.14,7.6-4.78,9.12l-46.86,26.83a3.41,3.41,0,0,1-2.32.5,2.86,2.86,0,0,0,3.58.13l46.86-26.83c2.64-1.52,4.77-5.61,4.77-9.12V695.29C1518.51,692.9,1517.52,691.42,1516.06,691.17Z"/><path class="cls-23" d="M1481,729.79l4.3-2.48a2.47,2.47,0,0,0,1-2v-4.59c0-.76-.46-1.12-1-.79l-4.3,2.49a2.5,2.5,0,0,0-1,2V729C1479.93,729.77,1480.4,730.12,1481,729.79Z"/><path class="cls-9" d="M1495.35,721.49l4.3-2.48a2.5,2.5,0,0,0,1-2v-4.59c0-.76-.47-1.11-1-.78l-4.3,2.48a2.47,2.47,0,0,0-1,2v4.59C1494.31,721.47,1494.77,721.83,1495.35,721.49Z"/><path class="cls-6" d="M1466.88,626.91l46.86-26.83c2.64-1.52,4.77-5.61,4.77-9.12V574.2c0-3.52-2.13-5.13-4.77-3.61l-46.86,26.83c-2.64,1.52-4.77,5.6-4.77,9.12V623.3C1462.11,626.81,1464.24,628.43,1466.88,626.91Z"/><path class="cls-9" d="M1516.06,570.08a4.68,4.68,0,0,1,1.2,3.49v16.76c0,3.51-2.14,7.6-4.78,9.12l-46.86,26.83a3.41,3.41,0,0,1-2.32.5,2.86,2.86,0,0,0,3.58.13l46.86-26.83c2.64-1.52,4.77-5.61,4.77-9.12V574.2C1518.51,571.81,1517.52,570.33,1516.06,570.08Z"/><path class="cls-23" d="M1481,608.7l4.3-2.48a2.47,2.47,0,0,0,1-2v-4.59c0-.76-.46-1.12-1-.78l-4.3,2.48a2.5,2.5,0,0,0-1,2v4.59C1479.93,608.68,1480.4,609,1481,608.7Z"/><path class="cls-9" d="M1495.35,600.41l4.3-2.49a2.5,2.5,0,0,0,1-2v-4.6c0-.76-.47-1.11-1-.78l-4.3,2.48a2.47,2.47,0,0,0-1,2v4.59C1494.31,600.39,1494.77,600.74,1495.35,600.41Z"/><path class="cls-22" d="M1426.29,549.21l-108.1-62.42c-2.42-1.39-4.38-5.14-4.38-8.37V457.81c0-3.23,2-4.71,4.38-3.31l108.1,62.41c2.42,1.4,4.39,5.15,4.39,8.37V545.9C1430.68,549.12,1428.71,550.61,1426.29,549.21Z"/><path class="cls-25" d="M1423.19,542l-101.9-58.83a5.32,5.32,0,0,1-2.22-4.25V463.4c0-1.63,1-2.39,2.22-1.68l101.9,58.84a5.3,5.3,0,0,1,2.22,4.24v15.5C1425.41,541.94,1424.42,542.69,1423.19,542Z"/><path class="cls-3" d="M1342.53,487.57l-15.21-8.78a5.16,5.16,0,0,1-2.16-4.12h0c0-1.59,1-2.32,2.16-1.63l15.21,8.78a5.17,5.17,0,0,1,2.16,4.12h0C1344.69,487.53,1343.72,488.26,1342.53,487.57Z"/><path class="cls-6" d="M1355.49,492.18c0,1.59-1.12,2.23-2.5,1.44a5.54,5.54,0,0,1-2.49-4.32c0-1.59,1.12-2.23,2.49-1.44A5.52,5.52,0,0,1,1355.49,492.18Z"/><path class="cls-6" d="M1364.28,497.26c0,1.58-1.12,2.23-2.49,1.43a5.49,5.49,0,0,1-2.5-4.31c0-1.59,1.12-2.24,2.5-1.44A5.52,5.52,0,0,1,1364.28,497.26Z"/><path class="cls-3" d="M1373.07,502.33c0,1.59-1.11,2.24-2.49,1.44a5.49,5.49,0,0,1-2.49-4.32c0-1.59,1.11-2.23,2.49-1.44A5.51,5.51,0,0,1,1373.07,502.33Z"/><path class="cls-6" d="M1381.86,507.41c0,1.59-1.11,2.23-2.49,1.44a5.54,5.54,0,0,1-2.49-4.32c0-1.59,1.12-2.23,2.49-1.44A5.51,5.51,0,0,1,1381.86,507.41Z"/><path class="cls-6" d="M1418.91,533.35l-5.13-3a3.31,3.31,0,0,1-1.38-2.64v-5.42c0-1,.62-1.49,1.38-1.05l5.13,3a3.31,3.31,0,0,1,1.38,2.64v5.42C1420.29,533.32,1419.67,533.79,1418.91,533.35Z"/><path class="cls-22" d="M1426.29,585.56l-108.1-62.42c-2.42-1.39-4.38-5.14-4.38-8.37V494.16c0-3.23,2-4.71,4.38-3.31l108.1,62.41c2.42,1.4,4.39,5.15,4.39,8.37v20.62C1430.68,585.47,1428.71,587,1426.29,585.56Z"/><path class="cls-25" d="M1423.19,578.33l-101.9-58.83a5.32,5.32,0,0,1-2.22-4.25V499.76c0-1.64,1-2.39,2.22-1.69l101.9,58.84a5.31,5.31,0,0,1,2.22,4.24v15.5C1425.41,578.29,1424.42,579,1423.19,578.33Z"/><path class="cls-3" d="M1342.53,523.93l-15.21-8.78a5.19,5.19,0,0,1-2.16-4.13h0c0-1.59,1-2.32,2.16-1.63l15.21,8.78a5.17,5.17,0,0,1,2.16,4.12h0C1344.69,523.88,1343.72,524.61,1342.53,523.93Z"/><path class="cls-9" d="M1355.49,528.53c0,1.59-1.12,2.23-2.5,1.44a5.54,5.54,0,0,1-2.49-4.32c0-1.59,1.12-2.23,2.49-1.44A5.52,5.52,0,0,1,1355.49,528.53Z"/><path class="cls-6" d="M1364.28,533.61c0,1.59-1.12,2.23-2.49,1.44a5.52,5.52,0,0,1-2.5-4.32c0-1.59,1.12-2.24,2.5-1.44A5.52,5.52,0,0,1,1364.28,533.61Z"/><path class="cls-3" d="M1373.07,538.68c0,1.59-1.11,2.24-2.49,1.44a5.49,5.49,0,0,1-2.49-4.32c0-1.58,1.11-2.23,2.49-1.43A5.48,5.48,0,0,1,1373.07,538.68Z"/><path class="cls-6" d="M1381.86,543.76c0,1.59-1.11,2.23-2.49,1.44a5.54,5.54,0,0,1-2.49-4.32c0-1.59,1.12-2.23,2.49-1.44A5.51,5.51,0,0,1,1381.86,543.76Z"/><path class="cls-6" d="M1418.91,569.7l-5.13-3a3.31,3.31,0,0,1-1.38-2.64v-5.42c0-1,.62-1.49,1.38-1l5.13,3a3.31,3.31,0,0,1,1.38,2.64v5.42C1420.29,569.67,1419.67,570.14,1418.91,569.7Z"/><path class="cls-22" d="M1426.29,621.91l-108.1-62.41c-2.42-1.4-4.38-5.15-4.38-8.38V530.51c0-3.23,2-4.71,4.38-3.31l108.1,62.41c2.42,1.4,4.39,5.15,4.39,8.37V618.6C1430.68,621.83,1428.71,623.31,1426.29,621.91Z"/><path class="cls-25" d="M1423.19,614.68l-101.9-58.83a5.32,5.32,0,0,1-2.22-4.25V536.11c0-1.64,1-2.39,2.22-1.68l101.9,58.83a5.31,5.31,0,0,1,2.22,4.24V613C1425.41,614.64,1424.42,615.39,1423.19,614.68Z"/><path class="cls-3" d="M1342.53,560.28l-15.21-8.78a5.19,5.19,0,0,1-2.16-4.13h0c0-1.59,1-2.32,2.16-1.63l15.21,8.78a5.19,5.19,0,0,1,2.16,4.13h0C1344.69,560.23,1343.72,561,1342.53,560.28Z"/><path class="cls-9" d="M1355.49,564.88c0,1.59-1.12,2.23-2.5,1.44a5.52,5.52,0,0,1-2.49-4.32c0-1.59,1.12-2.23,2.49-1.44A5.52,5.52,0,0,1,1355.49,564.88Z"/><path class="cls-6" d="M1364.28,570c0,1.59-1.12,2.23-2.49,1.44a5.52,5.52,0,0,1-2.5-4.32c0-1.59,1.12-2.23,2.5-1.44A5.54,5.54,0,0,1,1364.28,570Z"/><path class="cls-3" d="M1373.07,575c0,1.59-1.11,2.24-2.49,1.44a5.48,5.48,0,0,1-2.49-4.31c0-1.59,1.11-2.24,2.49-1.44A5.48,5.48,0,0,1,1373.07,575Z"/><path class="cls-6" d="M1381.86,580.11c0,1.59-1.11,2.23-2.49,1.44a5.54,5.54,0,0,1-2.49-4.32c0-1.59,1.12-2.23,2.49-1.44A5.51,5.51,0,0,1,1381.86,580.11Z"/><path class="cls-6" d="M1418.91,606.05l-5.13-2.95a3.35,3.35,0,0,1-1.38-2.65V595c0-1,.62-1.49,1.38-1l5.13,3a3.33,3.33,0,0,1,1.38,2.65V605C1420.29,606,1419.67,606.49,1418.91,606.05Z"/><path class="cls-22" d="M1426.29,658.26l-108.1-62.41c-2.42-1.4-4.38-5.15-4.38-8.37V566.86c0-3.23,2-4.71,4.38-3.31L1426.29,626c2.42,1.4,4.39,5.15,4.39,8.38V655C1430.68,658.18,1428.71,659.66,1426.29,658.26Z"/><path class="cls-25" d="M1423.19,651l-101.9-58.83a5.32,5.32,0,0,1-2.22-4.25V572.46c0-1.64,1-2.39,2.22-1.68l101.9,58.83a5.32,5.32,0,0,1,2.22,4.25v15.49C1425.41,651,1424.42,651.74,1423.19,651Z"/><path class="cls-3" d="M1342.53,596.63l-15.21-8.78a5.19,5.19,0,0,1-2.16-4.13h0c0-1.59,1-2.32,2.16-1.63l15.21,8.78a5.19,5.19,0,0,1,2.16,4.13h0C1344.69,596.59,1343.72,597.32,1342.53,596.63Z"/><path class="cls-6" d="M1355.49,601.23c0,1.59-1.12,2.24-2.5,1.44a5.52,5.52,0,0,1-2.49-4.32c0-1.59,1.12-2.23,2.49-1.43A5.49,5.49,0,0,1,1355.49,601.23Z"/><path class="cls-6" d="M1364.28,606.31c0,1.59-1.12,2.23-2.49,1.44a5.52,5.52,0,0,1-2.5-4.32c0-1.59,1.12-2.23,2.5-1.44A5.54,5.54,0,0,1,1364.28,606.31Z"/><path class="cls-3" d="M1373.07,611.39c0,1.58-1.11,2.23-2.49,1.43a5.48,5.48,0,0,1-2.49-4.31c0-1.59,1.11-2.24,2.49-1.44A5.49,5.49,0,0,1,1373.07,611.39Z"/><path class="cls-6" d="M1381.86,616.46c0,1.59-1.11,2.24-2.49,1.44a5.52,5.52,0,0,1-2.49-4.32c0-1.59,1.12-2.23,2.49-1.44A5.51,5.51,0,0,1,1381.86,616.46Z"/><path class="cls-3" d="M1418.91,642.4l-5.13-2.95a3.35,3.35,0,0,1-1.38-2.65v-5.42c0-1,.62-1.49,1.38-1l5.13,3a3.33,3.33,0,0,1,1.38,2.65v5.42C1420.29,642.38,1419.67,642.85,1418.91,642.4Z"/><path class="cls-22" d="M1426.29,694.61l-108.1-62.41c-2.42-1.4-4.38-5.15-4.38-8.37V603.21c0-3.22,2-4.71,4.38-3.31l108.1,62.42c2.42,1.39,4.39,5.14,4.39,8.37V691.3C1430.68,694.53,1428.71,696,1426.29,694.61Z"/><path class="cls-25" d="M1423.19,687.39l-101.9-58.84a5.31,5.31,0,0,1-2.22-4.24v-15.5c0-1.64,1-2.39,2.22-1.68L1423.19,666a5.32,5.32,0,0,1,2.22,4.25V685.7C1425.41,687.34,1424.42,688.09,1423.19,687.39Z"/><path class="cls-3" d="M1342.53,633l-15.21-8.78a5.19,5.19,0,0,1-2.16-4.13h0c0-1.58,1-2.32,2.16-1.63l15.21,8.78a5.19,5.19,0,0,1,2.16,4.13h0C1344.69,632.94,1343.72,633.67,1342.53,633Z"/><path class="cls-6" d="M1355.49,637.58c0,1.59-1.12,2.24-2.5,1.44a5.52,5.52,0,0,1-2.49-4.31c0-1.59,1.12-2.24,2.49-1.44A5.49,5.49,0,0,1,1355.49,637.58Z"/><path class="cls-9" d="M1364.28,642.66c0,1.59-1.12,2.23-2.49,1.44a5.52,5.52,0,0,1-2.5-4.32c0-1.59,1.12-2.23,2.5-1.44A5.54,5.54,0,0,1,1364.28,642.66Z"/><path class="cls-3" d="M1373.07,647.74c0,1.59-1.11,2.23-2.49,1.44a5.51,5.51,0,0,1-2.49-4.32c0-1.59,1.11-2.24,2.49-1.44A5.49,5.49,0,0,1,1373.07,647.74Z"/><path class="cls-9" d="M1381.86,652.81c0,1.59-1.11,2.24-2.49,1.44a5.52,5.52,0,0,1-2.49-4.32c0-1.58,1.12-2.23,2.49-1.43A5.48,5.48,0,0,1,1381.86,652.81Z"/><path class="cls-3" d="M1418.91,678.76l-5.13-3a3.33,3.33,0,0,1-1.38-2.65v-5.42c0-1,.62-1.49,1.38-1.05l5.13,3a3.33,3.33,0,0,1,1.38,2.65v5.42C1420.29,678.73,1419.67,679.2,1418.91,678.76Z"/><path class="cls-22" d="M1426.29,731l-108.1-62.41c-2.42-1.4-4.38-5.15-4.38-8.37V639.56c0-3.22,2-4.71,4.38-3.31l108.1,62.42c2.42,1.39,4.39,5.14,4.39,8.37v20.61C1430.68,730.88,1428.71,732.36,1426.29,731Z"/><path class="cls-25" d="M1423.19,723.74l-101.9-58.84a5.3,5.3,0,0,1-2.22-4.24v-15.5c0-1.64,1-2.39,2.22-1.68l101.9,58.83a5.32,5.32,0,0,1,2.22,4.25v15.5C1425.41,723.69,1424.42,724.45,1423.19,723.74Z"/><path class="cls-3" d="M1342.53,669.33l-15.21-8.78a5.17,5.17,0,0,1-2.16-4.12h0c0-1.59,1-2.32,2.16-1.64l15.21,8.78a5.19,5.19,0,0,1,2.16,4.13h0C1344.69,669.29,1343.72,670,1342.53,669.33Z"/><path class="cls-6" d="M1355.49,673.93c0,1.59-1.12,2.24-2.5,1.44a5.5,5.5,0,0,1-2.49-4.31c0-1.59,1.12-2.24,2.49-1.44A5.49,5.49,0,0,1,1355.49,673.93Z"/><path class="cls-6" d="M1364.28,679c0,1.59-1.12,2.23-2.49,1.44a5.51,5.51,0,0,1-2.5-4.32c0-1.59,1.12-2.23,2.5-1.44A5.54,5.54,0,0,1,1364.28,679Z"/><path class="cls-3" d="M1373.07,684.09c0,1.59-1.11,2.23-2.49,1.44a5.51,5.51,0,0,1-2.49-4.32c0-1.59,1.11-2.23,2.49-1.44A5.51,5.51,0,0,1,1373.07,684.09Z"/><path class="cls-6" d="M1381.86,689.16c0,1.59-1.11,2.24-2.49,1.44a5.5,5.5,0,0,1-2.49-4.31c0-1.59,1.12-2.24,2.49-1.44A5.48,5.48,0,0,1,1381.86,689.16Z"/><path class="cls-6" d="M1418.91,715.11l-5.13-3a3.33,3.33,0,0,1-1.38-2.65v-5.42c0-1,.62-1.49,1.38-1l5.13,3a3.33,3.33,0,0,1,1.38,2.65v5.42C1420.29,715.08,1419.67,715.55,1418.91,715.11Z"/><path class="cls-22" d="M1426.29,767.32l-108.1-62.42c-2.42-1.4-4.38-5.15-4.38-8.37V675.91c0-3.22,2-4.7,4.38-3.31L1426.29,735c2.42,1.4,4.39,5.14,4.39,8.37V764C1430.68,767.23,1428.71,768.71,1426.29,767.32Z"/><path class="cls-25" d="M1423.19,760.09l-101.9-58.83a5.32,5.32,0,0,1-2.22-4.25v-15.5c0-1.64,1-2.39,2.22-1.68l101.9,58.83a5.32,5.32,0,0,1,2.22,4.25v15.5C1425.41,760,1424.42,760.8,1423.19,760.09Z"/><path class="cls-3" d="M1342.53,705.68l-15.21-8.78a5.17,5.17,0,0,1-2.16-4.12h0c0-1.59,1-2.32,2.16-1.63l15.21,8.78a5.16,5.16,0,0,1,2.16,4.12h0C1344.69,705.64,1343.72,706.37,1342.53,705.68Z"/><path class="cls-9" d="M1358.27,712.25c0,3-2.11,4.22-4.71,2.72a10.4,10.4,0,0,1-4.71-8.15c0-3,2.11-4.22,4.71-2.72A10.4,10.4,0,0,1,1358.27,712.25Z"/><path class="cls-6" d="M1376.48,722.91c0,1.59-1.12,2.23-2.49,1.44a5.52,5.52,0,0,1-2.5-4.32c0-1.59,1.12-2.23,2.5-1.44A5.54,5.54,0,0,1,1376.48,722.91Z"/><path class="cls-3" d="M1385.27,728c0,1.59-1.12,2.23-2.49,1.44a5.51,5.51,0,0,1-2.49-4.32c0-1.59,1.11-2.24,2.49-1.44A5.52,5.52,0,0,1,1385.27,728Z"/><path class="cls-6" d="M1394.06,733.06c0,1.59-1.11,2.24-2.49,1.44a5.49,5.49,0,0,1-2.49-4.32c0-1.58,1.11-2.23,2.49-1.43A5.48,5.48,0,0,1,1394.06,733.06Z"/><path class="cls-3" d="M1418.91,751.46l-5.13-3a3.33,3.33,0,0,1-1.38-2.65v-5.42c0-1,.62-1.49,1.38-1l5.13,3a3.35,3.35,0,0,1,1.38,2.65v5.42C1420.29,751.43,1419.67,751.9,1418.91,751.46Z"/><path class="cls-22" d="M1246.48,737.74a1.58,1.58,0,0,1-.79-2.94L1267,722.47a7.87,7.87,0,0,0,3.92-6.8V704.39a1.58,1.58,0,0,1,3.15,0v11.28a11,11,0,0,1-5.49,9.52l-21.33,12.34A1.58,1.58,0,0,1,1246.48,737.74Z"/><rect class="cls-22" x="1230.02" y="727.83" width="12.98" height="28.01" transform="translate(1264.95 -699.86) rotate(60.17)"/><path class="cls-22" d="M1253.25,737.53a10.15,10.15,0,0,0-4.57-8c-2.53-1.47-4.59-.29-4.6,2.64a10.18,10.18,0,0,0,4.57,8C1251.18,741.64,1253.24,740.46,1253.25,737.53Z"/><rect class="cls-22" x="1199.04" y="735.33" width="21.03" height="43.93" transform="translate(1264.83 -668.7) rotate(60.17)"/><path class="cls-23" d="M1225.13,740.88l8.23-4.72a16.85,16.85,0,0,1,6.46,11.27l-8.23,4.71A16.83,16.83,0,0,1,1225.13,740.88Z"/><path class="cls-22" d="M1236,750.68a16.41,16.41,0,0,0-7.39-12.9c-4.1-2.38-7.44-.47-7.45,4.27a16.41,16.41,0,0,0,7.4,12.91C1232.69,757.34,1236,755.43,1236,750.68Z"/><path class="cls-3" d="M1245.58,734.53a1.31,1.31,0,0,0,0-2.49,4.75,4.75,0,0,0-4.31,0,1.31,1.31,0,0,0,0,2.48A4.76,4.76,0,0,0,1245.58,734.53Z"/><path class="cls-3" d="M1145,996.36,876.67,841.45c-7.59-4.38-6.63-12,2.13-17.09l182.69-105.45c8.77-5.06,22-5.61,29.62-1.22l268.3,154.9c7.59,4.38,6.64,12-2.13,17.1L1174.59,995.13C1165.82,1000.19,1152.57,1000.74,1145,996.36Z"/><path class="cls-22" d="M1209.75,989a1.66,1.66,0,0,1-.8-.22l-51.34-30.41a1.57,1.57,0,0,1,1.6-2.71l51.34,30.41a1.57,1.57,0,0,1-.8,2.93Z"/><path class="cls-6" d="M1364.53,843.66l-36.68-4.84L1091.11,702.14c-7.59-4.39-20.85-3.84-29.62,1.22L893.74,800.18l-22.18-2.93v12.59h0c-.14,2.91,1.51,5.71,5.09,7.77L1145,972.52c7.59,4.38,20.84,3.83,29.61-1.23l182.69-105.44c4.93-2.85,7.39-6.52,7.25-10h0Z"/><path class="cls-23" d="M1186.64,757.3l-16.82-9.72H984.9l-91.16,52.6-22.18-2.93v12.59h0c-.14,2.91,1.51,5.71,5.09,7.77L1145,972.52c4,2.31,9.6,3.24,15.28,2.86Z"/><path class="cls-22" d="M881.4,798.55l-9.84-1.3v12.59h0c-.14,2.91,1.51,5.71,5.09,7.77l4.73,2.73Z"/><path class="cls-26" d="M1147.68,973.77c7.19,2.73,17.48,2.14,25.16-1.56V944.14h-25.16Z"/><path class="cls-3" d="M1145,960,876.67,805c-7.59-4.38-6.63-12,2.13-17.09l182.69-105.44c8.77-5.06,22-5.61,29.62-1.23l268.3,154.9c7.59,4.38,6.64,12-2.13,17.1L1174.59,958.72C1165.82,963.78,1152.57,964.33,1145,960Z"/><path class="cls-9" d="M1357.28,848.68,1174.59,954.13c-8.77,5.06-22,5.61-29.61,1.22L876.67,800.45a10,10,0,0,1-4.71-5.16c-1.19,3.59.32,7.22,4.71,9.76L1145,960c7.59,4.38,20.84,3.83,29.61-1.23l182.69-105.44c5.89-3.4,8.24-8,6.85-11.94C1363.26,844,1361,846.55,1357.28,848.68Z"/><path class="cls-6" d="M990.79,753.76l-12.14-7c-1-.56-.86-1.54.27-2.19l14.33-8.28a4.23,4.23,0,0,1,3.8-.15l12.14,7c1,.56.85,1.54-.27,2.19l-14.33,8.27A4.23,4.23,0,0,1,990.79,753.76Z"/><path class="cls-6" d="M1009.53,764.59l-12.14-7c-1-.57-.85-1.55.28-2.2l14.33-8.27a4.23,4.23,0,0,1,3.8-.16l12.14,7c1,.56.85,1.55-.27,2.2l-14.33,8.27A4.25,4.25,0,0,1,1009.53,764.59Z"/><path class="cls-6" d="M1028.28,775.41l-12.14-7c-1-.56-.85-1.55.27-2.19l14.33-8.28a4.25,4.25,0,0,1,3.81-.16l12.14,7c1,.57.85,1.55-.28,2.2l-14.33,8.27A4.23,4.23,0,0,1,1028.28,775.41Z"/><path class="cls-6" d="M1054.21,766.47l-12.14-7c-1-.56-.85-1.54.27-2.19l12-6.95a4.23,4.23,0,0,1,3.8-.16l12.14,7c1,.57.86,1.55-.27,2.2l-12,6.94A4.23,4.23,0,0,1,1054.21,766.47Z"/><path class="cls-6" d="M1073,777.29l-12.14-7c-1-.57-.86-1.55.27-2.2l12-6.94a4.23,4.23,0,0,1,3.8-.16l12.14,7c1,.56.85,1.54-.27,2.19l-12,6.95A4.2,4.2,0,0,1,1073,777.29Z"/><path class="cls-6" d="M1091.7,788.12l-12.14-7c-1-.56-.85-1.55.28-2.2l12-6.94a4.23,4.23,0,0,1,3.8-.16l12.14,7c1,.56.85,1.55-.28,2.2l-12,6.94A4.25,4.25,0,0,1,1091.7,788.12Z"/><path class="cls-6" d="M1110.45,798.94l-12.14-7c-1-.56-.85-1.54.27-2.19l12-7a4.22,4.22,0,0,1,3.81-.15l12.14,7c1,.57.85,1.55-.28,2.2l-12,6.94A4.23,4.23,0,0,1,1110.45,798.94Z"/><path class="cls-6" d="M1129.2,809.77l-12.14-7c-1-.57-.85-1.55.27-2.2l12-6.94a4.23,4.23,0,0,1,3.8-.16l12.14,7c1,.56.85,1.54-.27,2.19l-12,7A4.23,4.23,0,0,1,1129.2,809.77Z"/><path class="cls-6" d="M1148,820.59l-12.14-7c-1-.56-.86-1.55.27-2.19l12-6.95a4.23,4.23,0,0,1,3.8-.16l12.14,7c1,.56.85,1.55-.27,2.2l-12,6.94A4.23,4.23,0,0,1,1148,820.59Z"/><path class="cls-6" d="M1166.69,831.41l-12.14-7c-1-.56-.85-1.54.28-2.19l12-7a4.22,4.22,0,0,1,3.81-.15l12.14,7c1,.56.85,1.54-.28,2.19l-12,7A4.22,4.22,0,0,1,1166.69,831.41Z"/><path class="cls-6" d="M1185.44,842.24l-12.14-7c-1-.56-.85-1.55.27-2.2l12-6.94a4.23,4.23,0,0,1,3.8-.16l12.14,7c1,.56.86,1.54-.27,2.19l-12,7A4.23,4.23,0,0,1,1185.44,842.24Z"/><path class="cls-6" d="M1204.19,853.06l-12.14-7c-1-.56-.85-1.54.27-2.19l12-7a4.23,4.23,0,0,1,3.8-.16l12.14,7c1,.57.85,1.55-.27,2.2l-12,6.94A4.23,4.23,0,0,1,1204.19,853.06Z"/><path class="cls-6" d="M1222.93,863.88l-12.14-7c-1-.57-.85-1.55.28-2.2l12-6.94a4.2,4.2,0,0,1,3.8-.16l12.14,7c1,.56.85,1.54-.27,2.19l-12,7A4.22,4.22,0,0,1,1222.93,863.88Z"/><path class="cls-23" d="M1081.83,761.35l-12.14-7c-1-.57-.85-1.55.28-2.2l12-6.94a4.25,4.25,0,0,1,3.81-.16l12.14,7c1,.56.85,1.54-.28,2.19l-12,7A4.23,4.23,0,0,1,1081.83,761.35Z"/><path class="cls-23" d="M1062.81,750.36l-12.14-7c-1-.56-.86-1.54.27-2.19l12-6.95a4.23,4.23,0,0,1,3.8-.16l12.14,7c1,.57.85,1.55-.27,2.2l-12,6.94A4.23,4.23,0,0,1,1062.81,750.36Z"/><path class="cls-6" d="M1043.75,739.36l-26.15-15.1c-1-.56-.85-1.54.27-2.19l12-7a4.22,4.22,0,0,1,3.81-.15l26.14,15.09c1,.56.85,1.55-.27,2.2l-12,6.94A4.23,4.23,0,0,1,1043.75,739.36Z"/><path class="cls-6" d="M1057.07,726l-21.22-12.25c-1-.57-.85-1.55.27-2.2l12-6.94a4.23,4.23,0,0,1,3.8-.16l21.22,12.25c1,.56.86,1.54-.27,2.19l-12,7A4.23,4.23,0,0,1,1057.07,726Z"/><path class="cls-23" d="M1100.58,772.17l-12.14-7c-1-.56-.85-1.54.27-2.19l12-7a4.23,4.23,0,0,1,3.8-.16l12.14,7c1,.57.86,1.55-.27,2.2l-12,6.94A4.23,4.23,0,0,1,1100.58,772.17Z"/><path class="cls-6" d="M1119.33,783l-12.14-7c-1-.57-.86-1.55.27-2.2l12-6.95a4.23,4.23,0,0,1,3.8-.15l12.14,7c1,.56.85,1.54-.27,2.19l-12,7A4.2,4.2,0,0,1,1119.33,783Z"/><path class="cls-6" d="M1138.07,793.82l-12.14-7c-1-.56-.85-1.55.28-2.2l12-6.94a4.23,4.23,0,0,1,3.8-.16l12.14,7c1,.56.85,1.55-.27,2.2l-12,6.94A4.25,4.25,0,0,1,1138.07,793.82Z"/><path class="cls-6" d="M1156.82,804.64l-12.14-7c-1-.56-.85-1.54.27-2.19l12-7a4.25,4.25,0,0,1,3.81-.16l12.14,7c1,.57.85,1.55-.28,2.2l-12,6.94A4.23,4.23,0,0,1,1156.82,804.64Z"/><path class="cls-6" d="M1175.57,815.47l-12.14-7c-1-.57-.85-1.55.27-2.2l12-6.94a4.23,4.23,0,0,1,3.8-.16l12.14,7c1,.56.86,1.54-.27,2.19l-12,6.95A4.23,4.23,0,0,1,1175.57,815.47Z"/><path class="cls-6" d="M1194.32,826.29l-12.14-7c-1-.56-.86-1.55.27-2.2l12-6.94a4.23,4.23,0,0,1,3.8-.16l12.14,7c1,.56.85,1.55-.27,2.2l-12,6.94A4.23,4.23,0,0,1,1194.32,826.29Z"/><path class="cls-6" d="M1213.06,837.11l-12.14-7c-1-.56-.85-1.54.28-2.19l12-6.95a4.22,4.22,0,0,1,3.81-.15l12.14,7c1,.57.85,1.55-.28,2.2l-12,6.94A4.22,4.22,0,0,1,1213.06,837.11Z"/><path class="cls-6" d="M1231.81,847.94l-12.14-7c-1-.57-.85-1.55.27-2.2l12-6.94a4.23,4.23,0,0,1,3.8-.16l12.14,7c1,.56.86,1.54-.27,2.19l-12,6.95A4.23,4.23,0,0,1,1231.81,847.94Z"/><path class="cls-6" d="M1250.56,858.76l-12.14-7c-1-.56-.85-1.54.27-2.19l12-6.95a4.23,4.23,0,0,1,3.8-.16l12.14,7c1,.56.85,1.55-.27,2.2l-12,6.94A4.23,4.23,0,0,1,1250.56,858.76Z"/><path class="cls-6" d="M1283.89,878l-26.49-15.29c-1-.56-.85-1.55.27-2.2l12-6.94a4.23,4.23,0,0,1,3.8-.16L1300,868.7c1,.57.85,1.55-.27,2.2l-12,6.94A4.23,4.23,0,0,1,1283.89,878Z"/><path class="cls-6" d="M1320.38,856.93,1298,844c-1-.56-.85-1.54.27-2.19l12-7a4.23,4.23,0,0,1,3.8-.16l22.36,12.91c1,.56.85,1.55-.27,2.2l-12,6.94A4.25,4.25,0,0,1,1320.38,856.93Z"/><path class="cls-6" d="M1133.41,770.05l-12.14-7c-1-.56-.85-1.54.27-2.19l12-7a4.2,4.2,0,0,1,3.8-.15l12.14,7c1,.57.86,1.55-.27,2.2l-12,6.94A4.2,4.2,0,0,1,1133.41,770.05Z"/><path class="cls-6" d="M1114.2,759l-12.14-7c-1-.56-.86-1.54.27-2.19l12-7a4.23,4.23,0,0,1,3.8-.16l12.14,7c1,.56.85,1.55-.27,2.2l-12,6.94A4.23,4.23,0,0,1,1114.2,759Z"/><path class="cls-23" d="M1095,747.87l-12.14-7c-1-.57-.85-1.55.28-2.2l12-6.94a4.25,4.25,0,0,1,3.81-.16l12.14,7c1,.56.85,1.54-.28,2.19l-12,7A4.25,4.25,0,0,1,1095,747.87Z"/><path class="cls-6" d="M1075.77,736.77l-12.14-7c-1-.56-.85-1.54.27-2.19l12-7a4.2,4.2,0,0,1,3.8-.15l12.14,7c1,.56.86,1.54-.27,2.19l-12,7A4.2,4.2,0,0,1,1075.77,736.77Z"/><path class="cls-6" d="M1152.16,780.88l-12.14-7c-1-.57-.85-1.55.27-2.2l12-6.94a4.23,4.23,0,0,1,3.8-.16l12.14,7c1,.56.85,1.54-.27,2.19l-12,7A4.23,4.23,0,0,1,1152.16,780.88Z"/><path class="cls-6" d="M1170.9,791.7l-12.14-7c-1-.56-.85-1.54.28-2.19l12-7a4.23,4.23,0,0,1,3.8-.16l12.14,7c1,.56.85,1.55-.27,2.2l-12,6.94A4.25,4.25,0,0,1,1170.9,791.7Z"/><path class="cls-6" d="M1189.65,802.52l-12.14-7c-1-.56-.85-1.54.28-2.19l12-7a4.22,4.22,0,0,1,3.81-.15l12.14,7c1,.56.85,1.54-.28,2.19l-12,7A4.2,4.2,0,0,1,1189.65,802.52Z"/><path class="cls-6" d="M1208.4,813.35l-12.14-7c-1-.56-.85-1.55.27-2.2l12-6.94a4.23,4.23,0,0,1,3.8-.16l12.14,7c1,.56.86,1.55-.27,2.2l-12,6.94A4.23,4.23,0,0,1,1208.4,813.35Z"/><path class="cls-6" d="M1227.15,824.17l-12.14-7c-1-.56-.86-1.54.27-2.19l12-7a4.23,4.23,0,0,1,3.8-.16l12.14,7c1,.57.85,1.55-.27,2.2L1231,824A4.23,4.23,0,0,1,1227.15,824.17Z"/><path class="cls-6" d="M1245.89,835l-12.14-7c-1-.57-.85-1.55.28-2.2l12-6.94a4.25,4.25,0,0,1,3.81-.16l12.14,7c1,.56.85,1.54-.28,2.19l-12,7A4.22,4.22,0,0,1,1245.89,835Z"/><path class="cls-6" d="M1264.64,845.82l-12.14-7c-1-.56-.85-1.55.27-2.2l12-6.94a4.23,4.23,0,0,1,3.8-.16l12.14,7c1,.56.86,1.55-.27,2.2l-12,6.94A4.23,4.23,0,0,1,1264.64,845.82Z"/><path class="cls-6" d="M1283.39,856.64l-12.14-7c-1-.56-.85-1.54.27-2.19l12-7a4.2,4.2,0,0,1,3.8-.15l12.14,7c1,.57.85,1.55-.27,2.2l-12,6.94A4.23,4.23,0,0,1,1283.39,856.64Z"/><path class="cls-6" d="M1302.13,867.47l-12.13-7c-1-.57-.86-1.55.27-2.2l12-6.94a4.23,4.23,0,0,1,3.8-.16l12.14,7c1,.56.85,1.54-.27,2.19l-12,6.95A4.25,4.25,0,0,1,1302.13,867.47Z"/><path class="cls-6" d="M1123.54,743.28l-12.14-7c-1-.56-.85-1.54.27-2.19l12-7a4.23,4.23,0,0,1,3.8-.16l12.14,7c1,.57.86,1.55-.27,2.2l-12,6.94A4.23,4.23,0,0,1,1123.54,743.28Z"/><path class="cls-6" d="M1104.88,732.51l-12.14-7c-1-.56-.85-1.54.28-2.19l12-6.95a4.23,4.23,0,0,1,3.8-.16l12.14,7c1,.57.85,1.55-.27,2.2l-12,6.94A4.25,4.25,0,0,1,1104.88,732.51Z"/><path class="cls-6" d="M1086.23,721.74l-12.14-7c-1-.56-.85-1.54.27-2.19l12-6.95a4.23,4.23,0,0,1,3.8-.16l12.14,7c1,.57.86,1.55-.27,2.2l-12,6.94A4.23,4.23,0,0,1,1086.23,721.74Z"/><path class="cls-6" d="M1067.58,711l-12.14-7c-1-.56-.86-1.54.27-2.19l12-6.95a4.23,4.23,0,0,1,3.8-.16l12.14,7c1,.57.85,1.55-.27,2.2l-12,6.94A4.23,4.23,0,0,1,1067.58,711Z"/><path class="cls-6" d="M1086.76,699.9l-12.14-7c-1-.57-.85-1.55.27-2.2l4-2.29a4.23,4.23,0,0,1,3.8-.16l12.14,7c1,.56.85,1.54-.27,2.19l-4,2.3A4.23,4.23,0,0,1,1086.76,699.9Z"/><path class="cls-6" d="M1111.1,714l-12.14-7c-1-.56-.85-1.54.28-2.19l4-2.3a4.23,4.23,0,0,1,3.8-.16l12.14,7c1,.56.86,1.55-.27,2.2l-4,2.29A4.23,4.23,0,0,1,1111.1,714Z"/><path class="cls-6" d="M1129.68,724.68l-12.14-7c-1-.57-.85-1.55.27-2.2l4-2.29a4.23,4.23,0,0,1,3.8-.16l12.14,7c1,.56.85,1.54-.27,2.19l-4,2.3A4.23,4.23,0,0,1,1129.68,724.68Z"/><path class="cls-6" d="M1148.25,735.4l-12.14-7c-1-.56-.85-1.54.28-2.19l4-2.3a4.25,4.25,0,0,1,3.81-.16l12.14,7c1,.56.85,1.55-.28,2.2l-4,2.29A4.25,4.25,0,0,1,1148.25,735.4Z"/><path class="cls-6" d="M1166.83,746.13l-12.14-7c-1-.57-.85-1.55.27-2.2l4-2.29a4.23,4.23,0,0,1,3.8-.16l12.14,7c1,.56.86,1.54-.27,2.19l-4,2.3A4.23,4.23,0,0,1,1166.83,746.13Z"/><path class="cls-6" d="M1270.54,806l-12.14-7c-1-.56-.85-1.54.27-2.19l4-2.3a4.23,4.23,0,0,1,3.8-.16l12.14,7c1,.57.85,1.55-.27,2.2l-4,2.29A4.23,4.23,0,0,1,1270.54,806Z"/><path class="cls-6" d="M1289.11,816.73l-12.13-7c-1-.56-.86-1.55.27-2.2l4-2.29a4.25,4.25,0,0,1,3.81-.16l12.14,7c1,.56.85,1.54-.28,2.19l-4,2.3A4.25,4.25,0,0,1,1289.11,816.73Z"/><path class="cls-6" d="M1307.69,827.45l-12.14-7c-1-.56-.85-1.54.27-2.19l4-2.3a4.23,4.23,0,0,1,3.8-.16l12.14,7c1,.57.86,1.55-.27,2.2l-4,2.29A4.23,4.23,0,0,1,1307.69,827.45Z"/><path class="cls-6" d="M1326.27,838.18l-12.14-7c-1-.56-.85-1.55.27-2.2l4-2.29a4.23,4.23,0,0,1,3.8-.16l12.14,7c1,.56.85,1.54-.27,2.19l-4,2.3A4.23,4.23,0,0,1,1326.27,838.18Z"/><path class="cls-6" d="M1142.29,754.1l-12.14-7c-1-.57-.86-1.55.27-2.2l12-6.94a4.23,4.23,0,0,1,3.8-.16l12.14,7c1,.56.85,1.54-.27,2.19l-12,7A4.2,4.2,0,0,1,1142.29,754.1Z"/><path class="cls-6" d="M1161,764.93l-12.14-7c-1-.56-.85-1.55.28-2.2l12-6.94a4.25,4.25,0,0,1,3.81-.16l12.14,7c1,.56.85,1.55-.28,2.2l-12,6.94A4.25,4.25,0,0,1,1161,764.93Z"/><path class="cls-6" d="M1179.78,775.75l-12.14-7c-1-.56-.85-1.54.27-2.19l12-6.95a4.2,4.2,0,0,1,3.8-.15l12.14,7c1,.57.86,1.55-.27,2.2l-12,6.94A4.23,4.23,0,0,1,1179.78,775.75Z"/><path class="cls-6" d="M1198.53,786.58l-12.14-7c-1-.57-.85-1.55.27-2.2l12-6.94a4.23,4.23,0,0,1,3.8-.16l12.14,7c1,.56.85,1.54-.27,2.19l-12,6.95A4.23,4.23,0,0,1,1198.53,786.58Z"/><path class="cls-6" d="M1217.27,797.4l-12.14-7c-1-.56-.85-1.55.28-2.19l12-7a4.23,4.23,0,0,1,3.8-.16l12.14,7c1,.56.85,1.55-.27,2.2l-12,6.94A4.25,4.25,0,0,1,1217.27,797.4Z"/><path class="cls-6" d="M1236,808.22l-12.14-7c-1-.56-.85-1.54.28-2.19l12-6.95a4.22,4.22,0,0,1,3.81-.15l12.14,7c1,.56.85,1.54-.28,2.19l-12,7A4.2,4.2,0,0,1,1236,808.22Z"/><path class="cls-6" d="M1254.77,819.05l-12.14-7c-1-.56-.85-1.55.27-2.2l12-6.94a4.23,4.23,0,0,1,3.8-.16l12.14,7c1,.56.86,1.54-.27,2.19l-12,6.95A4.23,4.23,0,0,1,1254.77,819.05Z"/><path class="cls-6" d="M1273.52,829.87l-12.14-7c-1-.56-.86-1.54.27-2.19l12-6.95a4.23,4.23,0,0,1,3.8-.16l12.14,7c1,.57.85,1.55-.27,2.2l-12,6.94A4.23,4.23,0,0,1,1273.52,829.87Z"/><path class="cls-6" d="M1292.26,840.69l-12.14-7c-1-.57-.85-1.55.28-2.2l12-6.94a4.2,4.2,0,0,1,3.8-.16l12.14,7c1,.56.85,1.54-.28,2.19l-12,6.95A4.22,4.22,0,0,1,1292.26,840.69Z"/><path class="cls-6" d="M1035.1,755.44,999.35,734.8c-1-.56-.85-1.55.28-2.2l12-6.94a4.25,4.25,0,0,1,3.81-.16l35.75,20.64c1,.57.85,1.55-.27,2.2l-12,6.94A4.25,4.25,0,0,1,1035.1,755.44Z"/><path class="cls-6" d="M1265.42,888.41l-35.75-20.64c-1-.56-.86-1.54.27-2.19l12-7a4.23,4.23,0,0,1,3.8-.16l35.75,20.65c1,.56.86,1.54-.27,2.19l-12,6.94A4.2,4.2,0,0,1,1265.42,888.41Z"/><path class="cls-6" d="M1190.45,869l-12.14-7c-1-.57-.86-1.55.27-2.2l14.33-8.27a4.23,4.23,0,0,1,3.8-.16l12.14,7c1,.56.85,1.55-.27,2.2l-14.33,8.27A4.23,4.23,0,0,1,1190.45,869Z"/><path class="cls-6" d="M1054.3,790.43l-19.41-11.21c-1-.56-.85-1.54.27-2.19l14.33-8.27a4.23,4.23,0,0,1,3.8-.16l19.42,11.21c1,.56.85,1.54-.27,2.19l-14.33,8.28A4.22,4.22,0,0,1,1054.3,790.43Z"/><path class="cls-6" d="M1172.38,858.61,1153,847.4c-1-.57-.85-1.55.27-2.2l14.33-8.27a4.23,4.23,0,0,1,3.8-.16L1190.79,848c1,.56.85,1.55-.28,2.2l-14.32,8.27A4.25,4.25,0,0,1,1172.38,858.61Z"/><path class="cls-6" d="M1081.35,806.05l-19.41-11.21c-1-.56-.86-1.55.27-2.19l14.33-8.28a4.23,4.23,0,0,1,3.8-.16l19.42,11.21c1,.57.85,1.55-.28,2.2l-14.33,8.27A4.23,4.23,0,0,1,1081.35,806.05Z"/><path class="cls-6" d="M1080.47,784.29,1164.88,833a1.16,1.16,0,0,1,0,2.19l-14.61,8.44a4.15,4.15,0,0,1-3.79,0l-84.41-48.73Z"/><path class="cls-6" d="M1242.84,888.66l13.52,7.81c.8.46.7,1.26-.22,1.8l-5.86,3.38a3.48,3.48,0,0,1-3.12.13L1233.64,894c-.8-.46-.7-1.26.22-1.8l5.86-3.38A3.48,3.48,0,0,1,1242.84,888.66Z"/><path class="cls-6" d="M1223.94,877.75l13.52,7.8c.8.47.7,1.27-.22,1.8l-5.86,3.39a3.48,3.48,0,0,1-3.12.13l-13.52-7.81c-.8-.46-.7-1.27.22-1.8l5.86-3.38A3.45,3.45,0,0,1,1223.94,877.75Z"/><path class="cls-6" d="M1205.19,866.92l13.52,7.81c.8.46.7,1.27-.22,1.8l-5.86,3.38a3.45,3.45,0,0,1-3.12.13l-13.52-7.8c-.8-.47-.7-1.27.22-1.8l5.86-3.39A3.48,3.48,0,0,1,1205.19,866.92Z"/><path class="cls-6" d="M1234.29,871.77l13.52,7.81c.8.46.7,1.26-.22,1.8l-5.86,3.38a3.48,3.48,0,0,1-3.12.13l-13.52-7.81c-.8-.46-.7-1.26.22-1.8l5.86-3.38A3.48,3.48,0,0,1,1234.29,871.77Z"/><path class="cls-22" d="M1075.21,901.65a11.43,11.43,0,0,1-5.65-1.32h0l-93.71-54.1a4.78,4.78,0,0,1-2.69-4.1c0-1.87,1.28-3.68,3.5-5l62-35.82c3.8-2.2,9.41-2.4,12.76-.47l93.71,54.1a4.77,4.77,0,0,1,2.68,4.11c0,1.87-1.27,3.67-3.5,4.95l-62,35.82A14.52,14.52,0,0,1,1075.21,901.65Zm-4.19-3.86c2.45,1.42,7,1.2,9.84-.47l62-35.81c1.28-.74,2-1.64,2-2.42s-.77-1.31-1.23-1.57l-93.7-54.1c-2.45-1.41-7-1.2-9.84.47l-62,35.81c-1.28.74-2,1.64-2,2.43s.77,1.3,1.23,1.57l93.7,54.09Z"/><path class="cls-9" d="M1053.56,842.71l9.19-5.14a3.77,3.77,0,0,1,3.33.15h0c1,.57,1.09,1.41.24,1.89l-9.19,5.15a3.79,3.79,0,0,1-3.32-.16h0C1052.82,844,1052.71,843.19,1053.56,842.71Z"/><path class="cls-9" d="M1034.06,853.64l13.54-7.59a3.74,3.74,0,0,1,3.33.16h0c1,.56,1.1,1.41.24,1.89l-13.54,7.58a3.77,3.77,0,0,1-3.33-.15h0C1033.32,855,1033.21,854.12,1034.06,853.64Z"/><path class="cls-9" d="M1084,859.59l17.53-9.83a3.79,3.79,0,0,1,3.32.16h0c1,.57,1.1,1.41.25,1.89l-17.53,9.82a3.74,3.74,0,0,1-3.33-.16h0C1083.21,860.91,1083.1,860.06,1084,859.59Z"/><path class="cls-9" d="M1080.79,844.41l5.74-3.22a3.81,3.81,0,0,1,3.33.16h0c1,.57,1.09,1.41.24,1.89l-5.74,3.21a3.77,3.77,0,0,1-3.33-.15h0C1080.05,845.73,1079.94,844.89,1080.79,844.41Z"/><path class="cls-9" d="M1067.89,834.69l3.68-2.07a3.81,3.81,0,0,1,3.33.16h0c1,.57,1.09,1.41.24,1.89l-3.68,2.06a3.74,3.74,0,0,1-3.33-.16h0C1067.14,836,1067,835.16,1067.89,834.69Z"/><path class="cls-9" d="M1052,826.61l4.57-2.56a3.81,3.81,0,0,1,3.33.16h0c1,.57,1.1,1.41.24,1.89l-4.57,2.56a3.74,3.74,0,0,1-3.33-.16h0C1051.3,827.94,1051.19,827.09,1052,826.61Z"/><path class="cls-9" d="M1034.25,836.58l12.06-6.75a3.72,3.72,0,0,1,3.32.16h0c1,.56,1.1,1.41.24,1.88l-12,6.76a3.74,3.74,0,0,1-3.33-.16h0C1033.5,837.91,1033.39,837.06,1034.25,836.58Z"/><path class="cls-9" d="M1040.46,824.62l8.67-4.85a3.74,3.74,0,0,1,3.33.16h0c1,.56,1.1,1.41.24,1.88l-8.67,4.86a3.72,3.72,0,0,1-3.32-.16h0C1039.72,826,1039.61,825.1,1040.46,824.62Z"/><path class="cls-9" d="M1059.45,856.37l15.32-8.59a3.74,3.74,0,0,1,3.33.16h0c1,.56,1.1,1.41.24,1.89L1063,858.41a3.74,3.74,0,0,1-3.33-.16h0C1058.71,857.69,1058.6,856.84,1059.45,856.37Z"/><path class="cls-9" d="M1067.3,860.44l26.71-15a3.74,3.74,0,0,1,3.33.16h0c1,.56,1.09,1.41.24,1.88l-26.71,15a3.78,3.78,0,0,1-3.33-.16h0C1066.56,861.76,1066.45,860.92,1067.3,860.44Z"/><path class="cls-9" d="M1063.73,845.49l15.32-8.58a3.74,3.74,0,0,1,3.33.16h0c1,.56,1.09,1.41.24,1.88l-15.32,8.59a3.74,3.74,0,0,1-3.33-.16h0C1063,846.82,1062.87,846,1063.73,845.49Z"/><path class="cls-9" d="M1047.83,862.88l5.56-3.12a3.74,3.74,0,0,1,3.33.16h0c1,.56,1.1,1.41.24,1.88l-5.56,3.12a3.74,3.74,0,0,1-3.33-.16h0C1047.08,864.2,1047,863.35,1047.83,862.88Z"/><path class="cls-9" d="M1045.67,838.66l18.42-10.32a3.74,3.74,0,0,1,3.33.16h0c1,.56,1.09,1.41.24,1.88l-18.42,10.32a3.77,3.77,0,0,1-3.33-.15h0C1044.93,840,1044.82,839.14,1045.67,838.66Z"/><path class="cls-22" d="M1319.15,730.89a11.87,11.87,0,0,1-6-1.6l-82.65-47.85a8.34,8.34,0,0,1-.14-14.35l22.87-13.85a1.58,1.58,0,0,1,1.63,2.7L1232,669.78a5.2,5.2,0,0,0,.09,8.94l82.65,47.85a8.74,8.74,0,0,0,8.94-.11l28.46-17.39a1.57,1.57,0,1,1,1.64,2.68l-28.46,17.39A11.81,11.81,0,0,1,1319.15,730.89Z"/><polygon class="cls-3" points="1106.92 636.92 1073.97 617.89 1041.02 636.92 1073.97 655.94 1106.92 636.92"/><polygon class="cls-14" points="1083.55 611.67 1083.55 493.18 1111.54 477.02 1111.54 595.51 1083.55 611.67"/><polygon class="cls-11" points="1083.55 493.18 1055.57 477.02 1055.57 595.51 1083.55 611.67 1083.55 493.18"/><polygon class="cls-8" points="1111.54 477.02 1083.55 460.86 1055.57 477.02 1083.55 493.18 1111.54 477.02"/><polygon class="cls-15" points="1111.54 617.06 1083.55 600.9 1083.55 611.67 1111.54 627.83 1111.54 617.06"/><polygon class="cls-16" points="1055.57 627.83 1055.57 541.65 1083.55 525.49 1083.55 611.67 1055.57 627.83"/><polygon class="cls-17" points="1055.57 541.65 1027.58 525.49 1027.58 611.67 1055.57 627.83 1055.57 541.65"/><polygon class="cls-18" points="1083.55 525.49 1055.57 509.33 1027.58 525.49 1055.57 541.65 1083.55 525.49"/><polygon class="cls-19" points="1055.57 627.83 1055.57 541.65 1083.55 525.49 1083.55 611.67 1055.57 627.83"/><polygon class="cls-19" points="1055.57 541.65 1027.58 525.49 1027.58 611.67 1055.57 627.83 1055.57 541.65"/><polygon class="cls-1" points="1083.55 525.49 1055.57 509.33 1027.58 525.49 1055.57 541.65 1083.55 525.49"/><polygon class="cls-20" points="1083.55 643.99 1083.55 595.51 1111.54 579.35 1111.54 627.83 1083.55 643.99"/><polygon class="cls-21" points="1083.55 595.51 1055.57 579.35 1055.57 627.83 1083.55 643.99 1083.55 595.51"/><polygon class="cls-4" points="1111.54 579.35 1083.55 563.2 1055.57 579.35 1083.55 595.51 1111.54 579.35"/><path class="cls-6" d="M1370.47,534.34s-5.71-2.88-9.22,1.41-8.52,14.42-8.68,21.26,5.42,6.38,8.73,4.76,13-15.65,13.57-18.4-.69-6.47-1.62-7.19S1370.47,534.34,1370.47,534.34Z"/><path class="cls-3" d="M1371.72,533l.26,5.92a3.34,3.34,0,0,1-1.67,3.08,6.6,6.6,0,0,1-4.41.69c-4.3-.7-4.68-1.92-5-7.84S1371.72,533,1371.72,533Z"/><path class="cls-6" d="M1349.56,523s-5.71-2.88-9.22,1.41-8.52,14.42-8.68,21.26,5.42,6.38,8.73,4.76,13-15.65,13.57-18.4-.69-6.47-1.62-7.19S1349.56,523,1349.56,523Z"/><path class="cls-3" d="M1350.81,521.59l.26,5.91a3.34,3.34,0,0,1-1.67,3.08,6.58,6.58,0,0,1-4.4.69c-4.31-.69-4.69-1.92-5-7.84S1350.81,521.59,1350.81,521.59Z"/><path class="cls-4" d="M1401.78,412.94c-1.69-27.51-29.79,4-29.79,4l-19.23,18.85-17.32,19a17,17,0,0,0-4.3,13.71l7,53.35a5.24,5.24,0,0,0,5.26,4.55,17.27,17.27,0,0,0,2.59-.22,6.53,6.53,0,0,0,5.79-6.92l-1.28-49.89,36.37-21.93S1403.47,440.44,1401.78,412.94Z"/><path class="cls-4" d="M1422.69,423.42c-1.69-27.51-29.79,4-29.79,4l-19.23,18.85-17.32,19a17,17,0,0,0-4.3,13.71l7,53.35a5.25,5.25,0,0,0,5.26,4.56,18.85,18.85,0,0,0,2.59-.23,6.53,6.53,0,0,0,5.79-6.92l-1.28-49.89L1407.78,458S1424.38,450.92,1422.69,423.42Z"/><path class="cls-2" d="M1406.06,335.11c21.31,8.84,20.88,21.43,20.88,21.43s-4.17,46.17-2.75,77c.6,12.89-68.48,13.87-58.18-20.51,12.15-40.55,7.6-73.37,13.28-78.32S1400.55,332.83,1406.06,335.11Z"/><path class="cls-7" d="M1412.92,346.28c-1.12,4.33-6.78,6.61-12.66,5.09s-9.74-6.25-8.62-10.57,6.78-6.61,12.66-5.09S1414,342,1412.92,346.28Z"/><path class="cls-9" d="M1403.9,352.86a15.85,15.85,0,0,1-3.89-.5,14.16,14.16,0,0,1-7.47-4.58,8.13,8.13,0,0,1-1.89-7.23c1.26-4.87,7.49-7.48,13.9-5.83a14.2,14.2,0,0,1,7.47,4.58,7.71,7.71,0,0,1-3.26,12.66A13,13,0,0,1,1403.9,352.86Zm-3.25-16.6c-4,0-7.26,1.84-8,4.79a6.2,6.2,0,0,0,1.5,5.45,12.9,12.9,0,0,0,13.88,3.57,6.15,6.15,0,0,0,3.93-4h0a6.16,6.16,0,0,0-1.49-5.45,12.15,12.15,0,0,0-6.4-3.89A13.94,13.94,0,0,0,1400.65,336.26Z"/><path class="cls-7" d="M1397.52,334.15s.19.86-.18,7.61c-.12,2.12,7.31,4.1,9.23,2.18s1.16-3.92,1.62-11.14S1397.52,334.15,1397.52,334.15Z"/><path class="cls-10" d="M1408.19,332.8s-1.83,6.7-10.85,9.27l.13-6.09Z"/><circle class="cls-7" cx="1398.03" cy="319.89" r="16.4" transform="translate(10.45 682.44) rotate(-27.53)"/><path class="cls-10" d="M1401.79,320.49s-9,3.87-15.28,3.91-4.87-5.19-4.87-5.19l18.56-2.68Z"/><path class="cls-1" d="M1384.65,321.51s7.86-3.34,14.76-1.95a7.26,7.26,0,0,1,4.17,2.48,2.56,2.56,0,0,0,1.26.92c1.23.27,3.23-4.8,5.61-4.92s4,1.57,2,4.69-1.29,6.62-.39,7.12,10.41-6.79,2-23.42-29.72-7.67-33-4.3c0,0-3.5,3-6.34.33C1374.72,302.46,1371.54,326.32,1384.65,321.51Z"/><path class="cls-7" d="M1415,390.27v12.48a5.07,5.07,0,0,1-1.66,3.75l-25.63,23.37,2.92,4.45,33.84-22.16a6.87,6.87,0,0,0,2.8-4.85l2.29-24.14Z"/><path class="cls-2" d="M1425.14,350.3s7.77,11.69,10.67,42.47c0,0-13.28,4.3-20.82,1.86S1425.14,350.3,1425.14,350.3Z"/><path class="cls-5" d="M1413.57,365.09s-3,16.29-3.22,23.94a4.89,4.89,0,0,0,3.22,4.72h0Z"/><path class="cls-6" d="M1406.92,446.09l-5.66-.75-36.57-21.11a5.07,5.07,0,0,0-4.57.19l-25.91,14.95-3.42-.45v3.41h0a1.33,1.33,0,0,0,.79,1.2L1373,467.45a5.06,5.06,0,0,0,4.58-.19L1405.8,451a1.86,1.86,0,0,0,1.12-1.54h0Z"/><path class="cls-23" d="M1379.45,432.75l-2.6-1.5h-28.56l-14.08,8.12-3.42-.45v3.41h0a1.33,1.33,0,0,0,.79,1.2L1373,467.45a4.35,4.35,0,0,0,2.36.45Z"/><path class="cls-22" d="M1332.31,439.12l-1.52-.2v3.41h0a1.33,1.33,0,0,0,.79,1.2l.73.42Z"/><path class="cls-26" d="M1373.43,467.65a5.33,5.33,0,0,0,3.89-.24v-5.8h-3.89Z"/><path class="cls-9" d="M1373,464.05l-41.43-23.93c-1.18-.67-1-1.86.33-2.64l28.21-16.28a5.07,5.07,0,0,1,4.57-.19l41.44,23.92c1.17.68,1,1.86-.33,2.64l-28.21,16.29A5.12,5.12,0,0,1,1373,464.05Z"/><path class="cls-3" d="M1372.31,460.42l-34.45-19.89c-1-.57-.85-1.55.27-2.2l15.12-8.5a4.23,4.23,0,0,1,3.8-.16l34.46,19.89c1,.57.85,1.55-.27,2.2l-15.12,8.5A4.25,4.25,0,0,1,1372.31,460.42Z"/><path class="cls-7" d="M1361.72,420.41l-.43,2.86a21.23,21.23,0,0,0,.19,7.33l.51,2.52a3.53,3.53,0,0,0,2.84,2.78h0a2,2,0,0,0,2.29-1.7l.69-6.11s1.56,2.05,2.31,2.05-.84-6.12-2.55-9.59S1361.72,420.41,1361.72,420.41Z"/><path class="cls-7" d="M1375.77,375l-4.45,8.8a17.28,17.28,0,0,0-1.82,6.68l-1.93,30.1-5.85-.14-2.65-33.8a12.65,12.65,0,0,1,.15-3.13l3-17.14Z"/><path class="cls-6" d="M1371.61,466.34l-3.47-4.53-36.54-21.16a5.07,5.07,0,0,1-2.12-4l0-29.92-2.1-2.74,2-1.14h0a1.34,1.34,0,0,1,1.43.08l41.41,24a5.07,5.07,0,0,1,2.12,4.05l0,32.58a1.86,1.86,0,0,1-.77,1.74h0Z"/><path class="cls-23" d="M1346.34,449.19l-2.59-1.5-14.25-24.75V406.68l-2.1-2.74,2-1.14h0a1.34,1.34,0,0,1,1.43.08l41.41,24a4.23,4.23,0,0,1,1.56,1.82Z"/><path class="cls-22" d="M1328.34,405.16l-.93-1.22,2-1.14h0a1.34,1.34,0,0,1,1.43.08l.73.42Z"/><path class="cls-26" d="M1372.6,427.12a5.28,5.28,0,0,1,1.73,3.49l-4,2.33-1.94-3.36Z"/><path class="cls-9" d="M1370.26,428l-41.41-24c-1.17-.67-2.12,0-2.13,1.61l0,32.57a5.09,5.09,0,0,0,2.12,4.06l41.4,24c1.18.67,2.13,0,2.13-1.61l0-32.57A5.05,5.05,0,0,0,1370.26,428Z"/><path class="cls-7" d="M1390.62,434.32l-.67,1.37a9.11,9.11,0,0,1-3.46,3.84l-4.11,2.53a4.09,4.09,0,0,1-4.2.1l-.14-.08a2.47,2.47,0,0,1-.35-3.8l4.3-4.42s-2.42,1.85-3.09,1.1c-.5-.54,2.34-3.21,4.52-3.3a8.51,8.51,0,0,0,4.28-1.79Z"/><path class="cls-2" d="M1379.72,334.64s-15.76,17.15-22.11,32.87c0,0,5.38,9.71,18.57,13.52S1379.72,334.64,1379.72,334.64Z"/><path class="cls-5" d="M1373.22,380l2.55-24.67-6,23.12A31.79,31.79,0,0,0,1373.22,380Z"/><path class="cls-9" d="M1391.52,331.18l-4.23-1.16s2,3.18,5,4,3.41-1.69,3.41-1.69Z"/><path class="cls-3" d="M921.64,738.27,874.35,711c-2.9-1.67-2.53-4.6.82-6.54l45.65-26.35c3.35-1.94,8.42-2.15,11.32-.47l47.28,27.29c2.91,1.68,2.54,4.61-.81,6.54L933,737.8C929.61,739.73,924.54,739.94,921.64,738.27Z"/><path class="cls-23" d="M995.11,684.11h0V663.68l-45.81,0-15.83-9.14c-3.64-2.1-10-1.84-14.18.58l-14.77,8.53-45.85,0v21c-.1,1.42.69,2.79,2.43,3.8l59.21,34.18c3.64,2.1,10,1.83,14.18-.59l57.17-33C994.08,687.61,995.25,685.8,995.11,684.11Z"/><path class="cls-23" d="M926.89,653.11a16.52,16.52,0,0,0-7.6,2l-14.77,8.53-45.85,0v21c-.1,1.42.69,2.79,2.43,3.8l59.21,34.18a12.82,12.82,0,0,0,6.58,1.4Z"/><path class="cls-22" d="M863.86,663.61h-5.19v21c-.1,1.42.69,2.79,2.43,3.8l2.76,1.59Z"/><path class="cls-22" d="M921.22,723.05a16.23,16.23,0,0,0,11.34-.13V699.06H921.22Z"/><path class="cls-3" d="M920.31,701.66,861.1,667.48c-3.63-2.1-3.17-5.76,1-8.18l57.17-33c4.2-2.42,10.54-2.69,14.18-.59l59.21,34.19c3.63,2.09,3.17,5.76-1,8.18l-57.17,33C930.29,703.5,924,703.76,920.31,701.66Z"/><path class="cls-22" d="M921.38,695.51l-49.62-28.64c-3-1.76-2.66-4.83.85-6.86l47.91-27.66c3.52-2,8.84-2.25,11.88-.5L982,660.5c3,1.76,2.66,4.83-.85,6.86L933.26,695C929.74,697.05,924.42,697.27,921.38,695.51Z"/><path class="cls-3" d="M973.33,689.5a5.3,5.3,0,0,1-2.39,4.15c-1.32.76-2.39.14-2.39-1.39a5.3,5.3,0,0,1,2.39-4.14C972.26,687.36,973.33,688,973.33,689.5Z"/><path class="cls-3" d="M981,685.06a5.27,5.27,0,0,1-2.39,4.14c-1.33.77-2.4.15-2.4-1.38a5.27,5.27,0,0,1,2.4-4.14C980,682.92,981,683.54,981,685.06Z"/><path class="cls-3" d="M988.72,680.62a5.29,5.29,0,0,1-2.39,4.14c-1.32.76-2.39.15-2.39-1.38a5.29,5.29,0,0,1,2.39-4.14C987.65,678.48,988.72,679.09,988.72,680.62Z"/><path class="cls-23" d="M995.11,651.47h0V631l-45.81,0-15.83-9.14c-3.64-2.1-10-1.84-14.18.59L904.52,631l-45.85,0v21c-.1,1.42.69,2.79,2.43,3.8L920.31,690c3.64,2.1,10,1.84,14.18-.59l57.17-33C994.08,655,995.25,653.15,995.11,651.47Z"/><path class="cls-23" d="M926.89,620.46a16.41,16.41,0,0,0-7.6,2L904.52,631l-45.85,0v21c-.1,1.42.69,2.79,2.43,3.8L920.31,690a12.82,12.82,0,0,0,6.58,1.41Z"/><path class="cls-22" d="M863.86,631h-5.19v21c-.1,1.42.69,2.79,2.43,3.8l2.76,1.59Z"/><path class="cls-22" d="M921.22,690.4a16.17,16.17,0,0,0,11.34-.13V666.41H921.22Z"/><path class="cls-3" d="M920.31,669,861.1,634.83c-3.63-2.09-3.17-5.76,1-8.18l57.17-33c4.2-2.42,10.54-2.68,14.18-.58l59.21,34.18c3.63,2.1,3.17,5.76-1,8.18l-57.17,33C930.29,670.85,924,671.12,920.31,669Z"/><path class="cls-22" d="M921.38,662.87l-49.62-28.65c-3-1.76-2.66-4.83.85-6.86l47.91-27.66c3.52-2,8.84-2.25,11.88-.49L982,627.85c3,1.76,2.66,4.83-.85,6.86l-47.91,27.66C929.74,664.4,924.42,664.62,921.38,662.87Z"/><path class="cls-3" d="M973.33,656.86a5.29,5.29,0,0,1-2.39,4.14c-1.32.76-2.39.14-2.39-1.38a5.27,5.27,0,0,1,2.39-4.14C972.26,654.71,973.33,655.33,973.33,656.86Z"/><path class="cls-3" d="M981,652.41a5.3,5.3,0,0,1-2.39,4.15c-1.33.76-2.4.14-2.4-1.38a5.29,5.29,0,0,1,2.4-4.15C980,650.27,981,650.89,981,652.41Z"/><path class="cls-3" d="M988.72,648a5.27,5.27,0,0,1-2.39,4.14c-1.32.77-2.39.15-2.39-1.38a5.29,5.29,0,0,1,2.39-4.14C987.65,645.83,988.72,646.45,988.72,648Z"/><path class="cls-23" d="M995.11,618.82h0V598.39l-45.81,0-15.83-9.14c-3.64-2.09-10-1.83-14.18.59l-14.77,8.53-45.85,0v21c-.1,1.42.69,2.79,2.43,3.8l59.21,34.19c3.64,2.09,10,1.83,14.18-.59l57.17-33C994.08,622.31,995.25,620.5,995.11,618.82Z"/><path class="cls-23" d="M926.89,587.82a16.28,16.28,0,0,0-7.6,2l-14.77,8.53-45.85,0v21c-.1,1.42.69,2.79,2.43,3.8l59.21,34.19a12.92,12.92,0,0,0,6.58,1.4Z"/><path class="cls-22" d="M863.86,598.32h-5.19v21c-.1,1.42.69,2.79,2.43,3.8l2.76,1.59Z"/><path class="cls-22" d="M921.22,657.75a16.12,16.12,0,0,0,11.34-.13V633.77H921.22Z"/><path class="cls-3" d="M920.31,636.37,861.1,602.19c-3.63-2.1-3.17-5.76,1-8.19l57.17-33c4.2-2.43,10.54-2.69,14.18-.59l59.21,34.18c3.63,2.1,3.17,5.76-1,8.19l-57.17,33C930.29,638.21,924,638.47,920.31,636.37Z"/><path class="cls-22" d="M921.38,630.22l-49.62-28.65c-3-1.75-2.66-4.83.85-6.86l47.91-27.66c3.52-2,8.84-2.25,11.88-.49L982,595.21c3,1.76,2.66,4.83-.85,6.86l-47.91,27.66C929.74,631.76,924.42,632,921.38,630.22Z"/><path class="cls-3" d="M973.33,624.21a5.27,5.27,0,0,1-2.39,4.14c-1.32.76-2.39.15-2.39-1.38a5.29,5.29,0,0,1,2.39-4.14C972.26,622.07,973.33,622.69,973.33,624.21Z"/><path class="cls-3" d="M981,619.77a5.29,5.29,0,0,1-2.39,4.14c-1.33.76-2.4.14-2.4-1.38a5.26,5.26,0,0,1,2.4-4.14C980,617.62,981,618.24,981,619.77Z"/><path class="cls-3" d="M988.72,615.33a5.29,5.29,0,0,1-2.39,4.14c-1.32.76-2.39.14-2.39-1.38a5.27,5.27,0,0,1,2.39-4.14C987.65,613.18,988.72,613.8,988.72,615.33Z"/><path class="cls-23" d="M995.11,586.17h0V565.74l-45.81,0-15.83-9.14c-3.64-2.1-10-1.84-14.18.58l-14.77,8.53-45.85,0v21c-.1,1.42.69,2.79,2.43,3.8l59.21,34.18c3.64,2.1,10,1.83,14.18-.59l57.17-33C994.08,589.67,995.25,587.86,995.11,586.17Z"/><path class="cls-23" d="M926.89,555.17a16.52,16.52,0,0,0-7.6,2l-14.77,8.53-45.85,0v21c-.1,1.42.69,2.79,2.43,3.8l59.21,34.18a12.82,12.82,0,0,0,6.58,1.4Z"/><path class="cls-22" d="M863.86,565.67h-5.19v21c-.1,1.42.69,2.79,2.43,3.8l2.76,1.59Z"/><path class="cls-22" d="M921.22,625.11a16.23,16.23,0,0,0,11.34-.13V601.12H921.22Z"/><path class="cls-3" d="M920.31,603.73,861.1,569.54c-3.63-2.1-3.17-5.76,1-8.18l57.17-33c4.2-2.42,10.54-2.69,14.18-.59L992.68,562c3.63,2.09,3.17,5.76-1,8.18l-57.17,33C930.29,605.56,924,605.82,920.31,603.73Z"/><path class="cls-22" d="M921.38,597.57l-49.62-28.64c-3-1.76-2.66-4.83.85-6.86l47.91-27.66c3.52-2,8.84-2.25,11.88-.49L982,562.56c3,1.76,2.66,4.83-.85,6.86l-47.91,27.66C929.74,599.11,924.42,599.33,921.38,597.57Z"/><path class="cls-3" d="M973.33,591.56a5.3,5.3,0,0,1-2.39,4.15c-1.32.76-2.39.14-2.39-1.38a5.3,5.3,0,0,1,2.39-4.15C972.26,589.42,973.33,590,973.33,591.56Z"/><path class="cls-3" d="M981,587.12a5.27,5.27,0,0,1-2.39,4.14c-1.33.77-2.4.15-2.4-1.38a5.27,5.27,0,0,1,2.4-4.14C980,585,981,585.6,981,587.12Z"/><path class="cls-3" d="M988.72,582.68a5.29,5.29,0,0,1-2.39,4.14c-1.32.76-2.39.15-2.39-1.38a5.29,5.29,0,0,1,2.39-4.14C987.65,580.54,988.72,581.15,988.72,582.68Z"/><path class="cls-23" d="M995.11,553.53h0V533.1l-45.81,0-15.83-9.14c-3.64-2.1-10-1.83-14.18.59l-14.77,8.53-45.85,0v21c-.1,1.42.69,2.79,2.43,3.8L920.31,592c3.64,2.1,10,1.84,14.18-.58l57.17-33C994.08,557,995.25,555.21,995.11,553.53Z"/><path class="cls-23" d="M926.89,522.52a16.41,16.41,0,0,0-7.6,2l-14.77,8.53-45.85,0v21c-.1,1.42.69,2.79,2.43,3.8L920.31,592a12.82,12.82,0,0,0,6.58,1.41Z"/><path class="cls-22" d="M863.86,533h-5.19v21c-.1,1.42.69,2.79,2.43,3.8l2.76,1.59Z"/><path class="cls-22" d="M921.22,592.46a16.17,16.17,0,0,0,11.34-.13V568.47H921.22Z"/><path class="cls-3" d="M920.31,571.08,861.1,536.9c-3.63-2.1-3.17-5.77,1-8.19l57.17-33c4.2-2.42,10.54-2.68,14.18-.58l59.21,34.18c3.63,2.1,3.17,5.76-1,8.18l-57.17,33C930.29,572.91,924,573.18,920.31,571.08Z"/><path class="cls-22" d="M921.38,564.93l-49.62-28.65c-3-1.76-2.66-4.83.85-6.86l47.91-27.66c3.52-2,8.84-2.25,11.88-.49L982,529.91c3,1.76,2.66,4.83-.85,6.86l-47.91,27.66C929.74,566.46,924.42,566.68,921.38,564.93Z"/><rect class="cls-9" x="945.54" y="566.93" width="27.43" height="0.96" transform="translate(-155.17 554.12) rotate(-29.92)"/><path class="cls-3" d="M973.33,558.92a5.29,5.29,0,0,1-2.39,4.14c-1.32.76-2.39.14-2.39-1.38a5.27,5.27,0,0,1,2.39-4.14C972.26,556.77,973.33,557.39,973.33,558.92Z"/><path class="cls-3" d="M981,554.48a5.3,5.3,0,0,1-2.39,4.14c-1.33.76-2.4.14-2.4-1.38a5.29,5.29,0,0,1,2.4-4.15C980,552.33,981,553,981,554.48Z"/><path class="cls-3" d="M988.72,550a5.27,5.27,0,0,1-2.39,4.14c-1.32.77-2.39.15-2.39-1.38a5.3,5.3,0,0,1,2.39-4.14C987.65,547.89,988.72,548.51,988.72,550Z"/><path class="cls-23" d="M995.11,520.66h0V500.23l-45.81,0-15.83-9.14c-3.64-2.1-10-1.83-14.18.59l-14.77,8.53-45.85,0v21c-.1,1.42.69,2.79,2.43,3.8l59.21,34.18c3.64,2.1,10,1.84,14.18-.58l57.17-33C994.08,524.15,995.25,522.34,995.11,520.66Z"/><path class="cls-23" d="M926.89,489.65a16.41,16.41,0,0,0-7.6,2l-14.77,8.53-45.85,0v21c-.1,1.42.69,2.79,2.43,3.8l59.21,34.18a12.82,12.82,0,0,0,6.58,1.41Z"/><path class="cls-22" d="M863.86,500.15h-5.19v21c-.1,1.42.69,2.79,2.43,3.8l2.76,1.59Z"/><path class="cls-22" d="M921.22,559.59a16.17,16.17,0,0,0,11.34-.13V535.6H921.22Z"/><path class="cls-3" d="M920.31,538.21,861.1,504c-3.63-2.1-3.17-5.77,1-8.19l57.17-33c4.2-2.42,10.54-2.68,14.18-.58l59.21,34.18c3.63,2.1,3.17,5.76-1,8.18l-57.17,33C930.29,540,924,540.31,920.31,538.21Z"/><path class="cls-9" d="M991.66,500.59l-57.17,33c-4.2,2.42-10.54,2.69-14.18.59L861.1,500a5.54,5.54,0,0,1-1.81-1.61c-1.25,2-.68,4.19,1.81,5.63l59.21,34.18c3.64,2.1,10,1.83,14.18-.59l57.17-33c3.26-1.88,4.25-4.51,2.83-6.57A7.93,7.93,0,0,1,991.66,500.59Z"/><path class="cls-3" d="M973.33,526.05a5.29,5.29,0,0,1-2.39,4.14c-1.32.76-2.39.14-2.39-1.38a5.27,5.27,0,0,1,2.39-4.14C972.26,523.9,973.33,524.52,973.33,526.05Z"/><path class="cls-3" d="M949.77,539a5.29,5.29,0,0,1-2.39,4.14c-1.32.76-2.39.15-2.39-1.38a5.29,5.29,0,0,1,2.39-4.14C948.7,536.86,949.77,537.47,949.77,539Z"/><path class="cls-9" d="M949.77,572.88a5.29,5.29,0,0,1-2.39,4.14c-1.32.76-2.39.14-2.39-1.38a5.27,5.27,0,0,1,2.39-4.14C948.7,570.73,949.77,571.35,949.77,572.88Z"/><path class="cls-3" d="M981,521.61a5.3,5.3,0,0,1-2.39,4.14c-1.33.76-2.4.14-2.4-1.38a5.29,5.29,0,0,1,2.4-4.15C980,519.46,981,520.08,981,521.61Z"/><path class="cls-3" d="M988.72,517.16a5.3,5.3,0,0,1-2.39,4.15c-1.32.76-2.39.14-2.39-1.39a5.29,5.29,0,0,1,2.39-4.14C987.65,515,988.72,515.64,988.72,517.16Z"/><path class="cls-22" d="M923.81,517l-27.7-16c-1.7-1-1.49-2.7.47-3.83l26.76-15.45a7.38,7.38,0,0,1,6.63-.27l27.7,16c1.71,1,1.49,2.7-.47,3.84l-26.75,15.44A7.4,7.4,0,0,1,923.81,517Z"/><path class="cls-3" d="M926.46,503.62l-3.83-2.21c-.23-.14-.2-.37.07-.53l3.7-2.14a1.07,1.07,0,0,1,.92,0l3.83,2.22c.24.13.21.37-.07.53l-3.7,2.13A1,1,0,0,1,926.46,503.62Z"/><path class="cls-23" d="M896.11,501l.07,0c.13-.09.25-.18.4-.27l26.76-15.44a7.35,7.35,0,0,1,6.63-.28L957.6,501c1.56-1.12,1.65-2.65.07-3.56l-27.7-16a7.38,7.38,0,0,0-6.63.27l-26.76,15.45C894.62,498.32,894.41,500,896.11,501Z"/><path class="cls-3" d="M918,543.05c0,1.61-1.12,2.26-2.52,1.46a5.59,5.59,0,0,1-2.52-4.37c0-1.6,1.13-2.25,2.52-1.45A5.54,5.54,0,0,1,918,543.05Z"/><path class="cls-22" d="M910.2,538.57c0,1.61-1.13,2.26-2.52,1.45a5.56,5.56,0,0,1-2.52-4.36c0-1.61,1.13-2.26,2.52-1.45A5.56,5.56,0,0,1,910.2,538.57Z"/><path class="cls-3" d="M918,552.49c0,1.6-1.12,2.26-2.52,1.45a5.57,5.57,0,0,1-2.52-4.36c0-1.61,1.13-2.26,2.52-1.46A5.56,5.56,0,0,1,918,552.49Z"/><path class="cls-3" d="M910.2,548c0,1.61-1.13,2.26-2.52,1.46a5.59,5.59,0,0,1-2.52-4.37c0-1.6,1.13-2.25,2.52-1.45A5.57,5.57,0,0,1,910.2,548Z"/><path class="cls-3" d="M918,575.48c0,1.61-1.12,2.26-2.52,1.46a5.59,5.59,0,0,1-2.52-4.37c0-1.6,1.13-2.25,2.52-1.45A5.54,5.54,0,0,1,918,575.48Z"/><path class="cls-3" d="M910.2,571c0,1.61-1.13,2.26-2.52,1.45a5.56,5.56,0,0,1-2.52-4.36c0-1.61,1.13-2.26,2.52-1.46A5.59,5.59,0,0,1,910.2,571Z"/><path class="cls-22" d="M918,584.92c0,1.6-1.12,2.26-2.52,1.45A5.57,5.57,0,0,1,913,582c0-1.61,1.13-2.26,2.52-1.46A5.56,5.56,0,0,1,918,584.92Z"/><path class="cls-3" d="M910.2,580.43c0,1.61-1.13,2.26-2.52,1.46a5.59,5.59,0,0,1-2.52-4.37c0-1.6,1.13-2.25,2.52-1.45A5.57,5.57,0,0,1,910.2,580.43Z"/><path class="cls-3" d="M918,608c0,1.61-1.12,2.26-2.52,1.46A5.59,5.59,0,0,1,913,605c0-1.6,1.13-2.26,2.52-1.45A5.53,5.53,0,0,1,918,608Z"/><path class="cls-22" d="M910.2,603.47c0,1.61-1.13,2.26-2.52,1.45a5.56,5.56,0,0,1-2.52-4.36c0-1.61,1.13-2.26,2.52-1.46A5.59,5.59,0,0,1,910.2,603.47Z"/><path class="cls-3" d="M918,617.39c0,1.6-1.12,2.25-2.52,1.45a5.57,5.57,0,0,1-2.52-4.36c0-1.61,1.13-2.26,2.52-1.46A5.55,5.55,0,0,1,918,617.39Z"/><path class="cls-22" d="M910.2,612.9c0,1.61-1.13,2.26-2.52,1.46a5.59,5.59,0,0,1-2.52-4.37c0-1.6,1.13-2.26,2.52-1.45A5.57,5.57,0,0,1,910.2,612.9Z"/><path class="cls-22" d="M918,640.74c0,1.6-1.12,2.26-2.52,1.45a5.57,5.57,0,0,1-2.52-4.36c0-1.61,1.13-2.26,2.52-1.46A5.56,5.56,0,0,1,918,640.74Z"/><path class="cls-3" d="M910.2,636.25c0,1.61-1.13,2.26-2.52,1.46a5.57,5.57,0,0,1-2.52-4.37c0-1.6,1.13-2.25,2.52-1.45A5.57,5.57,0,0,1,910.2,636.25Z"/><path class="cls-3" d="M918,650.17c0,1.61-1.12,2.26-2.52,1.46a5.59,5.59,0,0,1-2.52-4.37c0-1.61,1.13-2.26,2.52-1.45A5.53,5.53,0,0,1,918,650.17Z"/><path class="cls-22" d="M910.2,645.69c0,1.6-1.13,2.26-2.52,1.45a5.56,5.56,0,0,1-2.52-4.36c0-1.61,1.13-2.26,2.52-1.46A5.59,5.59,0,0,1,910.2,645.69Z"/><path class="cls-22" d="M918,673.21c0,1.6-1.12,2.25-2.52,1.45A5.57,5.57,0,0,1,913,670.3c0-1.61,1.13-2.26,2.52-1.46A5.55,5.55,0,0,1,918,673.21Z"/><path class="cls-3" d="M910.2,668.72c0,1.61-1.13,2.26-2.52,1.46a5.59,5.59,0,0,1-2.52-4.37c0-1.6,1.13-2.26,2.52-1.45A5.57,5.57,0,0,1,910.2,668.72Z"/><path class="cls-22" d="M918,682.64c0,1.61-1.12,2.26-2.52,1.45a5.56,5.56,0,0,1-2.52-4.36c0-1.61,1.13-2.26,2.52-1.45A5.53,5.53,0,0,1,918,682.64Z"/><path class="cls-3" d="M910.2,678.16c0,1.6-1.13,2.25-2.52,1.45a5.57,5.57,0,0,1-2.52-4.36c0-1.61,1.13-2.26,2.52-1.46A5.57,5.57,0,0,1,910.2,678.16Z"/><path class="cls-3" d="M918,706.08c0,1.61-1.12,2.26-2.52,1.45a5.56,5.56,0,0,1-2.52-4.36c0-1.61,1.13-2.26,2.52-1.46A5.56,5.56,0,0,1,918,706.08Z"/><path class="cls-22" d="M910.2,701.6c0,1.6-1.13,2.25-2.52,1.45a5.57,5.57,0,0,1-2.52-4.36c0-1.61,1.13-2.26,2.52-1.46A5.57,5.57,0,0,1,910.2,701.6Z"/><path class="cls-3" d="M918,715.51c0,1.61-1.12,2.26-2.52,1.46A5.59,5.59,0,0,1,913,712.6c0-1.6,1.13-2.26,2.52-1.45A5.54,5.54,0,0,1,918,715.51Z"/><path class="cls-3" d="M910.2,711c0,1.61-1.13,2.26-2.52,1.45a5.56,5.56,0,0,1-2.52-4.36c0-1.61,1.13-2.26,2.52-1.46A5.59,5.59,0,0,1,910.2,711Z"/><path class="cls-3" d="M1568.24,850.61c-21.93-12.66-57.5-12.66-79.44,0s-21.94,33.2,0,45.87,57.51,12.67,79.44,0S1590.18,863.28,1568.24,850.61Zm-21.46,33.48c-10.08,5.82-26.43,5.82-36.52,0s-10.08-15.26,0-21.09,26.44-5.82,36.52,0S1556.87,878.27,1546.78,884.09Z"/><path class="cls-20" d="M1480.51,833.21l20,.32a21.37,21.37,0,0,1,6.33-5.32c11-6.37,28.35-6.86,40.35-1.49l11.91-11.2,18.33.29c-.9-.59-1.83-1.18-2.81-1.75-25.48-14.71-66.79-14.71-92.27,0a48.69,48.69,0,0,0-11.47,8.94Z"/><polygon class="cls-21" points="1577.47 786.71 1577.47 815.81 1559.14 815.52 1559.14 786.42 1577.47 786.71"/><polygon class="cls-20" points="1547.23 797.62 1547.23 826.72 1559.14 815.52 1559.14 786.42 1547.23 797.62"/><path class="cls-20" d="M1500.55,804.43v29.1l26.36-21.48,20.32,14.67v-29.1l-18.71-9.07s-25.76,7.88-27.09,8.22S1500.55,804.43,1500.55,804.43Z"/><polygon class="cls-20" points="1480.51 804.12 1480.51 833.21 1500.55 833.53 1500.55 804.43 1480.51 804.12"/><polygon class="cls-21" points="1470.92 793.9 1470.92 823 1480.51 833.21 1480.51 804.12 1470.92 793.9"/><path class="cls-4" d="M1480.51,804.12l20,.31a21.37,21.37,0,0,1,6.33-5.32c11-6.37,28.35-6.86,40.35-1.49l11.91-11.2,18.33.29c-.9-.59-1.83-1.18-2.81-1.74-25.48-14.72-66.79-14.72-92.27,0a48.69,48.69,0,0,0-11.47,8.94Z"/><path class="cls-19" d="M1553.27,801.2V828l17.34-4.15s-1-15.66-1.38-16.07S1553.27,801.2,1553.27,801.2Z"/><path class="cls-19" d="M1540.14,828v29.1l1.88,2,12.22-7s-1.89-22.22-2.12-22.66S1540.14,828,1540.14,828Z"/><path class="cls-19" d="M1563.75,820.44l-10.48,9.86c8.73,6.91,7.7,16.66-3.11,22.89a37.09,37.09,0,0,1-10,3.86L1551,868.6l-9.6,9c12.19-1.41,23.82-4.84,33.28-10.29,21.9-12.65,25-32.05,9.2-46.59Z"/><polygon class="cls-19" points="1541.38 848.53 1541.38 877.63 1565.16 868.45 1593.76 841.16 1593.65 810.26 1563.39 834.25 1541.38 848.53"/><path class="cls-1" d="M1563.75,791.34l-10.48,9.86c8.73,6.91,7.7,16.66-3.11,22.9a37.4,37.4,0,0,1-10,3.85L1551,839.5l-9.6,9c12.19-1.41,23.82-4.84,33.28-10.29,21.9-12.65,25-32,9.2-46.59Z"/><path class="cls-11" d="M1541.3,868.45l-9.55-10.18c-8.87.54-18.07-1.15-24.87-5.08-7-4.05-9.91-9.58-8.68-14.86l-22.75-.35-8.75-9.32c-7.65,13.13-2.43,28.21,15.69,38.68,13.31,7.68,30.95,11.34,48.39,11Z"/><polygon class="cls-11" points="1530.78 849.24 1530.78 878.34 1463.3 840.94 1463.3 811.83 1473.15 815.81 1530.78 849.24"/><polygon class="cls-2" points="1541.3 839.35 1541.3 868.45 1530.78 878.34 1530.78 849.24 1541.3 839.35"/><path class="cls-8" d="M1541.3,839.35l-9.55-10.18c-8.87.54-18.07-1.15-24.87-5.07-7-4.06-9.91-9.59-8.68-14.86l-22.75-.36-8.75-9.32c-7.65,13.13-2.43,28.21,15.69,38.68,13.31,7.68,30.95,11.35,48.39,11Z"/><path class="cls-19" d="M995,422.58l-51.53-29.75a2.62,2.62,0,0,0-2.66-.21v0l-5,2.89,3.51,1.28v37.52c0,3.06,1.85,6.6,4.14,7.93l49.25,28.43V475l5-2.91h0a3.67,3.67,0,0,0,1.4-3.3V430.5C999.14,427.45,997.29,423.9,995,422.58Z"/><path class="cls-1" d="M989.91,474.88l-51.53-29.75c-2.29-1.32-4.14-4.87-4.14-7.92V398.9c0-3,1.85-4.46,4.14-3.14l51.53,29.75c2.29,1.32,4.14,4.87,4.14,7.92v38.31C994.05,474.79,992.2,476.2,989.91,474.88Z"/><path class="cls-9" d="M955.71,431.93c0,2.21-1.56,3.11-3.48,2a7.66,7.66,0,0,1-3.47-6c0-2.21,1.55-3.11,3.47-2A7.67,7.67,0,0,1,955.71,431.93Z"/><path class="cls-9" d="M966.24,438c0,2.21-1.55,3.11-3.47,2a7.67,7.67,0,0,1-3.48-6c0-2.21,1.56-3.11,3.48-2A7.66,7.66,0,0,1,966.24,438Z"/><path class="cls-9" d="M976.77,444.09c0,2.21-1.55,3.11-3.47,2a7.67,7.67,0,0,1-3.48-6c0-2.21,1.56-3.11,3.48-2A7.67,7.67,0,0,1,976.77,444.09Z"/><path class="cls-22" d="M965.67,374.41l-51.52-29.75a2.62,2.62,0,0,0-2.66-.21v0l-5,2.89,3.52,1.28v37.53c0,3.05,1.85,6.59,4.14,7.92l49.25,28.43v4.4l5.05-2.91h0a3.67,3.67,0,0,0,1.4-3.3V382.33C969.82,379.28,968,375.73,965.67,374.41Z"/><path class="cls-3" d="M960.59,426.71,909.06,397c-2.29-1.32-4.14-4.87-4.14-7.92V350.73c0-3.05,1.85-4.46,4.14-3.14l51.53,29.75c2.28,1.32,4.14,4.87,4.14,7.92v38.31C964.73,426.62,962.87,428,960.59,426.71Z"/><path class="cls-9" d="M926.39,383.76c0,2.21-1.56,3.11-3.48,2a7.66,7.66,0,0,1-3.47-6c0-2.21,1.55-3.11,3.47-2A7.68,7.68,0,0,1,926.39,383.76Z"/><path class="cls-9" d="M936.92,389.84c0,2.21-1.56,3.11-3.48,2a7.66,7.66,0,0,1-3.47-6c0-2.21,1.55-3.11,3.47-2A7.68,7.68,0,0,1,936.92,389.84Z"/><path class="cls-9" d="M947.45,395.92c0,2.22-1.55,3.11-3.47,2a7.7,7.7,0,0,1-3.48-6c0-2.21,1.56-3.11,3.48-2A7.67,7.67,0,0,1,947.45,395.92Z"/><path class="cls-21" d="M835.52,782.55,784,752.8a2.62,2.62,0,0,0-2.66-.21v0l-5,2.89,3.51,1.28v37.52c0,3.06,1.85,6.6,4.14,7.93l49.25,28.43V835l5-2.91h0a3.67,3.67,0,0,0,1.4-3.3V790.47C839.66,787.41,837.81,783.87,835.52,782.55Z"/><path class="cls-20" d="M838.29,832.09h0a3.67,3.67,0,0,0,1.4-3.3V790.47a10.21,10.21,0,0,0-1.15-4.48l-41.27,23.83,36,20.78V835Z"/><path class="cls-4" d="M830.43,834.85,778.9,805.1c-2.28-1.32-4.14-4.87-4.14-7.92V758.87c0-3,1.86-4.46,4.14-3.14l51.53,29.75c2.29,1.32,4.14,4.87,4.14,7.92v38.31C834.57,834.76,832.72,836.17,830.43,834.85Z"/><rect class="cls-22" x="1417.3" y="780.48" width="12.98" height="28.01" transform="translate(2939.33 193.24) rotate(129.2)"/><path class="cls-22" d="M1433.79,808.57a10.12,10.12,0,0,0,5.8-7.12c.47-2.89-1.37-4.39-4.1-3.35a10.12,10.12,0,0,0-5.8,7.12C1429.22,808.11,1431.06,809.61,1433.79,808.57Z"/><rect class="cls-22" x="1395.12" y="765.38" width="21.03" height="28.61" transform="translate(2898.24 183.15) rotate(129.2)"/><path class="cls-23" d="M1420.61,783.51l7.34,6a16.78,16.78,0,0,1-8.2,10.06l-7.35-6A16.82,16.82,0,0,1,1420.61,783.51Z"/><path class="cls-22" d="M1415.35,797.2a16.41,16.41,0,0,0,9.4-11.53c.76-4.68-2.22-7.11-6.65-5.42a16.41,16.41,0,0,0-9.4,11.52C1407.94,796.46,1410.92,798.88,1415.35,797.2Z"/><path class="cls-22" d="M1393.17,779.11a16.43,16.43,0,0,0,9.4-11.53c.76-4.68-2.22-7.11-6.65-5.42a16.39,16.39,0,0,0-9.4,11.52C1385.76,778.36,1388.74,780.79,1393.17,779.11Z"/><path class="cls-3" d="M1393.77,775.43a9.28,9.28,0,0,0,5.31-6.52c.43-2.65-1.25-4-3.76-3.07a9.29,9.29,0,0,0-5.32,6.52C1389.57,775,1391.26,776.38,1393.77,775.43Z"/><path class="cls-3" d="M1433.86,800.33c1.06.87,2.1.48,2.32-.88a4.75,4.75,0,0,0-1.53-4c-1.06-.86-2.1-.47-2.32.89A4.73,4.73,0,0,0,1433.86,800.33Z"/><path class="cls-22" d="M1230.31,998.26a19.85,19.85,0,0,1-10.27-2.91l-13.93-8.24a1.58,1.58,0,0,1,1.61-2.71l13.94,8.25A16.76,16.76,0,0,0,1247,977.1l-.3-4.2c-4.89-68.76-14-196.74,40-210.55a420.54,420.54,0,0,0,40.59-12.63c27.67-9.9,29.58-9.37,67.74,19.46a1.57,1.57,0,0,1-1.89,2.51c-37.91-28.63-38.42-28.45-64.79-19a421.86,421.86,0,0,1-40.87,12.72c-51.39,13.15-42.41,139.43-37.59,207.27l.3,4.21a19.63,19.63,0,0,1-9.45,18.39A19.89,19.89,0,0,1,1230.31,998.26Z"/><ellipse class="cls-3" cx="1336.12" cy="994.3" rx="51.03" ry="29.46"/><path class="cls-6" d="M1360.46,981.68a7.87,7.87,0,0,1,4.45,7.87,13.08,13.08,0,0,1-.65,3.85c-.91,1.92-3.91,4.56-8.7,2.67s-15.4-11.88-15.8-18.41C1339,965.52,1352.9,978.45,1360.46,981.68Z"/><path class="cls-6" d="M1332.36,1001.75s1.14,7,.59,8.28-3.89,4-8.81,3.43-19.07-5.47-22.22-14.8c-4.89-14.45,27.32,1.09,27.32,1.09Z"/><path class="cls-4" d="M1318.53,889.88l-1.1,109.25c.12,3.8,2.61,7,6,7.57.42.07.86.13,1.33.17a6.8,6.8,0,0,0,6.49-2.69,8,8,0,0,0,1.47-4.41l1.39-46.63,7-41.7,9.64,73.8a6.4,6.4,0,0,0,2.64,4.86,7.49,7.49,0,0,0,4.4,1.19,8.07,8.07,0,0,0,5.83-2.88,5.83,5.83,0,0,0,1.4-3.95l-3.82-44.4-1.42-56.64Z"/><path class="cls-7" d="M1332.68,792.09l1.72,9.95a4.55,4.55,0,0,1-3.72,4.34c-3.8.94-5-1.51-5-1.51L1324,793.66Z"/><path class="cls-7" d="M1312.43,792.39c6.34,6.31,16,6.83,21.62,1.17s5-15.36-1.34-21.67-16-6.84-21.61-1.18S1306.1,786.08,1312.43,792.39Z"/><path class="cls-2" d="M1332.23,802.22c.26-.1,16.09-10.29,21.94.37,9.53,17.39,9,73.37,6,80.62-2.79,6.71-9.75,11.66-14.63,14.44a29.18,29.18,0,0,1-14.19,4c-5,0-14.43-4.36-14.09-10.82,1.59-29.74-1-54.81-3.47-79.13C1313.75,811.74,1316.78,808.48,1332.23,802.22Z"/><path class="cls-12" d="M1341,911.44l9.64,73.8a6.4,6.4,0,0,0,2.64,4.86,7.2,7.2,0,0,0,.83.46c-2-1.5-7.84-63.44-8.92-70.33S1341,911.44,1341,911.44Z"/><polygon class="cls-7" points="1281.61 805.51 1273.01 777.34 1277.56 775.46 1287.69 797.53 1281.61 805.51"/><polygon class="cls-7" points="1368.31 783.31 1361.86 753.98 1356.73 754.04 1358.66 778.36 1368.31 783.31"/><path class="cls-2" d="M1313.75,811.74s-15.45,3.08-25.28-14.91a2.45,2.45,0,0,0-4.08-.43c-1.57,2.4-3.66,6.08-2.58,10.06,4.79,17.58,30.76,21.47,35.43,31.66S1313.75,811.74,1313.75,811.74Z"/><path class="cls-2" d="M1342.26,798.57s12.24.94,14-9.65a80.28,80.28,0,0,0,1.23-10.59,2.15,2.15,0,0,1,2.4-2.08c2.93.37,7.47,1.24,8.09,3.21.91,2.93,2.64,17.31-9.44,39.38C1350.62,833.3,1342.26,798.57,1342.26,798.57Z"/><path class="cls-7" d="M1361.89,754.05l-.12-3.34a6.82,6.82,0,0,0-1-3.34l-3.39-5.57-.88-1.11a2.58,2.58,0,0,0-3.39-.58l-.78.49a3.19,3.19,0,0,0-1.49,2.91l1.75,4.76-2.21-.43a.79.79,0,0,0-.93.64h0a.81.81,0,0,0,.48.87l3.62,1.46,3.29,4.65Z"/><path class="cls-7" d="M1272.89,777.49l-1-3.19a6.85,6.85,0,0,1-.19-3.48l1.3-6.39.45-1.34a2.58,2.58,0,0,1,3-1.7l.9.2a3.2,3.2,0,0,1,2.39,2.23l0,5.07,1.94-1.15a.78.78,0,0,1,1.08.28h0a.79.79,0,0,1-.15,1l-2.91,2.6-1.7,6.18Z"/><path class="cls-14" d="M1321,833.05c1.4,6.42-2.55,56.3,10.32,68.64-5,0-14.43-4.36-14.09-10.82a395,395,0,0,0-1.18-54.69c-5-6.54-18.92-10.7-27.61-19.08C1289.07,817.29,1319.59,826.69,1321,833.05Z"/><path class="cls-9" d="M1337.92,799.41l-2.2-2.26s-3.62,3.7-6.52,4.34a33.6,33.6,0,0,1-5.2,1.07l-1.42,3.91S1334.09,805.64,1337.92,799.41Z"/><path class="cls-6" d="M1321.71,787.84a1.85,1.85,0,0,1-1.71,0c-.94-.49-2.45-4.21-4.4-3.94-3,.43-7.45,6.82-12.94-2.09-2.85-4.64-1.18-7.14-2.56-9.77,0,0,.49,1.43,12.43-5.86s21.71,1.59,24.74,6.68,5,15-2.85,20.61c-1.29.93-9.66-.73-9.83-1.43s2.07-1.83.8-3.47A2.62,2.62,0,0,0,1321.71,787.84Z"/><polygon class="cls-20" points="776.34 755.44 804.67 795.29 833.43 788.93 804.06 798.48 776.34 755.44"/><polygon class="cls-20" points="808 796.53 810.4 795.86 833.24 835 808 796.53"/><polygon class="cls-20" points="801.95 794.14 776.53 802.73 800.64 791.92 801.95 794.14"/><path class="cls-19" d="M789.24,758.89c0-8.86-6.22-19.65-13.9-24.08-3.74-2.16-7.13-2.4-9.63-1.07h0l-.15.08-.08.05-4.85,2.79,2.3-.14a12.52,12.52,0,0,0-1.49,6.33c0,8.86,6.23,19.65,13.91,24.08a13.05,13.05,0,0,0,5.7,1.87c-.32.61-1.07,2.1-1.07,2.1l5-2.92.31-.18.23-.13h0C787.81,766.14,789.24,763.12,789.24,758.89Z"/><ellipse class="cls-1" cx="770.3" cy="753.76" rx="11.35" ry="19.66" transform="translate(-273.69 486.17) rotate(-30)"/><path class="cls-9" d="M769.89,762.55a8.16,8.16,0,0,1-1.89-1.46,6.14,6.14,0,0,1-1.2-1.78,8.7,8.7,0,0,1-.6-2A13.46,13.46,0,0,1,766,755l2.56,1.48c0,.48,0,.88,0,1.22a6.55,6.55,0,0,0,.18,1,2.61,2.61,0,0,0,.43.92,2.35,2.35,0,0,0,.75.65,1.14,1.14,0,0,0,.5.17,1,1,0,0,0,.36-.06.6.6,0,0,0,.24-.33,3,3,0,0,0,.15-.49,4.21,4.21,0,0,0,.07-.7c0-.31,0-.58,0-.79s0-.52,0-.93,0-.82,0-1.13a9.14,9.14,0,0,0-.1-1,3.93,3.93,0,0,0-.23-.86,2.94,2.94,0,0,0-.41-.67,2.26,2.26,0,0,0-.65-.54.89.89,0,0,0-.91-.11,1.24,1.24,0,0,0-.53.8l-2.24-1.29.12-9.69,6.91,4v2.74l-4.68-2.7-.15,4a1.16,1.16,0,0,1,.84-.13,3.44,3.44,0,0,1,1.18.42A5.44,5.44,0,0,1,772,752.3a5.56,5.56,0,0,1,1.06,1.69,9.3,9.3,0,0,1,.6,2,14.43,14.43,0,0,1,.19,2.35,17.19,17.19,0,0,1-.1,2,6.17,6.17,0,0,1-.36,1.55,2,2,0,0,1-.69,1,1.62,1.62,0,0,1-1.15.22A4.4,4.4,0,0,1,769.89,762.55Z"/><path class="cls-1" d="M1078.48,374a24.68,24.68,0,1,1,24.68-24.67A24.7,24.7,0,0,1,1078.48,374Zm0-44a19.3,19.3,0,1,0,19.29,19.3A19.32,19.32,0,0,0,1078.48,330Z"/><path class="cls-4" d="M996.74,977.31a17.5,17.5,0,1,1,17.5-17.5A17.53,17.53,0,0,1,996.74,977.31Zm0-29.62a12.12,12.12,0,1,0,12.11,12.12A12.14,12.14,0,0,0,996.74,947.69Z"/><path class="cls-1" d="M1152.91,246.87,1141,222.71l24.16-11.88L1177.07,235Zm-4.67-21.71,7.12,14.5,14.5-7.13-7.13-14.5Z"/><rect class="cls-11" x="1559.36" y="229.84" width="25.58" height="5.38" transform="translate(296.05 1179.78) rotate(-45)"/><rect class="cls-11" x="1569.45" y="219.74" width="5.38" height="25.58" transform="translate(295.98 1179.69) rotate(-45)"/><circle class="cls-4" cx="1056.49" cy="365.55" r="17.84"/><circle class="cls-4" cx="817.24" cy="627.23" r="13.08"/><path class="cls-1" d="M978,984.64a10.5,10.5,0,1,1-10.5-10.5A10.5,10.5,0,0,1,978,984.64Z"/><path class="cls-11" d="M1773.2,586.57a6,6,0,1,1-3.48-7.69A6,6,0,0,1,1773.2,586.57Z"/><rect class="cls-4" x="1729.04" y="537.13" width="24.85" height="24.85" transform="translate(305.86 -579.05) rotate(20.66)"/></g></g></svg>